<svg xmlns="http://www.w3.org/2000/svg" width="95" height="20" fill="none"><g fill="#236CFF" clip-path="url(#a)"><path d="M48.358 11.523c0 4.753 3.813 8.227 8.655 8.227 4.843 0 8.659-3.469 8.659-8.227V.614H60.98v10.35c0 2.563-1.716 4.282-3.98 4.282-2.263 0-3.98-1.72-3.98-4.283V.614h-4.686l.024 10.91Zm29.848-6.53h5.596V19.37h4.689V4.993h5.593V.614H78.206v4.379ZM75.176.614h-4.689V19.37h4.689V.614Zm-45.76 4.379h5.595V19.37h4.69V4.993h5.593V.614H29.416v4.379ZM4.818.614H.13V19.37h4.688V.614Zm22.13 7.847c0-4.753-3.816-8.226-8.658-8.226-4.843 0-8.658 3.468-8.658 8.226v10.91h4.688V9.02c0-2.563 1.72-4.283 3.98-4.283 2.261 0 3.98 1.72 3.98 4.283v10.35h4.69l-.022-10.91Z"/></g><defs><clipPath id="a"><path fill="#fff" d="M0 0h94.332v20H0z"/></clipPath></defs></svg>