<svg xmlns="http://www.w3.org/2000/svg" width="500" height="500"><path fill="#2A9F1A" d="M243.975-.762q4.373.02 8.746-.04c30.628-.43 59.673 4.837 88.279 16.115l2.24.878c10.507 4.211 20.667 9.267 30.256 15.29 2.23 1.353 4.486 2.602 6.777 3.847 4.502 2.49 8.723 5.256 12.914 8.234l2.21 1.566C402.639 50.338 409.352 56.063 416 62l2.703 2.367c8.58 7.582 16.986 15.39 23.762 24.66 1.518 2.037 1.518 2.037 3.465 3.891C456.7 103.75 465.042 118.528 472 132l1.746 3.336c3.958 7.712 7.301 15.51 10.254 23.664l1.242 3.258C499.285 199.85 503.226 242.347 498 282l-.358 2.8c-2.94 22.118-9.203 43.562-17.642 64.2l-.977 2.434c-10.56 25.025-26.732 47.79-45.199 67.52a204 204 0 0 0-6.574 7.421c-3.384 3.908-7.08 7.557-11.25 10.625h-2l-.637 1.707c-1.827 3.074-4.346 4.89-7.176 6.98l-1.74 1.312c-6.031 4.507-12.22 8.773-18.447 13.001l-2.324 1.648c-5.928 4.143-12.292 7.275-18.786 10.418a213 213 0 0 0-5.574 2.875c-33.298 17.547-71.573 25.275-109.004 25.309l-2.33.003c-13.514-.012-26.648-.948-39.982-3.253l-2.607-.438C172.226 490.86 139.926 478.927 112 460l-1.83-1.234C101.294 452.732 93.06 446.076 85 439l-2.578-2.238C72.686 428.172 63.302 418.993 55 409l-2.137-2.508C47.384 399.962 42.62 393.156 38 386q-1.124-1.656-2.254-3.309c-4.98-7.369-8.79-14.813-12.195-23.023a104 104 0 0 0-4.114-8.606C12.461 337.316 8.726 321.877 5 307l-.693-2.748C.023 286.747-.89 269.581-.764 251.656q.02-3.281.025-6.563C-.67 223.67.524 203.568 7 183q.91-3.15 1.812-6.305C10.374 171.4 12.115 166.19 14 161l.745-2.063C20.232 143.987 26.962 129.136 36 116a6954 6954 0 0 0 4.187-6.312Q42.093 106.842 44 104l1.926-3.043C48.049 97.929 50.357 95.58 53 93c1.98-2.235 3.892-4.526 5.812-6.812C63.32 80.873 67.964 75.823 73 71l2.5-2.5L78 66l1.695-1.8c4.53-4.723 9.333-8.587 14.692-12.34 2.62-1.865 5.115-3.836 7.613-5.86a376 376 0 0 1 3.875-3l1.867-1.437c2.327-1.61 4.73-3.018 7.197-4.403a599 599 0 0 0 7.022-4.035L127.375 30l2.71-1.578C135.6 25.248 141.136 22.46 147 20l2.173-.944c9.854-4.255 19.805-7.836 30.14-10.744l2.79-.79C185.39 6.63 188.694 5.818 192 5l2.266-.62C210.8-.114 226.964-.846 243.976-.761M264 87v258c79.068 4.408 79.068 4.408 139-30 2.197-2.55 4.123-5.209 6-8l1.52-2.184c14.641-21.387 21.283-45.565 17.132-71.34L427 230l-.559-3.04C420.8 200.957 403.986 181.195 382 167c-16.318-10.35-33.486-12.581-52.375-13.687l-2.507-.148c-4.187-.338-4.187-.338-8.118.835v34c5.727.842 5.727.842 11.383 1.176 20.226.551 34.512 6.235 48.617 20.824 2.356 2.854 4.243 5.747 6 9l1.36 2.441c7.78 15.355 8.039 31.501 2.86 47.664-2.981 8.606-7.21 16.91-14.22 22.895l-1.805 1.668c-17.63 16.087-37.42 16.371-60.215 16.344l-4.077-.003L299 310l.006-2.905q.066-35.031.098-70.062.014-16.94.047-33.88.03-14.77.037-29.54.003-7.816.023-15.633.02-7.366.015-14.732 0-2.696.012-5.39c.064-15.607-.345-29.702-11.613-41.796C280.394 89.478 274.048 88.676 264 87m-159 88-1.863 1.39C95.493 182.506 89.364 190.868 84 199v2h-2c-13.12 26.73-16.265 53.084-6.633 81.508C79.025 292.825 84.3 301.385 91 310l2.312 3.125c4.165 4.455 8.882 8.136 13.688 11.875l2.738 2.145c17.428 13.19 37.169 18.1 58.762 17.918L179 345v-34c-7.776-.536-7.776-.536-15.554-1.046-14.098-1.05-25.649-5.412-36.536-14.5-1.95-1.647-1.95-1.647-4.91-2.454a206 206 0 0 1-2-5l-1.75-2.125c-9.896-12.645-13.804-28.634-11.941-44.504 2.744-17.074 10.46-31.703 24.441-42.184 8.285-5.484 18.055-9.2 28.04-9.392l2.79-.06 2.97-.051 3.073-.063q4.845-.097 9.69-.184l6.58-.13q8.054-.161 16.107-.307l.007 3.054q.088 36.795.229 73.588.07 17.794.11 35.587.034 15.51.103 31.019.037 8.21.049 16.423.01 7.732.056 15.463.014 2.835.011 5.67c-.002 2.585.015 5.17.036 7.755l-.014 2.252c.116 8.66 3.46 15.924 9.413 22.189 7.656 6.387 15.114 9.082 25 9a261216 261216 0 0 0 .055-109.747v-2.329q.008-18.686.022-37.37.014-19.16.017-38.318.002-11.832.014-23.664.008-9.057.005-18.114 0-3.727.006-7.453.007-5.064.001-10.128l.01-3.021-.007-2.72.001-2.364c.069-1.798.069-1.798-1.124-2.772a262 262 0 0 0-9.168-.352l-2.864-.07q-3.03-.072-6.061-.136c-3.009-.065-6.017-.144-9.026-.223-36.379-.87-71.751.17-101.881 22.781"/><path fill="#A0C391" d="M188 188q2.969-.04 5.938-.062l3.34-.036C200 188 200 188 201 189c.103 2.524.142 5.02.138 7.545l.009 2.424q.011 4.05.01 8.102l.016 5.784q.017 6.244.026 12.49c.01 6.584.031 13.17.053 19.754.062 18.728.116 37.456.15 56.185q.027 15.503.087 31.004c.021 5.471.037 10.942.04 16.413q.002 7.725.044 15.451.01 2.833.005 5.665c-.003 2.583.011 5.166.03 7.749l-.017 2.25c.067 5.32 1.333 9.28 3.409 14.184l1.188 3 .812 2c-3.37-1.123-4.532-2.532-7-5-1.24-3.719-1.135-7.157-1.12-11.03l-.003-2.507q0-4.173.01-8.347l-.001-5.971q.001-8.12.013-16.239.007-8.48.008-16.96.005-16.065.021-32.13.015-18.285.022-36.572.016-37.622.05-75.244h-11z"/><path fill="#62914F" d="M294 105c1.875.125 1.875.125 4 1 1.188 2.938 1.188 2.938 2 6l1 2-1 3 2 1v10h-1l-1 178c6.863.98 13.102 1.15 20 1l2.34-.038c10.89-.208 21.187-1.117 31.795-3.678 5.693-1.37 5.693-1.37 7.865-.284-16 7.613-30.824 8.066-48.312 8.125l-3.672.014-3.442-.006-3.106-.004C301 311 301 311 299 310l-.01-2.905a71139 71139 0 0 0-.278-70.062q-.076-16.94-.134-33.88-.05-14.77-.12-29.54-.04-7.816-.061-15.633-.02-7.366-.064-14.732a1394 1394 0 0 1-.017-5.39c-.016-11.323-.25-22.113-4.316-32.858"/><path fill="#5E9550" d="M197.928 150.87q5.858.006 11.715-.004 4.534-.005 9.067 0 2.163 0 4.326-.002 2.992-.002 5.986.007l3.435.002C235 151 235 151 236 152c.096 1.387.124 2.778.123 4.168l.006 2.74-.009 3.045.003 3.207c.002 3.577-.004 7.153-.01 10.729l.001 7.655q0 8.264-.008 16.527-.011 11.948-.012 23.896-.004 19.382-.019 38.765-.014 18.833-.02 37.666v2.344l-.005 11.639q-.016 48.31-.05 96.619h-1l-1-257c-40.822-1.21-40.822-1.21-81.348 1.598-2.934.323-5.708.488-8.652.402v-2l6-1v-1c15.958-1.256 31.934-1.154 47.928-1.13"/><path fill="#379126" d="M136 302c6.055-.195 6.055-.195 8 0l2 2c1.967.673 1.967.673 4.125 1.125L154 306v2c3.47-.458 6.674-.891 10-2 2.522.037 4.988.138 7.5.313l2.05.107c3.608.238 5.377.532 8.45 2.58.292 2.65.396 5.061.363 7.71l.002 2.318a554 554 0 0 1-.029 4.857c-.023 2.473-.02 4.946-.014 7.42a2309 2309 0 0 1-.021 4.718l.003 2.239c-.052 3.729-.234 6.57-2.304 9.738-25.775.244-25.775.244-35-2l-3.75-.875L138 344l-1-3 2.688.375 1.976.273c1.645.248 3.286.527 4.922.829 10.766 1.893 21.497 2.121 32.414 2.523v-34h-17c-8.656-.943-19.557-2.557-26-9"/><path fill="#418035" d="M263 85c2.084.114 4.167.242 6.25.375 1.16.07 2.32.14 3.516.21 2.94.377 4.733.892 7.234 2.415v3l-2.738-.656-3.575-.844-3.55-.844c-3.092-.758-3.092-.758-6.137-.656l-1 258h-1a264895 264895 0 0 1-.056-112.892q-.007-18.82-.021-37.641-.014-19.3-.017-38.6-.002-11.916-.014-23.833-.008-9.124-.005-18.25 0-3.753-.006-7.505-.007-5.103-.001-10.206l-.01-3.036.007-2.746-.001-2.382C262 87 262 87 263 85"/><path fill="#318D1E" d="M199 189v195h-1l-1-192h-44c12.504-6.252 33.48-3 46-3"/><path fill="#65AA53" d="M494 198h1q.973 6.437 1.938 12.875l.552 3.648c1.644 11.001 2.706 21.66 2.697 32.79l-.002 3.424C500.084 264.9 499.051 279.138 496 293h-1c-.186-19.844-.186-19.844.5-28.312.527-6.775.613-13.52.625-20.313l.014-3.165-.006-3-.004-2.677c-.133-2.602-.594-4.987-1.129-7.533-.175-2.71-.32-5.412-.437-8.125-.293-6.108-.943-11.901-2.356-17.871L492 200z"/><path fill="#7FB671" d="M188 492q3.688-.08 7.375-.125l2.117-.05c1.837-.018 3.674.072 5.508.175l2 2c2.562.426 2.562.426 5.438.563 3.142.205 5.56.437 8.562 1.437 10.227 1.28 20.528 1.12 30.813 1.063q2.367-.009 4.736-.014 5.725-.017 11.451-.049v-1c4.27-.393 8.54-.761 12.813-1.125l3.681-.34 3.526-.293 3.253-.285C292 494 292 494 295 496q-3.904.726-7.812 1.438l-2.178.408c-11.52 2.08-23.022 2.393-34.697 2.404l-2.331.003C227.53 500.235 207.959 497.35 188 493z"/><path fill="#53A244" d="M318 154h1v34l12.188.25c13.088.421 24.838 1.919 35.812 9.75l1 2-5-1v-2l-1.562.688c-3.033.388-4.87-.591-7.59-1.856-7.018-3.16-14.462-3.912-22.063-3.785l-2.287.034q-2.28.043-4.558.131c-3.158.067-5.573-.045-8.467-1.364C315 189 315 189 314.828 186.3l.422-2.988.39-3.012c.12-.76.238-1.519.36-2.301h1z"/><path fill="#6FB162" d="M200.295 150.931q5.883.014 11.767.02 11.469.016 22.938.049l1 2-3.965-.016q-7.454-.026-14.907-.039-3.195-.008-6.388-.02c-11.232-.046-22.443.011-33.666.512l-2.633.117c-6.6.329-13.152.965-19.71 1.784-3.603.45-7.098.768-10.731.662v-2l6-1v-1c16.742-1.333 33.514-1.118 50.295-1.069"/><path fill="#6CB05B" d="M416 201h2v2l5-1-1 10 4 1c1.176 3.674 1.074 7.17 1 11h2c1.024 7.84 1.155 15.618 1.13 23.517-.005 2.073 0 4.146.007 6.22l-.004 3.954-.004 3.6C430 264 430 264 429 265l-.375 3.125c-.67 4.152-1.85 7.095-3.625 10.875-1.528-3.055-.386-5.273.375-8.562 2.918-13.673 3.216-26.645.625-40.438l-.559-3.004c-1.989-9.08-5.765-17.496-9.441-25.996"/><path fill="#3A9227" d="M179 311h1q.25 7.662.482 15.326.08 2.61.166 5.218.122 3.742.23 7.483l.083 2.37c.052 1.868.05 3.736.039 5.603-1.542 1.542-2.977 1.13-5.121 1.133l-2.572.006-2.744-.014-2.766-.008c-7.678-.054-15.304-.294-22.797-2.117l-3.75-.875L138 344l-1-3 2.688.375 1.976.273c1.645.248 3.286.527 4.922.829 10.766 1.893 21.497 2.121 32.414 2.523z"/><path fill="#6DAC60" d="m77 428 3 1v2l4 1v3l3 1 1 2 3 1 1.75 2.875c3.2 4.444 6.802 5.442 11.938 6.875 2.4.26 4.035.01 6.312-.75l-1 4h-2v2l2.875.688C114 456 114 456 115.125 458.5L116 461c2.017 1.344 2.017 1.344 4 2-11.602 0-26.439-16.411-35.125-23.875l-1.938-1.659C79.922 434.843 77.224 432.36 75 429z"/><path fill="#378F26" d="M362 303a971 971 0 0 1-4.125 1.875l-2.32 1.055c-6.489 2.718-11.724 3.355-18.696 3.3h-2.919q-3.04-.006-6.082-.024c-3.111-.019-6.223-.02-9.335-.02l-5.914-.018-2.828-.003-2.61-.02-2.3-.011C303 309 303 309 301 308l1-2 2.156.492c5.246.937 10.535.624 15.844.508l2.349-.038c10.887-.208 21.181-1.118 31.786-3.678 5.693-1.37 5.693-1.37 7.865-.284"/><path fill="#61A451" d="m464 374 2 1c-3.413 9.377-10.242 17.459-16.125 25.438l-1.486 2.042c-3.1 4.15-6.282 7.358-10.389 10.52v-4h2l1-5 5-1v-3h2l.25-2.187c.907-3.402 2.35-5.268 4.75-7.813h2v-3h2v-2h2l.25-2.687c.843-3.726 2.206-5.522 4.75-8.313"/><path fill="#64A459" d="M433 415c2.125.375 2.125.375 4 1-13.176 15.007-13.176 15.007-21 21h-2l-.719 1.766c-1.554 2.71-3.3 4.1-5.781 5.984l-2.406 1.86C403 448 403 448 401 448l-1-3h3v-2h3v-2h3l1-3h2v-2h2v-2h2l1-3h3v-3h2v-2c5.476-5 5.476-5 8-5l.375-1.875C431 417 431 417 433 415"/><path fill="#5CA44D" d="M269 0c10.879-.524 20.456.979 31 3.375q2.212.483 4.426.96C310.383 5.643 316.236 6.979 322 9v1c-6.009.207-10.526-.263-16-3a214 214 0 0 0-5.875-.312c-6.387-.412-12.537-1.38-18.812-2.625l-2.646-.515-2.491-.513-2.222-.457C272 2 272 2 269 0"/><path fill="#438534" d="M263 85c2.084.114 4.167.242 6.25.375 1.16.07 2.32.14 3.516.21 2.94.377 4.733.892 7.234 2.415v3l-2.738-.656-3.575-.844-3.55-.844c-3.092-.758-3.092-.758-6.137-.656l-1 74h-1q-.034-14.616-.052-29.233-.007-6.786-.023-13.573-.016-6.545-.02-13.09-.003-2.502-.01-5.003-.01-3.495-.009-6.99l-.01-2.103c.01-4.78.01-4.78 1.124-7.008"/><path fill="#3C912C" d="m341.438 150.813 2.966.29c7.082.726 7.082.726 10.596 1.897v2l2.375.375C360 156 360 156 362 158l-1.686-.26A342 342 0 0 0 319 154c1-2 1-2 2.883-2.661 6.744-1.408 12.734-1.298 19.555-.526"/><path fill="#5FA753" d="m165.563 188.875 3.056.027q3.69.036 7.381.098v1l-1.712.06c-2.555.095-5.109.205-7.663.315-.89.03-1.779.062-2.695.094l-2.578.117-2.38.095c-2.202.159-2.202.159-3.972 2.319l-3.062.5-2.938.5-1 2c-4.439 1.902-8.203 2.192-13 2l-1 3h-5c8.952-10.804 23.431-12.35 36.563-12.125"/><path fill="#86B17A" d="M299 274h1l1 34 42 1v1c-9.771.917-19.5 1.11-29.312 1.125l-3.67.014-3.444-.006-3.106-.004C301 311 301 311 299 310z"/><path fill="#469F35" d="M74 212h3l-.805 3.148C73.422 226.068 70.91 236.741 70 248h-1l-1 5h-1q-.041-5.22-.062-10.437l-.026-3.01-.01-2.862-.016-2.65C67 232 67 232 68 231l.438-3.25c.49-3.272 1.204-5.763 2.562-8.75h1z"/><path fill="#5CA34E" d="M33 377c1.938.75 1.938.75 4 2q.544 1.99 1 4l3 1c1.438 1.25 1.438 1.25 3 3l2.063 2.25C48 392 48 392 49 395.563c1.07 3.677 2.218 4.933 5 7.437v2h3l-2 4a208 208 0 0 1-17-23l-1.61-2.5C33 378.166 33 378.166 33 377"/><path fill="#67A958" d="M493 291c2.855 4.282 2.461 7.679 1.494 12.545a300 300 0 0 1-2.244 8.705l-.766 2.95c-1.792 6.75-3.994 13.276-6.484 19.8h-1c-.125-6.75-.125-6.75 1-9l-.582-2.305c-.53-3.412.265-4.818 1.894-7.82l1.364-2.57c1.04-1.81 2.166-3.569 3.324-5.305.167-2.625.167-2.625 0-5h2z"/><path fill="#6AAA5C" d="M324 11c6.18.527 11.271 1.98 17 4.313l2.29.896c5.048 2.008 9.879 4.304 14.71 6.791-3.383.976-5.566.859-9 0v-2a535 535 0 0 0-4.25-.062l-2.39-.036c-2.267.094-4.189.466-6.36 1.098v-5h-3v-2l-9-2z"/><path fill="#85B978" d="M136 302c6.055-.195 6.055-.195 8 0l2 2c1.967.673 1.967.673 4.125 1.125L154 306v2l25 1v2c-14.669.313-27.601-.192-41-7z"/><path fill="#63A55A" d="m2 287 3 1 .212 1.769c1.506 13.82 1.506 13.82 5.936 26.88C12.917 321.53 12.838 326.85 13 332c-1.838-2.757-2.554-4.488-3.402-7.613l-.756-2.764-.78-2.935-.803-2.995C1.784 295.058 1.784 295.058 2 287"/><path fill="#7AB76D" d="M202 5c-.568.182-1.137.364-1.723.55l-2.34.763-2.285.738c-2.792.956-2.792.956-5.937 2.457-3.933 1.713-7.87 2.398-12.09 3.055-2.577.401-5.075.87-7.625 1.437l-1 2-7-1c2.557-2.557 4.632-2.926 8.11-3.91l3.726-1.06 1.948-.544a971 971 0 0 0 5.833-1.652C197.352 3.391 197.352 3.391 202 5"/><path fill="#489A38" d="M22 351c1.902.719 1.902.719 4 2 .941 2.094.941 2.094 1.563 4.5 1.013 3.983 1.013 3.983 4.437 6.5.512 3.04.512 3.04.688 6.625l.199 3.602L33 377c-3.587-4.046-5.618-8.143-7.687-13.062l-.932-2.143c-2.739-6.382-2.739-6.382-3.381-9.795z"/><path fill="#62AB52" d="M390 327a56.5 56.5 0 0 1-4 7h-4v2c-1.412.676-2.83 1.34-4.25 2l-2.39 1.125C373 340 373 340 369 340v2l-12 1c3.173-2.116 5.947-3.06 9.563-4.25 7.199-2.463 13.582-5.736 19.585-10.43C388 327 388 327 390 327"/><path fill="#54A040" d="M127 201c0 3.983-1.5 4.945-4 8-1.413 2.296-2.702 4.635-4 7h-2v6l-5 2v5l-3 1c1.563-12.15 9.644-20.644 18-29"/><path fill="#65AE57" d="M27 132c1 2 1 2 1 6a88 88 0 0 1-2 5 907 907 0 0 0-2.219 6.328C23 151 23 151 21 152l-.5 2-.5 2-2 1c-1.134 2.017-1.134 2.017-2 4-1-2-1-2-.25-4.547 3.286-8.42 7.08-16.44 11.25-24.453"/><path fill="#73AA61" d="M331 486c-4.075 2.717-8.317 3.73-13 5.063l-2.862.818c-6.355 1.762-12.51 3.088-19.138 3.119 4.012-4.146 7.288-4.512 12.793-4.727 2.413-.069 2.413-.069 4.207-2.273 2.863-.633 2.863-.633 6.313-1.125l3.425-.508A59 59 0 0 1 331 486"/><path fill="#5FA952" d="M75 282c2.086 3.13 3.68 6.375 5.313 9.75 2.505 5.11 5.167 9.77 8.687 14.25l-1 2-4-2v-2l-3 1-.516-2.555-.734-3.32-.703-3.305c-.752-2.939-.752-2.939-3.102-4.02L74 291c-.875-2.937-.875-2.937-1-6z"/><path fill="#67B059" d="M428 234h2q.037 6.381.055 12.762.008 2.173.02 4.345c.013 2.078.018 4.155.023 6.233l.016 3.793C430 264 430 264 429 265l-.375 3.125c-.67 4.152-1.85 7.095-3.625 10.875-1.528-3.055-.386-5.273.375-8.562 2.596-11.987 2.863-24.202 2.625-36.438"/><path fill="#97C984" d="M179 311h1l1 36c-4.127.825-6.688 1.055-10.75.688-.964-.08-1.928-.158-2.922-.239L165 347l-1-2h15z"/><path fill="#71B15D" d="m367 157 1 2h5v2h2v2h8v2l2.313.625c3.51 1.796 4.213 3.806 5.687 7.375-4.788-1.646-8.762-4.3-13-7-5.11-3.233-10.206-5.266-16-7v-1z"/><path fill="#57A445" d="m89 308 1.875 1.938c3.468 3.477 7.154 6.711 10.82 9.976 1.817 1.644 3.573 3.354 5.305 5.086H97l1-5-2.25-.625C92.137 317.568 90.9 315.52 89 312z"/><path fill="#60AB52" d="m232 0-2 1v2l-6.055-.098C221.918 2.874 221.918 2.874 220 4a61 61 0 0 1-4.133.098l-2.441-.01-2.551-.026-2.574-.013Q205.15 4.029 202 4c9.495-4.989 19.599-4.215 30-4"/><path fill="#398E26" d="M199 189v3h-46c4.3-2.15 7.633-2.44 12.313-2.625l2.47-.115c10.4-.43 20.81-.351 31.217-.26"/><path fill="#76B563" d="M108 230c.934 3.01 1.044 3.867 0 7-.333 4.965.068 9.754.777 14.672.487 5.088.293 10.223.223 15.328-5.993-8.99-4.473-21.542-2.535-31.617C107 233 107 233 108 230"/><path fill="#92C086" d="M150 152h39v1l-1.734.06c-10.898.394-21.716.925-32.54 2.28-3.602.448-7.096.766-10.726.66v-2l6-1z"/><path fill="#529D44" d="M295 495c-7.336 4.227-17.702 4.67-26 4-1.742-1.52-1.742-1.52-3-3 3.52-.368 7.04-.717 10.563-1.062l3.001-.315c5.381-.518 10.127-.688 15.436.377"/><path fill="#339622" d="M384 455h8c-2.943 3.145-6 5.492-9.625 7.813l-2.914 1.894L377 466c-2-1-2-1-3-3l3-1v-2l2-1 2-3 3 1z"/><path fill="#75B167" d="M453 103c3.636 3.319 6.14 7 8.75 11.125l1.246 1.918c3.004 4.7 3.004 4.7 3.004 6.957h-2v-2l-1.937-.312L460 120l-1-3-3-2c-1.338-3.94-2.256-7.909-3-12"/><path fill="#64AF53" d="m54 92 1 2c-1.11 2.566-1.11 2.566-2.75 5.563l-1.61 3.003C49 105 49 105 46 106v3l-6 3c2.761-7.433 7.165-13.665 13-19z"/><path fill="#7CB868" d="M4 198c1.942 3.516 2.183 5.972 2 10l-3 1v12H1v9H0c-.653-11.287 1.237-21.122 4-32"/><path fill="#539B43" d="M199 369h1l.078 2.676c.386 8.168 1.693 14.83 4.922 22.324q1.005 2.499 2 5c-3.37-1.123-4.532-2.532-7-5-1-3-1.116-4.974-1.098-8.105l.01-2.979.025-3.103.014-3.14q.018-3.836.049-7.673"/><path fill="#77B26B" d="M387 40c4.95 2.708 9.43 5.658 13.875 9.125l1.758 1.34C406.87 53.743 406.87 53.743 408 56h-3l-1 2v-5l-7-1 1-3h-5v-2l-4-1v-4h-2z"/><path fill="#56A743" d="m109 270 4 1v4h2l.25 2.375c.478 2.772.478 2.772 2.813 3.938L120 282v5l2 1-1 3c-12-14.851-12-14.851-12-21"/><path fill="#5DAC4B" d="M39 112h1c-.494 7.413-.494 7.413-2.937 10.25L35 124c-1.235 2.133-1.235 2.133-2 4h-3l-1 4-1-2c2.84-6.437 6.688-12.456 11-18"/><path fill="#6CA65C" d="M160 483c8.063-.33 14.605 2.146 22 5v2l2 1c-8.532-1.146-16.069-3.696-24-7z"/><path fill="#369925" d="m111 448-1 4h-2v2l2.875.688C114 456 114 456 115.125 458.5L116 461c2.017 1.344 2.017 1.344 4 2-3.545 0-4.702-.827-7.625-2.75l-2.414-1.547c-2.236-1.942-2.34-2.914-2.961-5.703l-3-1v-2c2.647-1.46 3.894-2 7-2"/><path fill="#70AA68" d="M388 225c5.985 5.985 5.867 18.024 6 26-.177 2.735-.523 5.297-1 8h-1l-.113-2.79c-.416-8.002-1.365-15.382-3.266-23.187-.571-2.78-.742-5.196-.621-8.023"/><path fill="#5DA749" d="M80 196h6l-2 5h-2l-.312 2.125c-.782 3.266-2.109 5.922-3.688 8.875-1.125-3.75-1.125-3.75 0-6h-2c.573-2.867.861-3.861 3-6 .643-2.069.643-2.069 1-4"/><path fill="#87BD7B" d="M14 161c1.072 3.652.764 6.264 0 10h-2l.035 1.828.027 2.422.036 2.39c-.094 2.267-.466 4.189-1.098 6.36H8v6H6c1.634-9.97 4.864-19.422 8-29"/><path fill="#6CAB5C" d="M348 477h5c-3.477 2.96-7.357 4.545-11.562 6.188l-2.038.826c-2.947 1.167-5.202 1.986-8.4 1.986l-1-3c3-2 3-2 6.188-1.625L339 482v-2l9-1z"/><path fill="#7CB66F" d="M404 185c3.934.562 6.832 1.556 10 4v4c1.426 2.711 1.426 2.711 3 5l-2 3-1.39-2.23-1.86-2.958-1.828-2.917c-1.838-2.77-3.806-5.335-5.922-7.895"/><path fill="#3D922E" d="M318 149c7.429 1 7.429 1 11 2-1.812 1.812-4.724 1.472-7.187 1.719-1.83.101-1.83.101-2.813 1.281-.159 2.29-.251 4.584-.316 6.879l-.063 2.08q-.097 3.302-.183 6.603l-.131 4.467q-.161 5.486-.307 10.971h-1q-.037-7.208-.055-14.417-.008-2.452-.02-4.906a2153 2153 0 0 1-.023-7.044l-.015-2.223c0-5.182 0-5.182 1.113-7.41"/><path fill="#5AA14A" d="M439 86c5.863 4.58 11.594 9.783 14 17l-2 2v-2l-1.875-.75c-2.503-1.472-2.955-2.66-4.125-5.25l-2-1a101 101 0 0 1-2-6h-2z"/><path fill="#6EA965" d="M486 167c2.877 4.316 3.834 8.965 5.188 13.938l.865 3.037.802 2.927.74 2.672c.42 2.52.22 4.03-.595 6.426-5.173-9.607-6.551-18.124-7-29"/><path fill="#5CA349" d="M153 153v1h-9v3a886 886 0 0 1-5.75 2l-3.234 1.125C132 161 132 161 128 161v-2l1.934-.586 2.504-.789 2.496-.773c2.244-.66 2.244-.66 3.066-2.852 5.468-2.12 9.253-2.008 15-1"/><path fill="#78AF66" d="m387 269 2 1c-2.535 8.45-6.524 15.137-12 22l-2-4h3v-3h2v-4h3l-.187-2.312c.224-3.218.904-3.588 3.187-5.688.714-2.103.714-2.103 1-4"/><path fill="#77B567" d="m407 309 1 2c-2.696 7.703-6.87 10.412-14 14l-2.312 1.164L390 327c2.357-3.24 4.9-5.854 7.938-8.437 3.453-2.944 6.273-5.99 9.062-9.563"/><path fill="#70B061" d="M144 24c-2 2-2 2-3.875 2.375-2.295.474-2.295.474-3.875 2.563-2.355 2.158-3.36 2.507-6.375 3.187-3.867.51-3.867.51-5.875 2.875l-2-2a908 908 0 0 1 8.75-5.062l2.5-1.471 2.422-1.377 2.222-1.286c2.486-.95 3.644-.702 6.106.196"/><path fill="#6EB662" d="M74 212h3q-.93 3.877-1.875 7.75l-.527 2.21c-.877 3.573-1.725 6.834-3.598 10.04-1.528-7.767-.136-12.8 3-20"/><path fill="#6AA25E" d="M319 188c4.126.082 8.25.195 12.375.313l3.504.068c7.161.222 13.39 1.129 20.121 3.619v1c-3.303.161-5.836.053-9-.969-5.051-1.507-10.202-1.492-15.437-1.656l-3.084-.117q-3.74-.141-7.479-.258z"/><path fill="#50A040" d="M482 337c.892 2.49 1.084 3.727.293 6.29l-1.106 2.335-1.082 2.352C479 350 479 350 477 352l-1-1-2 2c.507-3.719 1.116-6.735 3-10h2l.938-1.875z"/><path fill="#6EAF61" d="M494 198h1q.76 4.498 1.5 9l.434 2.543c.85 5.229 1.213 10.16 1.066 15.457h-2l-.113-2.527c-.368-6.302-.953-11.808-3.364-17.668-.775-2.675.276-4.402 1.477-6.805"/><path fill="#339424" d="m294 105 4 1c1.188 2.938 1.188 2.938 2 6l1 2-1 3 2 1v10h-1q-.507-2.123-1-4.25l-.562-2.39C299 119 299 119 299 115h-2z"/><path fill="#85BA7A" d="M391 173a295 295 0 0 1 3.938.875l2.214.492C399 175 399 175 400 177h3v3l2 1-2 4z"/><path fill="#74B665" d="m106 43 2 1v3h-3v2h-4l-.125 1.875C100 53 100 53 97.125 54.25 94 55 94 55 91 55q2.625-2.158 5.25-4.312l2.953-2.426A188 188 0 0 1 106 43"/><path fill="#6CAD5B" d="M477 354c-1.392 4.627-3.295 8.647-5.625 12.875l-1.914 3.492L468 373l-1-4h2l-.125-2.625c.17-4.572.704-8.042 4.125-11.25 2-1.125 2-1.125 4-1.125"/><path fill="#7DB470" d="M6 309h2c3.7 7.626 4.736 14.566 5 23-1.695-2.542-2.458-4.076-3.29-6.906l-.663-2.254-.672-2.34-.695-2.34C6.746 314.955 6 312.363 6 309"/><path fill="#70AD61" d="M362 303c-13.592 6.222-13.592 6.222-17.375 5.625L343 308c2.687-3.53 5.852-3.897 10.063-4.75l3.785-.797C360 302 360 302 362 303"/><path fill="#63A855" d="M70 263h1q1.048 3.62 2.063 7.25l.603 2.066C75.4 278.583 75.4 278.583 74 282h-2v-3h-2z"/><path fill="#7EB671" d="M56 409c2.813.188 2.813.188 6 1 1.688 2.438 1.688 2.438 3 5l3 2c.188 2.625.188 2.625 0 5-4.553-3.577-8.492-7.373-12-12z"/><path fill="#389526" d="M18 156h2c-.875 3.875-.875 3.875-2 5l-.312 3.625C17.19 169.213 15.485 172.152 13 176h-1v-5h2l.113-2.012c.68-9.14.68-9.14 3.887-12.988"/><path fill="#80B573" d="M426 72a85 85 0 0 1 13 13l-4 1-1-2 1-2-2.812-.75c-3.394-1.33-4.508-2.076-6.188-5.25z"/><path fill="#86BE77" d="M148 192c-4.263 4.13-7.288 4.613-13 5l-1 4h-5c4.26-5.141 12.198-11.267 19-9"/><path fill="#6CAD5D" d="M114 169c-4.62 3.726-9.31 7.362-14 11l-1-3 2.438-2.375c2.549-2.345 2.549-2.345 3.562-4.625 3.196-1.065 5.657-1.074 9-1"/><path fill="#379323" d="M182 488c2.25.087 4.5.195 6.75.313l3.797.175C196 489 196 489 200 492h-16v-2h-2z"/><path fill="#67AE55" d="M128 161c-2.929 2.334-5.886 4.05-9.25 5.688l-2.703 1.324L114 169l-1-3h3l.688-1.875c2.754-4.459 6.63-4.463 11.312-3.125"/><path fill="#92C486" d="M340 152v2h-21l1-2c6.759-1.403 13.18-.739 20 0"/><path fill="#59A44A" d="m336 17 7 1 3.438.313c4.334.836 7.734 2.55 11.562 4.687-3.383.976-5.566.859-9 0v-2a535 535 0 0 0-4.25-.062l-2.39-.036c-2.267.094-4.189.466-6.36 1.098z"/><path fill="#95C18C" d="m91 443 1.563.813c2.547 1.298 2.547 1.298 5.812 2.375 4.371 1.812 6.847 5.098 9.625 8.812-4.014 0-6.018-1.961-9.062-4.312l-1.643-1.225c-2.65-2.014-4.43-3.666-6.295-6.463"/><path fill="#7FB572" d="M412 436h2c-.333 3.017-.988 3.989-3.215 6.14l-2.723 2.11-2.714 2.14C403 448 403 448 401 448l-1-3h3v-2h3v-2h3l1-3h2z"/><path fill="#78B168" d="M13 332h2v5l3 1v5h2v3l2 1-1 5c-2.74-3.271-4.18-6.585-5.687-10.562l-1.325-3.442C13 335 13 335 13 332"/><path fill="#60A550" d="M380 212c3.674 3.376 6.054 6.391 8 11v2c-1.75-.125-1.75-.125-4-1-2.693-3.216-3.938-5.16-4.25-9.375z"/><path fill="#76B267" d="M358 24c6.164 1.666 11.483 4.878 17 8v3l-5-1v-2l-2.062-.75c-3.507-1.492-6.654-3.318-9.938-5.25z"/><path fill="#6DAF61" d="M202 5c-.568.182-1.137.364-1.723.55-3.764 1.226-7.433 2.471-11.027 4.138-3.085 1.245-4.979 1.61-8.25 1.312l3-2V7c2.247-.532 4.498-1.05 6.75-1.562l3.797-.88c3.048-.492 4.63-.635 7.453.442"/><path fill="#75A960" d="m464 374 2 1c-1.433 3.96-3.331 7.287-5.625 10.813l-1.914 2.957L457 391c-1.125-3.75-1.125-3.75 0-6h2l.25-2.687c.843-3.726 2.206-5.522 4.75-8.313"/><path fill="#6DB25A" d="M120 334c5.72 1.855 11.356 3.931 17 6-3.566 1.964-5.036 2.038-9 1q-2.998-.51-6-1l1-4-4-1z"/><path fill="#389229" d="M488 182c2.203 3.304 2.932 6.195 4 10l1.125 2.063c1.21 2.68 1.007 5.036.875 7.937l-1-2h-2l-.375-2.812c-.44-3.327-.44-3.327-2.625-6.188-.195-2.262-.195-2.262-.125-4.687l.055-2.45z"/><path fill="#82B879" d="M298 4c8.316.584 16.015 2.738 24 5v1c-5.282.182-9.012-.105-14-2a495 495 0 0 0-5.375-1.625c-.874-.26-1.748-.52-2.648-.79L298 5z"/><path fill="#6FB261" d="M137 341c6.677.932 13.338 1.968 20 3v1c-2.206.25-4.415.475-6.625.688l-3.727.386c-4.029-.082-6.224-1.025-9.648-3.074z"/><path fill="#7DB771" d="m209 401 3 1.75c3.924 2.244 7.943 4.26 12 6.25q2 .999 4 2c-8.126.469-8.126.469-11.562-1.375C215 408 215 408 215 406l-5-1z"/><path fill="#77B66B" d="M416 295c.93 2.551 1.086 3.74.223 6.36l-1.16 2.39-1.153 2.422L413 308l-3-1v2h-2c1.326-3.623 2.943-6.635 5.125-9.812l1.633-2.395z"/><path fill="#66AC56" d="m122 291 7 1 .25 1.875c.988 2.8 2.154 2.866 4.75 4.125 1.25 2.125 1.25 2.125 2 4-3.583-1.654-6.752-3.767-10-6l-2.375-1.625L122 293z"/><path fill="#68A459" d="M311 491v2c-5.075 1.263-9.728 2.27-15 2 4.603-4.197 8.88-6.118 15-4"/><path fill="#83B476" d="m48 395 .75 1.75c1.19 2.384 1.19 2.384 3.375 4.375C54 403 54 403 54 405h3l-2 4q-2.258-2.681-4.5-5.375l-2.531-3.023C46 398 46 398 46 396z"/><path fill="#76AF69" d="M480 151c2.23 2.75 3.636 5.204 4.75 8.563l.797 2.316C486 164 486 164 485 167l-2 1c-2.254-5.56-2.6-11.079-3-17"/><path fill="#76AB6B" d="M472 134c4.034 4.322 6.371 9.354 8 15l-1 2-3-1v-7h-3z"/><path fill="#81B576" d="M142 476c6.055-.195 6.055-.195 8 0 2 2 2 2 2 3l5 1v2l3 1c-6.69-.446-12.028-3.073-18-6z"/><path fill="#56A648" d="m486 318 2 1c-.115 1.73-.243 3.459-.375 5.188l-.21 2.917c-.417 2.91-1.214 5.224-2.415 7.895h-1c-.125-6.75-.125-6.75 1-9l-.562-2.437C484 321 484 321 486 318"/><path fill="#64A756" d="m372 292 3 1c-8.262 7.667-8.262 7.667-13 9v-3h4v-4l6-1z"/><path fill="#80BA71" d="m89 56 2 1c-6.93 8.815-6.93 8.815-13 10 3.381-4.136 6.666-7.813 11-11"/><path fill="#7BBA6E" d="m162 16-3 1-1 3c-2.75.917-4.36 1.109-7.187 1.063L147 21c3.45-3.15 10.461-7.27 15-5"/><path fill="#5DA849" d="M425 217h2v7h2v10h-2a6230 6230 0 0 1-1-7.375c-.095-.699-.19-1.397-.29-2.117-.71-5.281-.71-5.281-.71-7.508"/><path fill="#88B77C" d="M355 153v2l2.375.375C360 156 360 156 362 158l-22-3v-1q2.343-.255 4.688-.5l2.636-.281c2.573-.21 5.096-.256 7.676-.219"/><path fill="#65A953" d="M267 86c1.416-.054 2.833-.093 4.25-.125l2.39-.07c2.567.212 4.152.908 6.36 2.195v3l-13-3z"/><path fill="#5FA54D" d="M72 72c1 4 1 4 0 7h-2l-2 4-3-4z"/><path fill="#31961E" d="m394 48 4 1v2l6 2v5l-2 1-1-5-8-1z"/><path fill="#499E3C" d="M388 261h2c1.125 5.625 1.125 5.625 0 9-2.062.688-2.062.688-4 1q.212-2.22.438-4.437c.08-.824.162-1.648.246-2.497C387 262 387 262 388 261"/><path fill="#77B66D" d="M266 496c12.67-.185 12.67-.185 18 1v1a63 63 0 0 1-10.687 1.25l-2.262.078c-2.566-.41-3.422-1.363-5.051-3.328"/><path fill="#6DB15E" d="M416 63c4.714 1.571 7.292 4.938 10 9h-4v-2l-1.875-.437C418 69 418 69 416 68z"/><path fill="#85BD75" d="M122 34v2h-2v3a519 519 0 0 1-4.875 2.063l-2.742 1.16C110 43 110 43 108 42q2.437-1.72 4.875-3.437l2.742-1.934C119.463 34 119.463 34 122 34"/><path fill="#87BB79" d="M25 362c2 0 2 0 3.563 1.25 1.592 1.939 1.876 3.346 2.437 5.75l2 1v7c-4.138-4.433-5.955-9.399-8-15"/><path fill="#80B773" d="m95 180 4 1-2 3h-2l-.75 1.75c-1.417 2.55-3.126 4.268-5.25 6.25v-4h2l1-6h4z"/><path fill="#7FB470" d="M493 291c2.795 4.192 2.45 7.563 1.547 12.457-.483 2.19-.995 4.369-1.547 6.543h-1l-1-7h2z"/><path fill="#6DAA5A" d="M497 275h1q-.214 3.094-.437 6.188l-.247 3.48A66 66 0 0 1 496 293h-1c-.369-12.67-.369-12.67 2-18"/><path fill="#23A314" d="m387 257 2 1c-.888 3.699-1.946 7.346-3 11h-2c-.081-1.437-.14-2.874-.187-4.312l-.106-2.426c.355-2.74 1.187-3.554 3.293-5.262"/><path fill="#309820" d="m5 208 3 1c-1.227 4.154-2.328 6.437-5 10v-10z"/><path fill="#77B669" d="m54 92 1 2c-.996 2.164-.996 2.164-2.437 4.625l-1.434 2.477L50 103h-4c1.396-4.443 3.604-6.865 7-10z"/><path fill="#7EB76D" d="m367 157 1 2h5v2h2l1 3c-4.72-1.543-9.417-3.078-14-5v-1z"/><path fill="#84BA73" d="m64 80 1 4-3 2c-1.192 2.05-1.192 2.05-2 4h-3v2l-2-1z"/><path fill="#8BBD80" d="M397 47q2.194 1.397 4.375 2.813l2.46 1.582C406 53 406 53 408 56h-3l-1 2v-5l-7-1z"/><path fill="#75AD67" d="m433 415 4 1-8 9-1-4h2l.375-1.875C431 417 431 417 433 415"/><path fill="#72B363" d="m107 325 9 6-2 2-6-2z"/><path fill="#31951F" d="M492 295h1v8h-2l1 6-3-2c.508-4.318 1.197-8.033 3-12"/><path fill="#529D42" d="m8 184 4 1-3 7H7l-1 6H5c-.125-5.75-.125-5.75 1-8h2z"/><path fill="#74AB68" d="M466 123c3.096 3.509 4.742 6.492 6 11l-2-1v-2l-4-1c-1.125-4.75-1.125-4.75 0-7"/><path fill="#7AB371" d="M324 11c4.714.48 8.666.968 13 3v1c-4.824.193-8.496-.243-13-2z"/><path fill="#7AB56E" d="M422 282c1.194 4.238.805 7.121-.937 11.188C420 295 420 295 418 297c-1.113-2.8-1.035-3.901-.004-6.797l1.442-2.953 1.433-2.984z"/><path fill="#7FB771" d="M355 193c5.155.483 8.816 3.186 13 6l-2 1-3-1v-2l-4 1-.875-1.937c-.953-2.215-.953-2.215-3.125-3.063"/><path fill="#94C686" d="M20 146c1.056 3.66.912 6.268 0 10l-2 1c-1.134 2.017-1.134 2.017-2 4-1-2-1-2-.004-5.04l1.441-3.585 1.434-3.602z"/><path fill="#6CB260" d="M408 56c5.75 3.625 5.75 3.625 8 7l-5 1v-2h-2z"/><path fill="#8EBD7D" d="m108 456 7 1 .25 1.875c.563 2.31.563 2.31 2.813 3.375L120 463c-3.611 0-4.747-.925-7.687-2.937l-2.45-1.653L108 457z"/><path fill="#65A755" d="m387 269 2 1c-1.31 4.234-2.944 8.074-5 12h-1c-.187-2.812-.187-2.812 0-6 1.438-1.625 1.438-1.625 3-3 .714-2.103.714-2.103 1-4"/><path fill="#62A753" d="m373 204 7 6-1 2h-4c-1.765-3.088-2-4.233-2-8"/><path fill="#74B267" d="M439 86c7.667 5.966 7.667 5.966 9 11l-5-1-2-6h-2z"/><path fill="#3A912C" d="m484 166 2 1c.414 2.066.414 2.066.625 4.563l.227 2.503L487 176l-3-1c-1.125-6.75-1.125-6.75 0-9"/><path fill="#5EA851" d="M453 103c4.593 3.521 5.12 7.577 6 13l-3-1c-1.361-3.933-2.256-7.909-3-12"/><path fill="#76BB69" d="m286 95 7 2c.8 3.287 1.097 4.71 0 8l-1.812-2.75c-1.67-2.479-3.367-4.883-5.188-7.25"/><path fill="#81B575" d="M124 466c6.476.61 6.476.61 8.938 2.438C134 470 134 470 134 472c-4.43-1.208-6.981-2.517-10-6"/><path fill="#81BE79" d="m371 339-2 3c-2.82.512-2.82.512-6.125.688l-3.32.199L357 343c2.626-1.751 4.618-2.693 7.563-3.687l2.378-.825C369 338 369 338 371 339"/><path fill="#6EB261" d="M390 327a56.5 56.5 0 0 1-4 7h-3c.386-2.798.801-3.82 2.938-5.75C388 327 388 327 390 327"/><path fill="#7AB868" d="m109 270 4 1v4h2v6c-2.972-2.548-4.415-5.453-6-9z"/><path fill="#95C58D" d="M427 262h1c.354 6.518.039 11.175-3 17-1.592-3.184-.287-6.28.438-9.625l.447-2.14c.365-1.747.74-3.491 1.115-5.235"/><path fill="#90C37D" d="M490 181c2.193 4.219 4.369 8.602 3.625 13.438L493 196c-3.167-5.147-3.35-9.158-3-15"/><path fill="#5DA847" d="M404 185c3.958.565 6.666 1.809 10 4l-2 2h-2v-2l-1.875-.312C406 188 406 188 404 185"/><path fill="#359427" d="M466 131h4c3 6.5 3 6.5 3 11h-2v-7h-3z"/><path fill="#369723" d="M57 90h2c-1.208 4.43-2.517 6.981-6 10l-2-1 1.438-2.375C53.339 95.111 54.212 93.576 55 92h2z"/><path fill="#31961F" d="M99 53c-1.049 2.622-1.65 3.794-4.125 5.25L93 59l-3-2c4.5-4 4.5-4 9-4"/><path fill="#75B169" d="m384 461-7 5c-2-1-2-1-3-3 5.5-3.125 5.5-3.125 10-2"/><path fill="#4B9D3A" d="M114 458a85 85 0 0 1 7 2v3l3 1v2c-3.786-.54-5.554-2.117-8-5v-2z"/><path fill="#60A64B" d="M441 404h2c.313 2.25.313 2.25 0 5-2.5 2.313-2.5 2.313-5 4v-4h2z"/><path fill="#7CB36E" d="M448 396h1c.353 2.968.542 5.156-1.113 7.734-1.242 1.47-2.56 2.873-3.887 4.266l-1-4 3-1v-3h2z"/><path fill="#4B9B3B" d="M427 278v5l-3 1c-.733 2.015-.733 2.015-1 4-1.56-3.118-.666-5.67 0-9 2-1 2-1 4-1"/><path fill="#5FAA4D" d="M4 198c2.094 3.402 2.18 6.053 2 10l-3 1c-.143-7.429-.143-7.429 1-11"/><path fill="#A1CF95" d="M127 201c0 3.928-1.518 5.066-4 8l-1 2c-2.062.625-2.062.625-4 1 1.408-3.215 3.103-5.322 5.625-7.75l1.914-1.86z"/><path fill="#54A346" d="M361 197h2v2l2.75.25c3.65.842 4.884 1.929 7.25 4.75-2.312.188-2.312.188-5 0-1.562-1.437-1.562-1.437-3-3-2.103-.714-2.103-.714-4-1z"/><path fill="#94C28D" d="M341 189c4.97.412 9.445.796 14 3v1c-5.42.407-9.07-.96-14-3z"/><path fill="#92C27E" d="M33 121h1v6l-4 1-1 4-1-2c.996-2.164.996-2.164 2.438-4.625l1.433-2.477z"/><path fill="#389623" d="m111 41 3 1-2 1 1 3c-2.375.625-2.375.625-5 1l-2-2c2.313-2.062 2.313-2.062 5-4"/><path fill="#379427" d="M167 15v2c-5.75 3-5.75 3-8 3v-3c3.228-2.152 4.284-2.2 8-2"/><path fill="#239E0F" d="m281 3 1 3h-10V3c3.069-1.534 5.7-.55 9 0"/><path fill="#85BA73" d="M360 471h5c-3.509 3.096-6.492 4.742-11 6l-1-3 7-2z"/><path fill="#66AE56" d="m402 177 1 3 2 1-2 4c-1.5-1.25-1.5-1.25-3-3v-4z"/><path fill="#57A246" d="m83 65-2 4h-4v2l-4 1c1.396-4.187 5.351-7 10-7"/><path fill="#79B16D" d="m371 465 3 1c-2.117 2.43-3.535 3.845-6.625 4.875L365 471l-2-2h5v-2z"/><path fill="#70AF5F" d="M395 448h6c-4.625 4.875-4.625 4.875-8 6 0-3 0-3 2-5z"/><path fill="#77B86C" d="m294 105 4 1c.625 2.813.625 2.813 1 6l-2 3z"/><path fill="#23A211" d="M257 84h5v4h-5z"/><path fill="#8AC17E" d="M142.438 23.25 144 24c-2.278 2.278-3.938 3.052-7 4-2.312-.375-2.312-.375-4-1 6.4-4.062 6.4-4.062 9.438-3.75"/><path fill="#79AE64" d="M392 455c-2.528 2.799-4.204 4.458-8 5l-1-2c3.072-2.73 4.904-3.341 9-3"/><path fill="#67A859" d="M71 421c2.9 2.395 3.502 4.312 4 8l-7-6z"/><path fill="#58A749" d="M62 413c2 0 2 0 4.125 1.688C68 417 68 417 68.25 419.75L68 422c-3.923-2.354-4.839-4.645-6-9"/><path fill="#399823" d="M376 285h2v3h-3l1 4h-4c1.074-2.915 1.778-4.778 4-7"/><path fill="#63AF53" d="M80 196h6l-2 5-4-1z"/><path fill="#399629" d="M390 171c7.75.75 7.75.75 10 3l-1 3v-2l-2.25.25c-3.532-.321-4.516-1.603-6.75-4.25"/><path fill="#3B922A" d="M355 153c4.752.432 6.92 1.328 10 5-3.558-.61-6.683-1.578-10-3z"/><path fill="#7AB26D" d="M101 448c5.875 4.625 5.875 4.625 7 8-2.915-1.074-4.778-1.778-7-4z"/><path fill="#5BA44A" d="M426 72c2.784 1.706 3.854 2.476 4.75 5.688L431 80c-3-1-3-1-5-4z"/><path fill="#97C88C" d="M377 34c3.937 1.312 6.227 2.92 9 6-2.25.25-2.25.25-5 0-2.312-1.875-2.312-1.875-4-4z"/><path fill="#85B978" d="M358 24c3.912 1.156 6.875 2.355 10 5-3 1-3 1-4.824.223L358 26z"/><path fill="#23A210" d="M330 481v3l-6 1-1-3z"/><path fill="#7BB371" d="M134 472h7l1 4c-5.75-1.75-5.75-1.75-8-4"/><path fill="#6DA862" d="M478 344h3c-1.75 5.75-1.75 5.75-4 8-.93-2.606-1.15-3.642-.062-6.25z"/><path fill="#369B25" d="m102 324 5 1 1 4-7-1z"/><path fill="#85C078" d="M117 212c0 2.84-.403 5.237-1 8h-2v2h-2c1.335-3.594 2.96-6.755 5-10"/><path fill="#549F47" d="M74 212h3c-1.75 5.75-1.75 5.75-4 8-.125-5.75-.125-5.75 1-8"/><path fill="#41972F" d="m128 201 2 1c-2.75 5.875-2.75 5.875-5 7l-2-2z"/><path fill="#4F9D3A" d="M145 21h6l-2 1v2l-6 2z"/><path fill="#96BF8B" d="M33 377c1.875.563 1.875.563 4 2 1.25 3.625 1.25 3.625 2 7-3.08-2.773-4.688-5.063-6-9"/><path fill="#7BB06B" d="m464 374 2 1c-1.074 2.915-1.778 4.778-4 7-.125-2.875-.125-2.875 0-6z"/><path fill="#8CBD80" d="M477 354c-1.75 5.75-1.75 5.75-4 8v-7c2-1 2-1 4-1"/><path fill="#3A9226" d="M400 321v3a101 101 0 0 1-6 3l-2-1c5.75-5 5.75-5 8-5"/><path fill="#94C586" d="m99 318 8 6c-2 1-2 1-4.562.375-2.438-1.375-2.438-1.375-3.25-4z"/><path fill="#3F9229" d="M30 128h1v6l-3 1v3l-2-1z"/><path fill="#3D972A" d="m383 39 4 1v2h2v3h-3c-3-3.333-3-3.333-3-6"/><path fill="#35931F" d="M212 492v3h-8l1-2c2.386-.612 4.535-1 7-1"/><path fill="#5C9F4A" d="m182 488 5 1 1 3h-4v-2h-2z"/><path fill="#34951D" d="M368 467v2c-3 2-3 2-5.687 1.625L360 470c1-2 1-2 2.875-2.625C365 467 365 467 368 467"/><path fill="#69AD5C" d="M403 443h3v3l-5 2-1-3h3z"/><path fill="#7AB96F" d="m122 291 5 1 1 5a125 125 0 0 1-6-4z"/><path fill="#3D942A" d="M405 56h3l1 4-4 1-1-3z"/></svg>