<?xml version="1.0" encoding="UTF-8"?>
<svg version="1.1" xmlns="http://www.w3.org/2000/svg" width="2560" height="656">
<path d="M0 0 C1.44028564 0.24943359 1.44028564 0.24943359 2.90966797 0.50390625 C32.69351626 5.75216146 61.32208227 15.79802854 88 30 C89.05018311 30.55010742 89.05018311 30.55010742 90.12158203 31.11132812 C111.58250421 42.39800666 130.92969884 56.55364926 148.765625 72.953125 C151.03694957 75.03384891 153.35881431 77.04638957 155.6875 79.0625 C159.10453609 82.09787761 162.13074407 85.27405504 165.07421875 88.765625 C167.36502042 91.42351254 169.77805547 93.94922897 172.1875 96.5 C222.46319276 150.68921322 246.7221338 228.00063505 244 301 C242.0930069 342.31156227 231.97065632 381.77990478 214 419 C213.62149902 419.78439453 213.24299805 420.56878906 212.85302734 421.37695312 C201.51965132 444.53291565 186.46809639 466.4777679 168.6875 485.1640625 C166.45376797 487.52116927 164.30167631 489.91160706 162.1875 492.375 C156.6095529 498.80176514 150.47237705 504.48897774 144 510 C143.16082031 510.72832031 142.32164062 511.45664062 141.45703125 512.20703125 C95.63405442 551.33037285 38.0598322 575.75619739 -22 581 C-23.25941406 581.11085938 -24.51882813 581.22171875 -25.81640625 581.3359375 C-92.31225388 586.30131865 -161.56382459 569.12371153 -216 530 C-216.64630371 529.53625977 -217.29260742 529.07251953 -217.95849609 528.59472656 C-227.7206592 521.53654826 -237.01218428 514.01783331 -246 506 C-246.57943359 505.48373047 -247.15886719 504.96746094 -247.75585938 504.43554688 C-253.5631281 499.23414192 -259.27676365 494.02536783 -264.28125 488.02734375 C-266.33543452 485.60433973 -268.51299612 483.31557138 -270.6875 481 C-299.21151095 449.58911785 -319.68595984 409.69496584 -331 369 C-331.26651367 368.04367676 -331.53302734 367.08735352 -331.80761719 366.10205078 C-342.68749078 326.14574782 -345.88045021 280.87720163 -338 240 C-337.79600586 238.92814453 -337.59201172 237.85628906 -337.38183594 236.75195312 C-327.58797442 186.77047064 -306.60638869 135.78499009 -271.16015625 98.30078125 C-269.31448576 96.33495862 -267.5523514 94.33126604 -265.79296875 92.2890625 C-255.88054369 80.92114212 -245.00239275 70.14468019 -233 61 C-231.7397896 60.00138131 -230.48076919 59.00125989 -229.22265625 58 C-190.60404582 27.52241314 -145.24102021 8.66678248 -97 0 C-96.13761719 -0.16516113 -95.27523437 -0.33032227 -94.38671875 -0.50048828 C-64.4103959 -6.0663685 -29.93795845 -5.49538677 0 0 Z " fill="#2CA01C" transform="translate(341,3)"/>
<path d="M0 0 C15.18 0 30.36 0 46 0 C46.33 41.25 46.66 82.5 47 125 C48.65 123.02 50.3 121.04 52 119 C67.876125 104.26175427 88.02769485 97.51627637 109.44140625 97.7890625 C133.77438866 99.23141272 155.1228891 108.01351004 172 126 C190.34747158 146.873152 197.20281296 174.31979947 195.875 201.6875 C194.06573332 227.58454597 183.79093796 252.26047431 164.75 270.1875 C146.18039089 285.87064137 122.83298602 292.34165701 98.7734375 290.7890625 C80.81574712 289.16498756 63.9344799 281.60481549 51 269 C48.03 265.04 48.03 265.04 45 261 C44.67 268.92 44.34 276.84 44 285 C29.48 285 14.96 285 0 285 C0 190.95 0 96.9 0 0 Z M57.98828125 155.1953125 C48.06914248 167.20155856 43.38587021 183.03781968 44.1796875 198.5 C45.86188723 214.97869124 52.52345057 230.66293291 65.60546875 241.37109375 C78.2434412 249.96821367 91.60634787 254.11800731 106.92578125 251.5 C120.86792026 248.02925535 131.52635876 240.82382488 139.375 228.6875 C148.20319007 213.47447752 150.6730874 195.04969567 147.31640625 177.76171875 C143.42921457 163.26136474 135.34976525 150.25519638 122.39453125 142.24609375 C98.84698744 129.9921517 75.37873276 136.21777124 57.98828125 155.1953125 Z " fill="#000000" transform="translate(1575,280)"/>
<path d="M0 0 C11.8687715 0 20.75562741 2.87603192 29.78125 10.71484375 C43.2648841 24.60203732 43.58405423 40.99314348 43.45410156 59.13012695 C43.45297159 61.34876485 43.45360986 63.56740423 43.45587158 65.78604126 C43.4570138 71.7748828 43.43358422 77.76340037 43.40557575 83.75216699 C43.38047987 90.02349701 43.37821365 96.2948354 43.37347412 102.56620789 C43.36247566 113.08121938 43.3375332 123.59613136 43.30175781 134.11108398 C43.26496881 144.93529679 43.23669092 155.75947742 43.21972656 166.58374023 C43.21867567 167.25239883 43.21762477 167.92105743 43.21654204 168.60997842 C43.2113214 171.964876 43.20626668 175.31977381 43.20129442 178.67467177 C43.1595445 206.44986329 43.0892392 234.22492331 43 262 C49.90137937 261.93249734 56.80221443 261.84250018 63.703125 261.73754883 C66.04615794 261.70448703 68.38926694 261.67639806 70.73242188 261.65356445 C74.11881646 261.61967166 77.50452562 261.56734035 80.890625 261.51171875 C81.92237854 261.50532883 82.95413208 261.4989389 84.01715088 261.49235535 C94.38481363 261.28716311 103.99254306 259.08074809 113.1875 254.25 C113.86820557 253.89856934 114.54891113 253.54713867 115.25024414 253.18505859 C131.80258657 244.42216993 143.35907731 230.39222345 148.875 212.5 C149.61749007 210.00718666 150.31593818 207.51011113 151 205 C151.17958252 204.35587158 151.35916504 203.71174316 151.54418945 203.0480957 C155.4437346 185.52625089 149.97818602 166.95179097 141 152 C130.85894061 137.25808191 115.57786559 126.1322288 98 122 C91.23714066 120.75802717 84.42172017 120.666041 77.5625 120.4375 C73.416875 120.293125 69.27125 120.14875 65 120 C65 105.81 65 91.62 65 77 C98.99266045 76.15018349 128.03033761 82.31545877 155 104 C156.09441406 104.86238281 156.09441406 104.86238281 157.2109375 105.7421875 C178.2044602 123.08466277 191.73469975 150.57999887 194.76855469 177.37011719 C197.7628255 211.39362478 188.36039939 240.8324489 166.4375 267.06640625 C146.74928714 289.80138905 119.50016017 301.72220443 90 305 C60.3 305 30.6 305 0 305 C0 204.35 0 103.7 0 0 Z " fill="#FCFDFB" transform="translate(308,101)"/>
<path d="M0 0 C3.64958291 3.32986738 6.4641363 6.63196357 9.6875 10.5 C10.0175 2.58 10.3475 -5.34 10.6875 -13.5 C25.2075 -13.5 39.7275 -13.5 54.6875 -13.5 C54.6875 76.59 54.6875 166.68 54.6875 259.5 C39.5075 259.5 24.3275 259.5 8.6875 259.5 C8.3575 222.21 8.0275 184.92 7.6875 146.5 C5.3775 149.14 3.0675 151.78 0.6875 154.5 C-12.1893835 167.61100865 -30.24131889 173.51907638 -48.28100586 173.91748047 C-73.11972604 174.05583894 -94.54898221 168.0452272 -113.09765625 150.8046875 C-132.43347304 130.68452541 -141.02322064 104.83173952 -141.625 77.1875 C-140.69289856 48.65709079 -131.2299237 22.16180574 -110.0625 2.3125 C-79.59512238 -23.54503092 -30.87485142 -27.14072485 0 0 Z M-80.08984375 35.796875 C-91.52980652 49.70979984 -95.49360215 67.97846902 -93.9140625 85.62890625 C-91.38703246 101.89050867 -84.30348403 117.29132482 -70.828125 127.35546875 C-58.4938019 135.11230238 -45.06465459 137.25593493 -30.8125 134.375 C-14.91962783 130.35459409 -5.05997971 120.71092883 3.19921875 106.98828125 C10.60641113 93.17486843 12.3409346 76.16829253 8.24926758 61.00537109 C3.40735904 45.45142634 -5.5240994 32.67275676 -19.9296875 24.6796875 C-40.7106579 14.3914038 -64.30225385 19.08354687 -80.08984375 35.796875 Z " fill="#000000" transform="translate(807.3125,396.5)"/>
<path d="M0 0 C0 100.65 0 201.3 0 305 C-10.86039868 305 -17.26085897 303.17318047 -26 297 C-27.010625 296.29875 -28.02125 295.5975 -29.0625 294.875 C-36.54413103 288.35412486 -41.16633321 278.35642576 -42.27395284 268.58259082 C-42.3736065 266.09746415 -42.38609261 263.62867293 -42.36076355 261.14169312 C-42.36332682 260.20209893 -42.3658901 259.26250474 -42.36853105 258.294438 C-42.37343685 255.1744652 -42.35702914 252.05498613 -42.34057617 248.93505859 C-42.33972921 246.68730684 -42.3402064 244.43955425 -42.34190369 242.19180298 C-42.34276235 236.10987122 -42.32515731 230.02811794 -42.30418181 223.94622755 C-42.28539359 217.5827828 -42.28366288 211.21933369 -42.28010559 204.85586548 C-42.27184884 194.18170736 -42.25312627 183.5076195 -42.22631836 172.83349609 C-42.1987454 161.84326502 -42.17752771 150.85305169 -42.16479492 139.86279297 C-42.16361267 138.84518133 -42.16361267 138.84518133 -42.16240653 137.80701189 C-42.15849117 134.4033501 -42.15470011 130.99968818 -42.15097082 127.59602618 C-42.11991377 99.39730544 -42.06688777 71.19865679 -42 43 C-48.6530737 43.09290031 -55.30580471 43.20028162 -61.95849609 43.31738281 C-64.21820882 43.35549144 -66.47797846 43.39037475 -68.73779297 43.421875 C-71.99988042 43.46792123 -75.26158204 43.52584814 -78.5234375 43.5859375 C-79.52176605 43.59748871 -80.5200946 43.60903992 -81.54867554 43.62094116 C-87.90248009 43.75241665 -93.82025407 44.52647034 -100 46 C-100.84750824 46.20136566 -101.69501648 46.40273132 -102.56820679 46.61019897 C-119.05331191 50.73578251 -133.10271945 62.88228779 -142 77 C-147.45045269 87.08989711 -151.3807874 97.49765694 -152 109 C-152.05285156 109.90363281 -152.10570312 110.80726563 -152.16015625 111.73828125 C-152.76396688 131.55902152 -144.74775145 150.35034756 -131.35546875 164.8046875 C-123.76686329 171.87731812 -114.73941691 177.43711584 -105 181 C-104.33742188 181.25531494 -103.67484375 181.51062988 -102.9921875 181.77368164 C-95.21929074 184.47592726 -87.53775079 184.54974522 -79.375 184.6875 C-74.63125 184.790625 -69.8875 184.89375 -65 185 C-65 199.19 -65 213.38 -65 228 C-99.47682905 228.35543123 -129.01924613 223.18732626 -156 200 C-156.99193359 199.22462891 -156.99193359 199.22462891 -158.00390625 198.43359375 C-178.89703752 181.59246369 -191.44283666 153.07739508 -195 127 C-197.36866541 94.92951695 -189.1644122 65.34037184 -168.39794922 40.61767578 C-124.35706671 -10.34545512 -65.14527185 0 0 0 Z " fill="#FDFEFD" transform="translate(276,178)"/>
<path d="M0 0 C15.18 0 30.36 0 46 0 C46.33 58.74 46.66 117.48 47 178 C51.17800686 173.82199314 55.08985298 169.80883876 58.91796875 165.3671875 C61.56045779 162.36278158 64.27821314 159.43247611 67 156.5 C70.78651253 152.41717692 74.51767734 148.30229491 78.16015625 144.08984375 C80.56670156 141.35629441 83.03303196 138.67885994 85.5 136 C89.09890881 132.09155964 92.64210554 128.14441313 96.12109375 124.12890625 C99.88092596 119.86880531 103.73392198 115.67716901 107.64964294 111.55969238 C109.05091778 110.02653064 109.05091778 110.02653064 110.1063385 108.19714355 C112.27791191 104.92097907 113.89988158 103.23983215 117.81587219 102.38612366 C121.39420249 102.18895548 124.90982168 102.21365236 128.4921875 102.31640625 C129.79326447 102.32631088 131.09434143 102.33621552 132.43484497 102.34642029 C135.87825266 102.3730283 139.31956211 102.44167784 142.762146 102.51934814 C146.2812461 102.59122046 149.80068852 102.62298228 153.3203125 102.65820312 C160.21439853 102.73306349 167.10709829 102.85238309 174 103 C172.65940965 105.78139134 171.43340653 107.80331915 169.20703125 109.953125 C168.38428711 110.75943359 168.38428711 110.75943359 167.54492188 111.58203125 C166.97322266 112.13246094 166.40152344 112.68289063 165.8125 113.25 C162.25392978 116.69645657 158.80812225 120.1656635 155.57421875 123.921875 C151.29591796 128.88039527 146.63341739 133.41703122 141.9609375 138 C138.04013229 141.87539047 134.34324905 145.85496085 130.74609375 150.03125 C127.81371736 153.33755358 124.65417736 156.4072021 121.5 159.5 C117.05581387 163.89660268 112.72779914 168.30005102 108.6953125 173.08203125 C105.00881251 177.2527029 100.97022198 181.10167339 97 185 C99.87889823 189.51231566 103.04110132 193.53779925 106.5625 197.5625 C107.63316459 198.79917442 108.70346901 200.03616075 109.7734375 201.2734375 C110.31194336 201.89444336 110.85044922 202.51544922 111.40527344 203.15527344 C113.85073187 205.98409829 116.27205347 208.83303727 118.6875 211.6875 C119.1427002 212.2252002 119.59790039 212.76290039 120.06689453 213.31689453 C122.89170284 216.6628927 125.67532563 220.03942938 128.4375 223.4375 C132.39508188 228.30129025 136.46542446 233.05881231 140.55834961 237.80834961 C144.33334391 242.1980035 148.00728461 246.66114771 151.65625 251.15625 C154.3930276 254.47687349 157.19130457 257.74022175 160 261 C173.5411019 276.73788396 173.5411019 276.73788396 179 285 C171.16786041 285.18584613 163.33624266 285.32774759 155.50244808 285.41449738 C151.86419925 285.45614774 148.22746498 285.51257608 144.59008789 285.60351562 C141.07565651 285.69082547 137.56267575 285.73835044 134.04724312 285.75901794 C132.06217144 285.78086667 130.07767911 285.84326199 128.0934906 285.90637207 C119.24287173 285.910753 119.24287173 285.910753 115.67868042 283.29898071 C113.88987091 281.28263121 112.43884108 279.27502552 111 277 C110.03500237 275.73011967 109.06233189 274.46598859 108.078125 273.2109375 C107.13263623 271.93434628 106.18999457 270.65564217 105.25 269.375 C101.43863071 264.23939202 97.59045206 259.14273478 93.625 254.125 C93.18389893 253.56675537 92.74279785 253.00851074 92.28833008 252.43334961 C91.83611084 251.86108643 91.3838916 251.28882324 90.91796875 250.69921875 C81.84204971 239.21393026 72.91160298 227.61297852 64 216 C62.27145073 213.74952506 60.54206817 211.49969192 58.8125 209.25 C58.05582031 208.26515625 57.29914062 207.2803125 56.51953125 206.265625 C53.35808849 202.16800307 50.17741557 198.08524859 47 194 C46.67 224.03 46.34 254.06 46 285 C30.82 285 15.64 285 0 285 C0 190.95 0 96.9 0 0 Z " fill="#000000" transform="translate(2229,280)"/>
<path d="M0 0 C15.18 0 30.36 0 46 0 C46.33 58.74 46.66 117.48 47 178 C49.97 174.7 52.94 171.4 56 168 C69.5 153 69.5 153 71.7578125 150.4921875 C73.23292618 148.85260121 74.70691652 147.21200345 76.1796875 145.5703125 C80.30097768 140.9796939 84.44873788 136.41552893 88.625 131.875 C92.17631189 128.01308482 95.67253251 124.11203663 99.10546875 120.14453125 C102.10271432 116.75177286 105.18424745 113.43579798 108.26953125 110.12304688 C110.39613589 107.82425975 112.25772382 105.61341427 114 103 C116.4803772 102.63923645 116.4803772 102.63923645 119.64306641 102.65942383 C120.82413971 102.65965042 122.00521301 102.65987701 123.22207642 102.66011047 C125.14242203 102.68333626 125.14242203 102.68333626 127.1015625 102.70703125 C128.40829926 102.71127609 129.71503601 102.71552094 131.06137085 102.71989441 C134.53691786 102.73135368 138.01208927 102.76082951 141.48748779 102.79400635 C145.0332735 102.82468431 148.57911985 102.83839484 152.125 102.85351562 C159.08348771 102.88569865 166.04172583 102.93690771 173 103 C171.17909416 106.89673849 168.67775534 109.76646671 165.75 112.875 C165.22639893 113.43727295 164.70279785 113.9995459 164.16333008 114.57885742 C159.55260076 119.49348651 154.80173211 124.26526944 149.98535156 128.97802734 C147.05585439 131.86188567 144.26572987 134.80281221 141.58203125 137.91796875 C137.29942429 142.8759945 132.63518627 147.41529623 127.9609375 152 C124.68761974 155.23540288 121.51978466 158.49660333 118.51953125 161.98828125 C114.15872686 167.0546373 109.3438717 171.64131143 104.52148438 176.26367188 C103.83763672 176.93333984 103.15378906 177.60300781 102.44921875 178.29296875 C101.83393311 178.8861792 101.21864746 179.47938965 100.5847168 180.09057617 C98.77881152 182.2665098 97.91955993 184.34091773 97 187 C97.83402344 187.95519531 98.66804688 188.91039062 99.52734375 189.89453125 C105.35198389 196.58092277 111.11013526 203.29930464 116.69140625 210.19140625 C119.41344091 213.5029848 122.20139731 216.75313059 125 220 C129.29977994 224.98936093 133.50485562 230.04221344 137.65625 235.15625 C140.39302049 238.47686486 143.1910295 241.74046782 146 245 C149.55453161 249.12468204 153.06792143 253.27207712 156.5 257.5 C160.49932147 262.42617151 164.60917117 267.24927593 168.75195312 272.0546875 C169.70541712 273.16085973 170.65729107 274.26840486 171.60742188 275.37744141 C172.55651701 276.483277 173.5111928 277.58434157 174.47070312 278.68115234 C178 282.777569 178 282.777569 178 285 C170.23773812 285.32619918 162.47711448 285.57400652 154.70969677 285.72537041 C151.10126397 285.79807739 147.49755686 285.89639654 143.8918457 286.05615234 C118.65917054 287.14471518 118.65917054 287.14471518 112.84448242 282.13989258 C110.31994928 279.28413325 108.52546261 276.17586813 106.881073 272.74987793 C105.63861713 270.28226616 103.97811054 268.26854344 102.21484375 266.15234375 C101.1219359 264.74775358 100.02948108 263.34281079 98.9375 261.9375 C98.34807617 261.17928955 97.75865234 260.4210791 97.15136719 259.63989258 C91.29138595 252.09664049 85.47080759 244.52361923 79.65625 236.9453125 C74.19829496 229.83933857 68.70743094 222.75972334 63.20141602 215.69091797 C58.7059252 209.91656417 54.2404108 204.12001477 49.79296875 198.30859375 C48.19991086 196.15833336 48.19991086 196.15833336 47 195 C46.67 224.7 46.34 254.4 46 285 C30.82 285 15.64 285 0 285 C0 190.95 0 96.9 0 0 Z " fill="#000000" transform="translate(1377,280)"/>
<path d="M0 0 C29.77798861 -0.70689587 56.51632928 8.72050755 78.26171875 29.34375 C95.42769281 47.05467561 103.28542727 70.97837365 103.88671875 95.34375 C103.40186254 122.8664699 94.18145157 146.77834154 74.57421875 166.15625 C73.49914063 167.24679687 73.49914063 167.24679687 72.40234375 168.359375 C61.78942122 178.49351907 48.4728281 184.88632393 34.57421875 189.15625 C33.48882813 189.4965625 32.4034375 189.836875 31.28515625 190.1875 C12.53697462 194.92942884 -10.05230884 194.21573484 -28.42578125 188.15625 C-29.3995874 187.84276611 -29.3995874 187.84276611 -30.39306641 187.52294922 C-45.80722222 182.39258322 -58.04732343 173.5176742 -69.42578125 162.15625 C-70.080625 161.51300781 -70.73546875 160.86976563 -71.41015625 160.20703125 C-88.35601391 142.28950744 -95.33132699 116.19279142 -94.70703125 92.02734375 C-92.86739967 66.70685912 -84.64046959 45.13506468 -66.42578125 27.15625 C-65.68457031 26.41632813 -64.94335938 25.67640625 -64.1796875 24.9140625 C-47.07445612 8.78178923 -23.16131164 1.05638822 0 0 Z M-32.42578125 53.15625 C-43.4569479 66.60048435 -49.07614389 83.73313582 -47.42578125 101.15625 C-45.54587579 118.46243847 -38.93742477 133.6833412 -25.2421875 144.953125 C-13.71210759 153.25642675 -0.04409636 155.64787046 13.85546875 153.6953125 C27.59238882 150.91522153 38.49075658 144.20948833 46.390625 132.453125 C56.09972919 115.41960888 58.965957 97.2419232 54.7421875 78.06640625 C50.7255513 63.43992733 42.364398 51.40085864 29.31640625 43.59375 C9.51581048 33.21395051 -17.00757244 36.67803933 -32.42578125 53.15625 Z " fill="#000000" transform="translate(2099.42578125,377.84375)"/>
<path d="M0 0 C15.17112552 14.21168675 25.80583364 36.29550139 26.88769531 57.14428711 C27.29583567 89.19042429 22.34171489 114.88967598 -0.8359375 138.66796875 C-22.9378298 159.70974122 -49.41863917 166.11286108 -79.08984375 165.421875 C-87.84594074 165.05860835 -95.95901576 163.79376501 -104.2734375 161.0390625 C-104.92795898 160.82475586 -105.58248047 160.61044922 -106.25683594 160.38964844 C-120.18109997 155.66571294 -131.76060594 148.24375935 -142.2734375 138.0390625 C-142.95921875 137.42675781 -143.645 136.81445312 -144.3515625 136.18359375 C-159.92537685 121.80540688 -169.3047995 98.53740999 -170.39892578 77.64257812 C-171.45414394 48.86004459 -164.96662388 23.85602388 -145.2734375 2.0390625 C-142.7402768 -0.48897034 -140.09343648 -2.7594513 -137.2734375 -4.9609375 C-136.55929687 -5.52296875 -135.84515625 -6.085 -135.109375 -6.6640625 C-94.27089588 -36.98560887 -37.81783124 -32.61950392 0 0 Z M-110.2734375 28.0390625 C-121.38869099 41.87906685 -124.6396145 59.68079724 -123.2734375 77.0390625 C-121.26895623 91.4289565 -115.26862968 106.50820393 -103.921875 116.0078125 C-92.15642673 124.6042391 -79.85181628 128.22309326 -65.2734375 127.0390625 C-51.35913994 124.77887203 -39.8719452 118.68146742 -31.23046875 107.36328125 C-20.86504646 91.73779392 -17.61046915 74.29910751 -20.48828125 55.8125 C-22.6787004 45.28541097 -26.38918338 36.32620034 -33.2734375 28.0390625 C-33.84578125 27.33136719 -34.418125 26.62367188 -35.0078125 25.89453125 C-43.19035871 16.75036102 -55.42015318 11.61575412 -67.51171875 10.828125 C-84.51056496 10.34509768 -98.62845617 15.49228127 -110.2734375 28.0390625 Z " fill="#000000" transform="translate(1959.2734375,404.9609375)"/>
<path d="M0 0 C15.51 0 31.02 0 47 0 C47.01458252 3.41561279 47.02916504 6.83122559 47.04418945 10.3503418 C47.09465868 21.66993511 47.16112799 32.98939739 47.23571491 44.30885601 C47.28052434 51.16788373 47.31997241 58.02686125 47.34643555 64.88598633 C47.37201737 71.51265951 47.41302085 78.13912489 47.46318626 84.76566505 C47.47979572 87.28640748 47.49134668 89.80718878 47.49761391 92.32797813 C47.1869007 116.91913907 47.1869007 116.91913907 57 139 C63.59946767 145.44418608 70.55067608 147.62418456 79.625 148.25 C90.11481237 148.04981274 99.8529559 144.37521793 107.7421875 137.4765625 C122.43680818 121.86828665 121.45641386 99.60132929 121.51171875 79.6875 C121.52859889 77.37865261 121.54675351 75.06981423 121.56611633 72.76098633 C121.61326043 66.73765885 121.64329878 60.71436787 121.66955566 54.69091797 C121.70483149 47.43513678 121.76174121 40.17949572 121.81494904 32.92382812 C121.89304463 21.94923755 121.94396656 10.97482511 122 0 C137.18 0 152.36 0 168 0 C168 60.06 168 120.12 168 182 C153.48 182 138.96 182 124 182 C123.505 169.13 123.505 169.13 123 156 C121.02 158.97 119.04 161.94 117 165 C108.043221 177.28752727 93.54776433 183.96431663 79 187 C75.07188603 187.41212565 71.19742556 187.47814891 67.25 187.4375 C66.20158936 187.42920166 65.15317871 187.42090332 64.07299805 187.41235352 C47.47837943 187.05329539 32.1838008 181.78657498 19.98828125 170.1484375 C2.89892717 151.68253427 -0.19703979 127.98613041 -0.11352539 103.87573242 C-0.11367142 102.74241989 -0.11381744 101.60910736 -0.1139679 100.44145203 C-0.11327879 96.74610386 -0.10553399 93.05080796 -0.09765625 89.35546875 C-0.0957885 86.77330045 -0.09436628 84.19113179 -0.09336853 81.60896301 C-0.08995823 75.53908948 -0.0821005 69.46923707 -0.07201904 63.39937145 C-0.06078033 56.48021991 -0.05532804 49.56106742 -0.05032361 42.641909 C-0.03991537 28.42792792 -0.02160127 14.21396838 0 0 Z " fill="#000000" transform="translate(897,383)"/>
<path d="M0 0 C15.18 0 30.36 0 46 0 C46.03738281 7.44046875 46.07476563 14.8809375 46.11328125 22.546875 C46.1435785 27.27736634 46.17473795 32.00782087 46.20898438 36.73828125 C46.26318875 44.23679692 46.31430357 51.73523975 46.34643555 59.23388672 C46.3725589 65.28351181 46.41302508 71.33289053 46.46318626 77.38236237 C46.47979401 79.68343273 46.49134603 81.98454566 46.49761391 84.28566742 C46.3556727 108.5194299 46.3556727 108.5194299 57.3828125 129.5546875 C65.38252532 136.7041893 75.20414911 140.35115686 85.8671875 140.1484375 C95.33455619 139.48953638 104.16163972 135.65353973 111 129 C119.30309261 118.48841217 121.12683642 107.77495207 121.20532227 94.68017578 C121.21522186 93.65517471 121.22512146 92.63017365 121.23532104 91.57411194 C121.26682071 88.19786868 121.29164781 84.82161136 121.31640625 81.4453125 C121.33698573 79.09975832 121.35798247 76.75420776 121.37937927 74.40866089 C121.43449719 68.24380434 121.48395175 62.07891489 121.53222656 55.91400146 C121.59136317 48.51250623 121.65753448 41.11107094 121.72252655 33.70962524 C121.82040668 22.4731202 121.90935134 11.23657619 122 0 C137.18 0 152.36 0 168 0 C168.06798715 14.60468557 168.12313791 29.20927135 168.15543652 43.81408024 C168.1708387 50.59689605 168.19179922 57.37960582 168.22631836 64.16235352 C168.25966347 70.71759574 168.27689268 77.27276955 168.28463173 83.82809258 C168.29014149 86.31931724 168.30089997 88.81053644 168.31719017 91.30171394 C168.48851026 118.60604201 164.85281294 141.71232893 145.015625 162.140625 C128.0061256 178.79343765 105.07918849 185.27659055 81.85473633 185.24658203 C59.95160766 184.95515245 39.00085434 177.02216344 22.859375 161.984375 C6.03054708 144.0241973 -0.20030326 122.92610706 -0.11352539 98.88061523 C-0.11367142 97.80640823 -0.11381744 96.73220123 -0.1139679 95.6254425 C-0.11327569 92.10313847 -0.10551587 88.58088846 -0.09765625 85.05859375 C-0.09578961 82.60522999 -0.09436687 80.15186585 -0.09336853 77.69850159 C-0.08956272 71.26238972 -0.07974906 64.82630065 -0.06866455 58.39019775 C-0.05840871 51.81417143 -0.05386199 45.2381414 -0.04882812 38.66210938 C-0.03812497 25.77472799 -0.02054394 12.88736946 0 0 Z " fill="#000000" transform="translate(1161,32)"/>
<path d="M0 0 C15.2496236 13.30581725 25.1038358 28.62041609 28.38671875 48.87109375 C28.65058825 52.82510201 28.64036622 56.7632877 28.61376953 60.72485352 C28.61406158 61.87708908 28.61435364 63.02932465 28.61465454 64.21647644 C28.61326897 67.99856276 28.59774403 71.78044839 28.58203125 75.5625 C28.57829838 78.19522494 28.5754527 80.82795127 28.57345581 83.4606781 C28.56726168 89.66529 28.55087914 95.86983067 28.53075683 102.07441133 C28.50833313 109.1433993 28.49738819 116.21239083 28.48736596 123.28140557 C28.46651085 137.81134346 28.42986074 152.34120443 28.38671875 166.87109375 C13.20671875 166.87109375 -1.97328125 166.87109375 -17.61328125 166.87109375 C-17.62262695 163.63200195 -17.63197266 160.39291016 -17.64160156 157.05566406 C-17.67545284 146.32277293 -17.73104722 135.59007242 -17.79718399 124.85733414 C-17.83659934 118.35361001 -17.86881715 111.85002009 -17.88427734 105.34619141 C-17.89948277 99.06310278 -17.933998 92.78038324 -17.98159027 86.49745941 C-17.9963639 84.10707569 -18.00431994 81.71663925 -18.0051651 79.32621002 C-18.01709651 62.49261963 -18.07707712 49.00270991 -30.203125 36.19140625 C-37.14333395 29.62678508 -46.75391722 26.48105858 -56.24609375 26.66015625 C-66.86182118 27.60611216 -75.52058326 31.28726111 -82.86328125 39.05859375 C-88.46226884 46.06122726 -91.69862524 54.6297345 -91.77149963 63.57246399 C-91.78618286 64.94586693 -91.78618286 64.94586693 -91.80116272 66.34701538 C-91.80691818 67.33891876 -91.81267365 68.33082214 -91.81860352 69.3527832 C-91.82850311 70.40689896 -91.83840271 71.46101471 -91.84860229 72.54707336 C-91.88015235 76.02615118 -91.90494913 79.50524264 -91.9296875 82.984375 C-91.95026263 85.3986191 -91.97125925 87.81285964 -91.99266052 90.22709656 C-92.04782344 96.57773963 -92.09725825 102.92841491 -92.14550781 109.27911377 C-92.19576501 115.76097475 -92.25142906 122.24278904 -92.30664062 128.72460938 C-92.41415154 141.44006574 -92.51511253 154.15556182 -92.61328125 166.87109375 C-107.79328125 166.87109375 -122.97328125 166.87109375 -138.61328125 166.87109375 C-138.70395045 151.89254221 -138.77747624 136.9141334 -138.82052994 121.9353714 C-138.84106141 114.97878621 -138.86899905 108.02238498 -138.91503906 101.06591797 C-138.95951797 94.34206135 -138.98247496 87.61843448 -138.99279022 80.89442444 C-139.00013351 78.33981841 -139.01447205 75.7852218 -139.03620148 73.23069763 C-139.17299726 56.46961126 -139.00401529 40.63765219 -130.86328125 25.49609375 C-130.35003296 24.50814819 -130.35003296 24.50814819 -129.82641602 23.50024414 C-126.73557832 17.7373183 -123.03374762 12.69505096 -118.61328125 7.87109375 C-117.76830078 6.92363281 -117.76830078 6.92363281 -116.90625 5.95703125 C-87.62443866 -25.1763232 -32.50764517 -26.48231184 0 0 Z " fill="#000000" transform="translate(927.61328125,46.12890625)"/>
<path d="M0 0 C1.1126598 0.90633878 2.2180294 1.8217781 3.3125 2.75 C4.26125 3.471875 5.21 4.19375 6.1875 4.9375 C8.3125 6.75 8.3125 6.75 10.3125 9.75 C10.21670516 12.83459381 9.23686679 13.82935505 7.08984375 16.08203125 C6.15269531 16.90058594 5.21554688 17.71914063 4.25 18.5625 C3.75266357 19.00118408 3.25532715 19.43986816 2.74291992 19.8918457 C1.2729627 21.18572046 -0.20712056 22.46806285 -1.6875 23.75 C-2.42226562 24.39710938 -3.15703125 25.04421875 -3.9140625 25.7109375 C-5.83135189 27.3990688 -7.75847167 29.07530603 -9.6875 30.75 C-11.18797985 32.0619514 -12.68798814 33.37444233 -14.1875 34.6875 C-15.35416667 35.70833333 -16.52083333 36.72916667 -17.6875 37.75 C-21.49152983 35.99183495 -23.71606286 33.72143714 -26.6875 30.75 C-36.35423786 22.00390384 -48.65198329 18.4048225 -61.484375 18.53125 C-70.38788697 19.13929472 -77.98208762 21.65454421 -84.0625 28.375 C-86.26166443 32.94249535 -86.37216003 36.76534103 -85.6875 41.75 C-83.55840378 46.904654 -79.70050149 49.85452052 -74.66186523 52.09594727 C-66.10895231 55.04945771 -57.52560507 57.47344275 -48.75 59.6875 C-28.71367047 64.87646592 -6.53177283 71.43733167 4.9921875 90.203125 C12.40508214 104.5025549 12.29017673 121.13206397 7.640625 136.30859375 C1.47152441 152.29382205 -8.95849623 161.1903142 -24.125 168.5 C-49.72556303 179.45115249 -81.42123857 177.7936762 -107.1484375 168.14453125 C-119.51426535 163.16553675 -130.02783439 155.92180371 -139.6875 146.75 C-139.11178328 143.32320355 -138.06018129 141.79148856 -135.51171875 139.46484375 C-134.85381348 138.85648682 -134.1959082 138.24812988 -133.51806641 137.62133789 C-132.81085449 136.98317139 -132.10364258 136.34500488 -131.375 135.6875 C-130.29871338 134.70027954 -130.29871338 134.70027954 -129.20068359 133.69311523 C-127.73716768 132.35174874 -126.27069322 131.01360304 -124.80126953 129.67871094 C-122.8610541 127.9083596 -120.94015694 126.12017055 -119.02734375 124.3203125 C-117.95581368 123.31761801 -116.88420448 122.31500808 -115.8125 121.3125 C-114.86632813 120.42691406 -113.92015625 119.54132813 -112.9453125 118.62890625 C-110.6875 116.75 -110.6875 116.75 -108.6875 116.75 C-107.73004721 117.8619784 -106.82266762 119.0171624 -105.9375 120.1875 C-96.17234945 131.59368208 -82.23708784 137.18631492 -67.5625 138.625 C-57.8065691 139.05811569 -48.5837602 137.9389607 -40.6875 131.75 C-36.66692854 127.28393586 -35.43601448 121.65990969 -35.6875 115.75 C-37.25519092 110.21697321 -39.77317353 106.68518209 -44.6875 103.75 C-52.70581649 99.92709765 -60.91057488 97.41768837 -69.5 95.25 C-71.79502486 94.64739571 -74.08930363 94.04194245 -76.3828125 93.43359375 C-78.01718262 93.00022705 -78.01718262 93.00022705 -79.68457031 92.55810547 C-97.81163259 87.68000985 -115.30876534 81.18978204 -125.125 64.1875 C-129.06312149 56.8161444 -130.05737609 49.6522591 -130 41.4375 C-129.99508545 40.60226807 -129.9901709 39.76703613 -129.98510742 38.90649414 C-129.86346161 32.47798071 -129.09614464 26.75698421 -126.6875 20.75 C-126.19443359 19.49703125 -126.19443359 19.49703125 -125.69140625 18.21875 C-119.2974422 3.88211088 -106.80121066 -5.31354587 -92.6875 -11.25 C-62.6513938 -21.31529091 -26.07218493 -19.14221756 0 0 Z " fill="#000000" transform="translate(2549.6875,395.25)"/>
<path d="M0 0 C23.04736103 -0.52380366 47.62024914 5.35502223 65.171875 20.99609375 C66.56617036 22.35152374 67.94450421 23.72383098 69.296875 25.12109375 C69.87695312 25.70117188 70.45703125 26.28125 71.0546875 26.87890625 C71.46460938 27.28882813 71.87453125 27.69875 72.296875 28.12109375 C70.71816621 32.47544087 67.32255046 34.89998151 63.859375 37.74609375 C62.58986332 38.80836499 61.32165092 39.87219075 60.0546875 40.9375 C59.42208008 41.46875488 58.78947266 42.00000977 58.13769531 42.54736328 C54.55707479 45.60846141 51.13400106 48.8394146 47.69921875 52.0625 C45.34978252 54.07575674 42.99399611 55.61628286 40.296875 57.12109375 C39.12125 55.57421875 39.12125 55.57421875 37.921875 53.99609375 C30.23917292 45.1314375 18.80311681 40.84583434 7.33203125 39.73828125 C-7.11469216 39.10272904 -18.74858329 43.595988 -29.390625 53.30859375 C-40.56624353 65.07921049 -45.31942135 83.25642712 -44.953125 99.14453125 C-43.41708918 117.43295768 -37.17971831 132.35961442 -23.15625 144.33203125 C-13.43299319 151.42319625 -1.59706289 154.31195774 10.296875 153.12109375 C22.95723588 150.99104072 32.78784845 146.82084144 42.296875 138.12109375 C46.49313409 139.7588742 49.28364285 142.85432557 52.375 146.00390625 C52.94643738 146.57817352 53.51787476 147.1524408 54.10662842 147.74411011 C55.92480445 149.57345185 57.73588992 151.40963568 59.546875 153.24609375 C60.78078829 154.49004149 62.01515822 155.73353645 63.25 156.9765625 C66.27094243 160.01951742 69.28554592 163.06862629 72.296875 166.12109375 C59.45443725 181.8237687 40.11766646 189.54915201 20.296875 192.12109375 C15.27303062 192.4408025 10.26753243 192.50256786 5.234375 192.49609375 C4.55256165 192.49588226 3.87074829 192.49567078 3.16827393 192.49545288 C-20.82813849 192.42130094 -43.08000984 185.73508797 -61.703125 170.12109375 C-62.43144531 169.55003906 -63.15976563 168.97898437 -63.91015625 168.390625 C-81.42438308 154.00503414 -91.01183349 131.08379464 -93.421875 108.953125 C-95.3897662 82.14060734 -90.7008936 54.61570846 -72.84765625 33.51953125 C-72.13996094 32.72804688 -71.43226562 31.9365625 -70.703125 31.12109375 C-69.96449219 30.28835938 -69.22585938 29.455625 -68.46484375 28.59765625 C-50.72142108 9.72167469 -25.4146217 1.13851629 0 0 Z " fill="#000000" transform="translate(1282.703125,377.87890625)"/>
<path d="M0 0 C50.82 0 101.64 0 154 0 C154 14.19 154 28.38 154 43 C136.18 43 118.36 43 100 43 C100 88.54 100 134.08 100 181 C84.82 181 69.64 181 54 181 C54 135.46 54 89.92 54 43 C36.18 43 18.36 43 0 43 C0 28.81 0 14.62 0 0 Z " fill="#000000" transform="translate(1449,32)"/>
<path d="M0 0 C50.82 0 101.64 0 154 0 C154 14.19 154 28.38 154 43 C136.18 43 118.36 43 100 43 C100 88.54 100 134.08 100 181 C84.82 181 69.64 181 54 181 C54 135.46 54 89.92 54 43 C36.18 43 18.36 43 0 43 C0 28.81 0 14.62 0 0 Z " fill="#000000" transform="translate(979,32)"/>
<path d="M0 0 C15.18 0 30.36 0 46 0 C46 60.06 46 120.12 46 182 C30.82 182 15.64 182 0 182 C0 121.94 0 61.88 0 0 Z " fill="#000000" transform="translate(1374,32)"/>
<path d="M0 0 C15.18 0 30.36 0 46 0 C46 60.06 46 120.12 46 182 C30.82 182 15.64 182 0 182 C0 121.94 0 61.88 0 0 Z " fill="#000000" transform="translate(697,32)"/>
<path d="M0 0 C15.18 0 30.36 0 46 0 C46 59.73 46 119.46 46 181 C30.82 181 15.64 181 0 181 C0 121.27 0 61.54 0 0 Z " fill="#000000" transform="translate(1109,380)"/>
</svg>
