<?xml version="1.0" encoding="UTF-8"?>
<svg version="1.1" xmlns="http://www.w3.org/2000/svg" width="500" height="500">
<path d="M0 0 C2.9162477 0.01373607 5.83010745 0.00018175 8.74609375 -0.04101562 C39.37409712 -0.46992712 68.41901532 4.7968979 97.02490234 16.07421875 C97.76417969 16.36417725 98.50345703 16.65413574 99.26513672 16.95288086 C109.77171182 21.16379614 119.93205712 26.21953323 129.52099609 32.2421875 C131.7513392 33.59570305 134.00647326 34.84494293 136.29833984 36.08984375 C140.79990271 38.58021778 145.02129202 41.34544996 149.21240234 44.32421875 C149.94144775 44.84089111 150.67049316 45.35756348 151.42163086 45.88989258 C158.66367977 51.09903036 165.37674921 56.82434767 172.02490234 62.76171875 C172.91693359 63.54289062 173.80896484 64.3240625 174.72802734 65.12890625 C183.3077719 72.71037865 191.71432284 80.51834271 198.48974609 89.7890625 C200.00791516 91.82589241 200.00791516 91.82589241 201.95458984 93.6796875 C212.72602534 104.51209338 221.06658841 119.29042298 228.02490234 132.76171875 C228.60111328 133.86257812 229.17732422 134.9634375 229.77099609 136.09765625 C233.72905504 143.80948723 237.07222196 151.60762789 240.02490234 159.76171875 C240.43482422 160.83679688 240.84474609 161.911875 241.26708984 163.01953125 C255.30950563 200.61133998 259.25089136 243.10825331 254.02490234 282.76171875 C253.90663086 283.68597656 253.78835938 284.61023438 253.66650391 285.5625 C250.72603311 307.67962892 244.46421655 329.12375945 236.02490234 349.76171875 C235.54150391 350.96634766 235.54150391 350.96634766 235.04833984 352.1953125 C224.48734516 377.22027815 208.31589064 399.98624187 189.84912109 419.71484375 C187.58972127 422.13461695 185.4147861 424.60999102 183.27490234 427.13671875 C179.89102524 431.0443901 176.19584205 434.69344126 172.02490234 437.76171875 C171.36490234 437.76171875 170.70490234 437.76171875 170.02490234 437.76171875 C169.81478516 438.32503906 169.60466797 438.88835937 169.38818359 439.46875 C167.56063644 442.54259005 165.04143213 444.35920083 162.21240234 446.44921875 C161.35050293 447.09842285 161.35050293 447.09842285 160.47119141 447.76074219 C154.44092089 452.26785238 148.25281498 456.53359457 142.02490234 460.76171875 C141.25791016 461.30570312 140.49091797 461.8496875 139.70068359 462.41015625 C133.77243108 466.55226244 127.40848868 469.68423588 120.91503906 472.82763672 C119.0389451 473.75477899 117.18923575 474.72118436 115.34130859 475.703125 C82.04303209 493.24941889 43.76836633 500.97751547 6.33740234 501.01171875 C5.56822479 501.01272583 4.79904724 501.01373291 4.00656128 501.01477051 C-9.50691287 501.00287223 -22.64129741 500.06684252 -35.97509766 497.76171875 C-37.26577148 497.54491455 -37.26577148 497.54491455 -38.58251953 497.32373047 C-71.74866392 491.62132598 -104.04891673 479.68830949 -131.97509766 460.76171875 C-132.57902344 460.35453613 -133.18294922 459.94735352 -133.80517578 459.52783203 C-142.68065229 453.49356119 -150.91430616 446.83771981 -158.97509766 439.76171875 C-159.82587891 439.02308594 -160.67666016 438.28445313 -161.55322266 437.5234375 C-171.28881975 428.93412845 -180.67355995 419.75467047 -188.97509766 409.76171875 C-189.68021484 408.93414062 -190.38533203 408.1065625 -191.11181641 407.25390625 C-196.59100818 400.72352827 -201.35535868 393.91743728 -205.97509766 386.76171875 C-206.72419348 385.65735443 -207.47555193 384.55452194 -208.22900391 383.453125 C-213.20842144 376.08413517 -217.01853147 368.64006191 -220.42431641 360.4296875 C-221.67926082 357.46144366 -223.02038376 354.66116791 -224.53759766 351.82421875 C-231.51415075 338.07630529 -235.24941794 322.6380291 -238.97509766 307.76171875 C-239.20382568 306.85488342 -239.43255371 305.9480481 -239.66821289 305.01373291 C-243.95258886 287.50878207 -244.86476456 270.34259676 -244.7391777 252.41801453 C-244.72489183 250.23019681 -244.71902157 248.04247199 -244.71438599 245.85461426 C-244.64420504 224.43234362 -243.45092232 204.33011066 -236.97509766 183.76171875 C-236.36808773 181.66097573 -235.76384808 179.55942994 -235.16259766 177.45703125 C-233.60100377 172.1609835 -231.85991224 166.95085944 -229.97509766 161.76171875 C-229.72937012 161.08093262 -229.48364258 160.40014648 -229.23046875 159.69873047 C-223.74295759 144.74817745 -217.01339886 129.89738316 -207.97509766 116.76171875 C-206.5781047 114.6583218 -205.18229849 112.55413624 -203.78759766 110.44921875 C-202.51739206 108.55296478 -201.24656698 106.6571256 -199.97509766 104.76171875 C-199.33958984 103.75753906 -198.70408203 102.75335938 -198.04931641 101.71875 C-195.92564374 98.69121664 -193.61784406 96.34126046 -190.97509766 93.76171875 C-188.99527541 91.52652511 -187.08268131 89.23577082 -185.16259766 86.94921875 C-180.65562249 81.63438301 -176.011239 76.58456469 -170.97509766 71.76171875 C-170.15009766 70.93671875 -169.32509766 70.11171875 -168.47509766 69.26171875 C-167.65009766 68.43671875 -166.82509766 67.61171875 -165.97509766 66.76171875 C-165.41564453 66.16746094 -164.85619141 65.57320313 -164.27978516 64.9609375 C-159.75018382 60.23878226 -154.9467566 56.3742845 -149.58837891 52.62109375 C-146.96811052 50.75674733 -144.47308895 48.78602287 -141.97509766 46.76171875 C-140.6897532 45.75360545 -139.39846496 44.75300333 -138.10009766 43.76171875 C-137.48392578 43.28734375 -136.86775391 42.81296875 -136.23291016 42.32421875 C-133.90590837 40.71383689 -131.50262696 39.30685063 -129.03613281 37.921875 C-126.68323319 36.5974283 -124.34892363 35.24287331 -122.01416016 33.88671875 C-120.20951868 32.84497236 -118.40483026 31.80330728 -116.60009766 30.76171875 C-115.70548828 30.2409375 -114.81087891 29.72015625 -113.88916016 29.18359375 C-108.3746232 26.00952887 -102.84059782 23.221952 -96.97509766 20.76171875 C-96.25789551 20.45024902 -95.54069336 20.1387793 -94.80175781 19.81787109 C-84.94782275 15.56291177 -74.99687324 11.98174867 -64.66259766 9.07421875 C-63.7415625 8.81342529 -62.82052734 8.55263184 -61.87158203 8.28393555 C-58.58471629 7.39072923 -55.28158961 6.57939376 -51.97509766 5.76171875 C-51.22719971 5.55734192 -50.47930176 5.35296509 -49.70874023 5.14239502 C-33.17532393 0.64710243 -17.01151468 -0.0848532 0 0 Z M20.02490234 87.76171875 C20.02490234 172.90171875 20.02490234 258.04171875 20.02490234 345.76171875 C99.09298713 350.16983791 99.09298713 350.16983791 159.02490234 315.76171875 C161.22232449 313.21192601 163.14779775 310.55317228 165.02490234 307.76171875 C165.52634766 307.04113281 166.02779297 306.32054687 166.54443359 305.578125 C181.18592967 284.19042061 187.82835786 260.01315821 183.67724609 234.23828125 C183.46197266 233.09101563 183.24669922 231.94375 183.02490234 230.76171875 C182.84056641 229.75882813 182.65623047 228.7559375 182.46630859 227.72265625 C176.82361996 201.71722166 160.01073486 181.95535109 138.02490234 167.76171875 C121.70681415 157.41255573 104.53935173 155.18032553 85.64990234 154.07421875 C84.40901855 154.00122559 84.40901855 154.00122559 83.14306641 153.92675781 C78.95621097 153.58900074 78.95621097 153.58900074 75.02490234 154.76171875 C75.02490234 165.98171875 75.02490234 177.20171875 75.02490234 188.76171875 C80.75187459 189.60335649 80.75187459 189.60335649 86.40771484 189.9375 C106.63404457 190.48885728 120.91963985 196.17284725 135.02490234 210.76171875 C137.38099881 213.61585187 139.26773413 216.50873329 141.02490234 219.76171875 C141.47349609 220.56738281 141.92208984 221.37304688 142.38427734 222.203125 C150.16449479 237.55761295 150.42382588 253.703838 145.24560547 269.86645508 C142.26374214 278.47272238 138.03517571 286.77733904 131.02490234 292.76171875 C130.42935547 293.31214844 129.83380859 293.86257813 129.22021484 294.4296875 C111.58993902 310.51645669 91.80078362 310.80070223 69.00537109 310.7734375 C67.64611822 310.77249519 66.28686529 310.77164 64.9276123 310.77087402 C61.62670735 310.76867684 58.32580568 310.76560055 55.02490234 310.76171875 C55.02766772 309.32357583 55.02766772 309.32357583 55.03048897 307.85637951 C55.07493375 284.50265702 55.10777556 261.14894002 55.12852669 237.79518414 C55.1388291 226.50138023 55.15286964 215.2076043 55.17578125 203.91381836 C55.19574682 194.06750797 55.2086263 184.22121784 55.21307933 174.37488776 C55.21568134 169.1637606 55.22177564 163.95269141 55.23636246 158.74158287 C55.2499964 153.83082532 55.25411327 148.9201493 55.25111771 144.00937462 C55.25166528 142.21276404 55.25560793 140.41615057 55.26331329 138.61955643 C55.32693193 123.012909 54.91816229 108.91761444 43.64990234 96.82421875 C36.41846343 90.23872536 30.07289691 89.43638451 20.02490234 87.76171875 Z M-138.97509766 175.76171875 C-139.58998047 176.220625 -140.20486328 176.67953125 -140.83837891 177.15234375 C-148.4817777 183.26706279 -154.61079959 191.62875072 -159.97509766 199.76171875 C-159.97509766 200.42171875 -159.97509766 201.08171875 -159.97509766 201.76171875 C-160.63509766 201.76171875 -161.29509766 201.76171875 -161.97509766 201.76171875 C-175.09444278 228.49191184 -178.23972673 254.84575005 -168.60791016 283.26953125 C-164.94998697 293.58686124 -159.67577696 302.14655965 -152.97509766 310.76171875 C-152.21197266 311.79296875 -151.44884766 312.82421875 -150.66259766 313.88671875 C-146.49845992 318.34137773 -141.78078696 322.02254966 -136.97509766 325.76171875 C-136.07146484 326.46941406 -135.16783203 327.17710937 -134.23681641 327.90625 C-116.80876685 341.09708924 -97.06852574 346.00696721 -75.47509766 345.82421875 C-72.01009766 345.80359375 -68.54509766 345.78296875 -64.97509766 345.76171875 C-64.97509766 334.54171875 -64.97509766 323.32171875 -64.97509766 311.76171875 C-72.75135998 311.22595392 -72.75135998 311.22595392 -80.52929688 310.71557617 C-94.62700502 309.6659909 -106.17787709 305.30386296 -117.06494141 296.21484375 C-119.01508098 294.56911022 -119.01508098 294.56911022 -121.97509766 293.76171875 C-122.6655034 292.10474496 -123.32816115 290.43614265 -123.97509766 288.76171875 C-124.55259766 288.06046875 -125.13009766 287.35921875 -125.72509766 286.63671875 C-135.62120198 273.99169656 -139.52940445 258.00283863 -137.66650391 242.1328125 C-134.92195379 225.05831043 -127.20616848 210.4293385 -113.22509766 199.94921875 C-104.94001402 194.46472677 -95.16994345 190.74894718 -85.18481445 190.55639648 C-84.26423752 190.53645126 -83.34366058 190.51650604 -82.39518738 190.49595642 C-81.41479996 190.47924393 -80.43441254 190.46253143 -79.42431641 190.4453125 C-78.41037308 190.4245314 -77.39642975 190.40375031 -76.35176086 190.38233948 C-73.12210681 190.31710761 -69.89237345 190.25808173 -66.66259766 190.19921875 C-64.46923018 190.15600846 -62.27587063 190.11239337 -60.08251953 190.06835938 C-54.71346203 189.96145331 -49.34432616 189.85963854 -43.97509766 189.76171875 C-43.9727093 190.76962967 -43.97032095 191.77754059 -43.96786022 192.81599426 C-43.90905477 217.34541584 -43.8331654 241.87473927 -43.73938274 266.40405273 C-43.69442521 278.266267 -43.65501038 290.12845125 -43.62866211 301.99072266 C-43.60568177 312.3303781 -43.57228319 322.66993853 -43.5263961 333.00951862 C-43.50246451 338.48378724 -43.48373525 343.95796177 -43.47748375 349.43228149 C-43.47143269 354.5868886 -43.45143175 359.74125497 -43.42082214 364.89577293 C-43.41204232 366.78553788 -43.40831922 368.67533428 -43.41008949 370.56511879 C-43.41174649 373.15062298 -43.39500692 375.73539697 -43.37382507 378.32080078 C-43.37867265 379.06401486 -43.38352023 379.80722895 -43.3885147 380.57296467 C-43.27188537 389.23280495 -39.9285977 396.49692459 -33.97509766 402.76171875 C-26.31876539 409.14920499 -18.8614132 411.84375689 -8.97509766 411.76171875 C-8.95223213 379.03846074 -8.93459986 346.31520479 -8.92403233 313.59194062 C-8.92278155 309.73276183 -8.92148723 305.87358306 -8.92016602 302.0144043 C-8.91990371 301.24607861 -8.91964139 300.47775293 -8.91937114 299.68614464 C-8.91501428 287.22905455 -8.90712664 274.77196905 -8.89794486 262.31488169 C-8.88860876 249.54234699 -8.88304214 236.7698147 -8.88100916 223.99727672 C-8.87963384 216.1095478 -8.87528278 208.22183185 -8.86718119 200.33410691 C-8.8612936 194.29606772 -8.86063858 188.25803981 -8.86198997 182.21999741 C-8.86171344 179.73546582 -8.85970567 177.25093378 -8.85589218 174.76640511 C-8.85096196 171.39048055 -8.85209688 168.01461284 -8.85484314 164.63868713 C-8.8519303 163.64162626 -8.84901746 162.64456539 -8.84601635 161.61729056 C-8.8480074 160.72006684 -8.84999844 159.82284313 -8.85204983 158.89843082 C-8.85148025 157.72794291 -8.85148025 157.72794291 -8.85089916 156.53380877 C-8.78222153 154.73594836 -8.78222153 154.73594836 -9.97509766 153.76171875 C-13.03706566 153.58784579 -16.07811959 153.47700044 -19.14306641 153.41015625 C-20.08829666 153.38700348 -21.03352692 153.36385071 -22.00740051 153.33999634 C-24.02758087 153.29218644 -26.04782406 153.24697416 -28.06811523 153.20410156 C-31.07711994 153.13858004 -34.08558 153.06014852 -37.09423828 152.98046875 C-73.47307452 152.11008895 -108.84549108 153.15154927 -138.97509766 175.76171875 Z " fill="#2A9F1A" transform="translate(243.97509765625,-0.76171875)"/>
<path d="M0 0 C1.97909398 -0.02686553 3.95828971 -0.04633375 5.9375 -0.0625 C7.03964844 -0.07410156 8.14179688 -0.08570313 9.27734375 -0.09765625 C12 0 12 0 13 1 C13.10349103 3.52388078 13.14158822 6.02072142 13.13803101 8.54530334 C13.14085229 9.34497306 13.14367357 10.14464277 13.14658034 10.9685449 C13.15496548 13.66922508 13.15626794 16.36986448 13.15771484 19.07055664 C13.16238034 20.9985872 13.16752346 22.92661666 13.17311096 24.85464478 C13.18441503 29.01803039 13.19283817 33.18140875 13.19923019 37.34480476 C13.20988852 43.92947702 13.23012886 50.51409749 13.25234985 57.09873962 C13.31434274 75.82711406 13.36825847 94.55548618 13.40136719 113.28393555 C13.41971811 123.61883018 13.44866333 133.9536388 13.4893719 144.28847021 C13.51044026 149.75937805 13.52589888 155.23017746 13.52817917 160.70112801 C13.53032822 165.85163256 13.54622411 171.00191169 13.57256889 176.15234756 C13.5797545 178.04050516 13.58186644 179.92869009 13.57846642 181.81685829 C13.57455869 184.40010791 13.58906823 186.98264216 13.60800171 189.56581116 C13.59970717 190.6796091 13.59970717 190.6796091 13.59124506 191.81590801 C13.65829093 197.13675002 14.92410743 201.09683919 17 206 C17.391875 206.99 17.78375 207.98 18.1875 209 C18.455625 209.66 18.72375 210.32 19 211 C15.63061102 209.87687034 14.46825907 208.46825907 12 206 C10.76048984 202.28146952 10.86523426 198.84256246 10.87974548 194.97053528 C10.87889106 194.14309443 10.87803663 193.31565358 10.87715632 192.46313876 C10.87550464 189.68088908 10.88101782 186.89869923 10.88647461 184.11645508 C10.88675657 182.12589011 10.88659857 180.13532504 10.8860321 178.14476013 C10.88574449 172.7318782 10.89163539 167.31901831 10.89860606 161.90614152 C10.90484561 156.2526703 10.90544388 150.59919862 10.90663147 144.94572449 C10.90974301 134.236031 10.91795402 123.52634768 10.92798096 112.81665868 C10.93914759 100.62577042 10.94465394 88.43488168 10.94967639 76.24398959 C10.96013676 51.16265408 10.97773279 26.08132761 11 1 C7.37 1 3.74 1 0 1 C0 0.67 0 0.34 0 0 Z " fill="#A0C391" transform="translate(188,188)"/>
<path d="M0 0 C1.875 0.125 1.875 0.125 4 1 C5.1875 3.9375 5.1875 3.9375 6 7 C6.33 7.66 6.66 8.32 7 9 C6.67 9.99 6.34 10.98 6 12 C6.66 12.33 7.32 12.66 8 13 C8 16.3 8 19.6 8 23 C7.67 23 7.34 23 7 23 C6.67 81.74 6.34 140.48 6 201 C12.86258796 201.98036971 19.10205654 202.14936492 26 202 C27.15822266 201.98114746 27.15822266 201.98114746 28.33984375 201.96191406 C39.23000826 201.75379469 49.52720375 200.84467055 60.13525391 198.28417969 C65.82769269 196.91384634 65.82769269 196.91384634 68 198 C52.0008125 205.61313995 37.17623485 206.06647087 19.6875 206.125 C18.47586182 206.12975342 17.26422363 206.13450684 16.01586914 206.1394043 C14.88012451 206.137229 13.74437988 206.13505371 12.57421875 206.1328125 C11.54901123 206.13168457 10.52380371 206.13055664 9.4675293 206.12939453 C7 206 7 206 5 205 C4.99668985 204.04123805 4.99337971 203.0824761 4.98996925 202.09466076 C4.90889165 178.74087698 4.81655069 155.38715829 4.71247292 132.03346539 C4.66240063 120.7396905 4.61595713 109.44592268 4.578125 98.15209961 C4.54513235 88.30575033 4.50526108 78.45945674 4.45720994 68.61316901 C4.43201721 63.40206996 4.41021472 58.19100751 4.39665604 52.97986412 C4.38376995 48.0690628 4.36164562 43.15838746 4.33261681 38.24765587 C4.32359201 36.45106371 4.3178628 34.6544513 4.31578636 32.85783768 C4.3003649 21.53538012 4.06577083 10.74525149 0 0 Z " fill="#62914F" transform="translate(294,105)"/>
<path d="M0 0 C3.90498165 0.00578332 7.80989585 0.00235001 11.71487522 -0.00357246 C14.7370404 -0.00717012 17.75918926 -0.00604469 20.7813549 -0.00344467 C22.22352036 -0.00277763 23.6656873 -0.00359607 25.10785103 -0.00592422 C27.10298766 -0.0084468 29.09812952 -0.00392439 31.09326172 0.00097656 C32.22699722 0.00177216 33.36073273 0.00256775 34.52882385 0.00338745 C37.0715332 0.13037109 37.0715332 0.13037109 38.0715332 1.13037109 C38.16801387 2.51693939 38.19525217 3.90839715 38.19458103 5.29831791 C38.19657208 6.20250841 38.19856313 7.10669891 38.20061451 8.03828913 C38.19770167 9.0431319 38.19478883 10.04797466 38.19178772 11.08326721 C38.19264214 12.1417617 38.19349657 13.20025618 38.19437689 14.29082626 C38.19603484 17.86699665 38.19050518 21.44312098 38.18505859 25.01928711 C38.18477676 27.57112629 38.18493437 30.12296555 38.1855011 32.67480469 C38.18572942 38.18382423 38.18287791 43.69282872 38.17726326 49.20184517 C38.1691506 57.16704413 38.16653328 65.13223735 38.16527527 73.09744 C38.16308438 86.01914618 38.1564233 98.94084607 38.14697266 111.86254883 C38.13779949 124.41788705 38.13071819 136.97322356 38.12646484 149.52856445 C38.12620212 150.30193358 38.1259394 151.07530272 38.12566871 151.87210727 C38.12436371 155.75171108 38.1231 159.63131491 38.12185681 163.51091874 C38.11148305 195.71740743 38.09386373 227.92388839 38.0715332 260.13037109 C37.7415332 260.13037109 37.4115332 260.13037109 37.0715332 260.13037109 C36.7415332 175.32037109 36.4115332 90.51037109 36.0715332 3.13037109 C-4.75096276 1.92008561 -4.75096276 1.92008561 -45.27612305 4.72802734 C-48.21014862 5.05124086 -50.98412589 5.21646293 -53.9284668 5.13037109 C-53.9284668 4.47037109 -53.9284668 3.81037109 -53.9284668 3.13037109 C-51.9484668 2.80037109 -49.9684668 2.47037109 -47.9284668 2.13037109 C-47.9284668 1.80037109 -47.9284668 1.47037109 -47.9284668 1.13037109 C-31.97087233 -0.12608733 -15.99474766 -0.02404536 0 0 Z " fill="#5E9550" transform="translate(197.928466796875,150.86962890625)"/>
<path d="M0 0 C6.0546875 -0.1953125 6.0546875 -0.1953125 8 0 C8.66 0.66 9.32 1.32 10 2 C11.96690374 2.67292501 11.96690374 2.67292501 14.125 3.125 C15.40375 3.41375 16.6825 3.7025 18 4 C18 4.66 18 5.32 18 6 C21.46941546 5.54177532 24.67395049 5.10868317 28 4 C30.52248907 4.03692833 32.98758752 4.13782751 35.5 4.3125 C36.17675781 4.34794922 36.85351562 4.38339844 37.55078125 4.41992188 C41.15763732 4.65824471 42.92749808 4.95166538 46 7 C46.2921207 9.64919955 46.39613855 12.06119096 46.36328125 14.7109375 C46.36402901 15.85775497 46.36402901 15.85775497 46.36479187 17.02774048 C46.36244951 18.64677525 46.35271139 20.26581354 46.33618164 21.88476562 C46.3126578 24.35840616 46.31561053 26.83096406 46.32226562 29.3046875 C46.31668646 30.87761057 46.30957509 32.45052911 46.30078125 34.0234375 C46.30214836 35.13143204 46.30214836 35.13143204 46.30354309 36.2618103 C46.25232449 39.99072982 46.0699139 42.83255275 44 46 C18.22479956 46.24387016 18.22479956 46.24387016 9 44 C7.14375 43.566875 7.14375 43.566875 5.25 43.125 C4.1775 42.75375 3.105 42.3825 2 42 C1.505 40.515 1.505 40.515 1 39 C2.3303125 39.185625 2.3303125 39.185625 3.6875 39.375 C4.66589844 39.51035156 4.66589844 39.51035156 5.6640625 39.6484375 C7.30922028 39.8960365 8.94980389 40.17503939 10.5859375 40.4765625 C21.35225266 42.36985152 32.0829109 42.59814396 43 43 C43 31.78 43 20.56 43 9 C37.39 9 31.78 9 26 9 C17.34386179 8.05725227 6.44316447 6.44316447 0 0 Z " fill="#379126" transform="translate(136,302)"/>
<path d="M0 0 C2.0839403 0.11443603 4.16716493 0.24195547 6.25 0.375 C7.41015625 0.44460937 8.5703125 0.51421875 9.765625 0.5859375 C12.70694334 0.96248308 14.49949011 1.4774123 17 3 C17 3.99 17 4.98 17 6 C15.64455078 5.67515625 15.64455078 5.67515625 14.26171875 5.34375 C12.49248047 4.92609375 12.49248047 4.92609375 10.6875 4.5 C9.51574219 4.2215625 8.34398437 3.943125 7.13671875 3.65625 C4.04470156 2.89760916 4.04470156 2.89760916 1 3 C0.67 88.14 0.34 173.28 0 261 C-0.33 261 -0.66 261 -1 261 C-1.02286955 228.03897557 -1.04049985 195.0779532 -1.05106533 162.11692265 C-1.05231609 158.22899009 -1.05361041 154.34105754 -1.05493164 150.453125 C-1.05519395 149.67908039 -1.05545626 148.90503579 -1.05572652 148.10753529 C-1.06008242 135.56058941 -1.06796953 123.01364809 -1.0771528 110.46670492 C-1.08649156 97.60037436 -1.09205608 84.73404619 -1.09408849 71.86771238 C-1.09546326 63.92317388 -1.09981134 55.97864828 -1.10791647 48.03411375 C-1.11380805 41.95080291 -1.1144584 35.86750325 -1.11310768 29.78418922 C-1.11338402 27.28233956 -1.11538929 24.78048943 -1.11920547 22.27864265 C-1.12414229 18.87679361 -1.1229983 15.47500084 -1.12025452 12.07315063 C-1.12316736 11.07122071 -1.1260802 10.06929078 -1.12908131 9.03699934 C-1.12709026 8.13081779 -1.12509921 7.22463624 -1.12304783 6.29099464 C-1.12342755 5.50497356 -1.12380727 4.71895248 -1.1241985 3.90911257 C-1 2 -1 2 0 0 Z " fill="#418035" transform="translate(263,85)"/>
<path d="M0 0 C0 64.35 0 128.7 0 195 C-0.33 195 -0.66 195 -1 195 C-1.33 131.64 -1.66 68.28 -2 3 C-16.52 3 -31.04 3 -46 3 C-33.49612142 -3.25193929 -12.52004413 0 0 0 Z " fill="#318D1E" transform="translate(199,189)"/>
<path d="M0 0 C0.33 0 0.66 0 1 0 C1.64984717 4.29106869 2.29413841 8.58295452 2.9375 12.875 C3.11990234 14.07898438 3.30230469 15.28296875 3.49023438 16.5234375 C5.13439059 27.52433725 6.19584995 38.1828491 6.1875 49.3125 C6.18669434 50.44244385 6.18588867 51.5723877 6.18505859 52.73657227 C6.08353878 66.90057647 5.05148717 81.13845721 2 95 C1.67 95 1.34 95 1 95 C0.81363048 75.15594652 0.81363048 75.15594652 1.5 66.6875 C2.02745858 59.91342481 2.11285116 53.16873346 2.125 46.375 C2.12951172 45.33045654 2.13402344 44.28591309 2.13867188 43.2097168 C2.13577148 41.72532104 2.13577148 41.72532104 2.1328125 40.2109375 C2.13168457 39.32712402 2.13055664 38.44331055 2.12939453 37.53271484 C1.9964748 34.93099928 1.53500024 32.54595203 1 30 C0.82540725 27.28965544 0.67973114 24.58758989 0.5625 21.875 C0.2701459 15.76709869 -0.38031125 9.97352341 -1.79296875 4.00390625 C-1.86128906 3.34261719 -1.92960937 2.68132812 -2 2 C-1.34 1.34 -0.68 0.68 0 0 Z " fill="#65AA53" transform="translate(494,198)"/>
<path d="M0 0 C2.45862401 -0.05383848 4.9160755 -0.09359038 7.375 -0.125 C8.42300781 -0.15013672 8.42300781 -0.15013672 9.4921875 -0.17578125 C11.32897486 -0.19344267 13.16601963 -0.10303261 15 0 C15.66 0.66 16.32 1.32 17 2 C19.56175464 2.42641108 19.56175464 2.42641108 22.4375 2.5625 C25.57963901 2.76751306 27.99894319 2.99964773 31 4 C41.22685417 5.2799729 51.5282371 5.12022169 61.8125 5.0625 C63.3912746 5.05746947 64.97005078 5.05290934 66.54882812 5.04882812 C70.3659252 5.03795816 74.18294455 5.02078136 78 5 C78 4.67 78 4.34 78 4 C82.26937656 3.60697316 86.54053041 3.23866741 90.8125 2.875 C92.63491211 2.70677734 92.63491211 2.70677734 94.49414062 2.53515625 C95.65751953 2.43847656 96.82089844 2.34179688 98.01953125 2.2421875 C99.09307861 2.1479248 100.16662598 2.05366211 101.27270508 1.95654297 C104 2 104 2 107 4 C104.39683978 4.48523151 101.7926622 4.96323254 99.1875 5.4375 C98.46884766 5.57220703 97.75019531 5.70691406 97.00976562 5.84570312 C85.48982051 7.92639806 73.98837541 8.23933094 62.3125 8.25 C61.54332245 8.25100708 60.7741449 8.25201416 59.98165894 8.25305176 C39.53036064 8.23504489 19.9591993 5.34951578 0 1 C0 0.67 0 0.34 0 0 Z " fill="#7FB671" transform="translate(188,492)"/>
<path d="M0 0 C0.33 0 0.66 0 1 0 C1 11.22 1 22.44 1 34 C5.021875 34.0825 9.04375 34.165 13.1875 34.25 C26.27580838 34.67110632 38.02557661 36.16873671 49 44 C49.33 44.66 49.66 45.32 50 46 C48.35 45.67 46.7 45.34 45 45 C45 44.34 45 43.68 45 43 C44.2265625 43.3403125 44.2265625 43.3403125 43.4375 43.6875 C40.40528628 44.07624535 38.56743707 43.09664271 35.84765625 41.83203125 C28.82979996 38.67177038 21.38634055 37.91954637 13.78515625 38.046875 C13.03024902 38.05799316 12.2753418 38.06911133 11.49755859 38.08056641 C9.97799848 38.10979489 8.45863471 38.15334388 6.93994141 38.21240234 C3.78201255 38.27919502 1.36703812 38.16735123 -1.52734375 36.84765625 C-3 35 -3 35 -3.171875 32.30078125 C-3.03265625 31.31464844 -2.8934375 30.32851562 -2.75 29.3125 C-2.62109375 28.31863281 -2.4921875 27.32476562 -2.359375 26.30078125 C-2.24078125 25.54152344 -2.1221875 24.78226563 -2 24 C-1.67 24 -1.34 24 -1 24 C-0.67 16.08 -0.34 8.16 0 0 Z " fill="#53A244" transform="translate(318,154)"/>
<path d="M0 0 C3.92262222 0.01037649 7.8452512 0.01482779 11.7678833 0.01983643 C19.41373467 0.03044282 27.05955326 0.04742587 34.7053833 0.06866455 C35.2003833 1.05866455 35.2003833 1.05866455 35.7053833 2.06866455 C34.39682373 2.06342773 33.08826416 2.05819092 31.74005127 2.05279541 C26.77114579 2.0343601 21.80224314 2.02309553 16.83331299 2.01373291 C14.70407601 2.00877897 12.57484228 2.00201395 10.44561768 1.9932251 C-0.78696574 1.94810366 -11.9972676 2.00498699 -23.22039795 2.50616455 C-24.08919586 2.54462997 -24.95799377 2.5830954 -25.8531189 2.62272644 C-32.45450972 2.95170511 -39.00533166 3.58766548 -45.56326294 4.4066925 C-49.16630269 4.85664275 -52.66207778 5.17487914 -56.2946167 5.06866455 C-56.2946167 4.40866455 -56.2946167 3.74866455 -56.2946167 3.06866455 C-54.3146167 2.73866455 -52.3346167 2.40866455 -50.2946167 2.06866455 C-50.2946167 1.73866455 -50.2946167 1.40866455 -50.2946167 1.06866455 C-33.55220537 -0.26417685 -16.78111218 -0.04919068 0 0 Z " fill="#6FB162" transform="translate(200.29461669921875,150.93133544921875)"/>
<path d="M0 0 C0.66 0 1.32 0 2 0 C2 0.66 2 1.32 2 2 C3.65 1.67 5.3 1.34 7 1 C6.67 4.3 6.34 7.6 6 11 C7.32 11.33 8.64 11.66 10 12 C11.17571451 15.67410785 11.07366746 19.16929183 11 23 C11.66 23 12.32 23 13 23 C14.02442186 30.83951078 14.15516082 38.61750322 14.13037109 46.5168457 C14.12492759 48.59007809 14.13039126 50.6631016 14.13671875 52.73632812 C14.13542969 54.04150391 14.13414062 55.34667969 14.1328125 56.69140625 C14.13168457 57.87935791 14.13055664 59.06730957 14.12939453 60.29125977 C14 63 14 63 13 64 C12.87625 65.03125 12.7525 66.0625 12.625 67.125 C11.95526108 71.2773813 10.77449415 74.21955594 9 78 C7.47249678 74.94499356 8.6144801 72.72727184 9.375 69.4375 C12.29265036 55.76527406 12.59112867 42.79349335 10 29 C9.72349609 27.51306641 9.72349609 27.51306641 9.44140625 25.99609375 C7.45233078 16.91553183 3.67584048 8.49975169 0 0 Z " fill="#6CB05B" transform="translate(416,201)"/>
<path d="M0 0 C0.33 0 0.66 0 1 0 C1.16723554 5.10845794 1.32783286 10.21706404 1.48217773 15.32592773 C1.53567262 17.06524323 1.59100755 18.80450312 1.64819336 20.54370117 C1.72989627 23.03812666 1.80506164 25.53267483 1.87890625 28.02734375 C1.90594131 28.80963852 1.93297638 29.59193329 1.96083069 30.39793396 C2.01288386 32.26460933 2.01187025 34.13263674 2 36 C0.45825965 37.54174035 -0.97734964 37.12966819 -3.12109375 37.1328125 C-3.96986084 37.13482666 -4.81862793 37.13684082 -5.69311523 37.13891602 C-6.59876221 37.13432373 -7.50440918 37.12973145 -8.4375 37.125 C-9.80660522 37.12101196 -9.80660522 37.12101196 -11.20336914 37.11694336 C-18.88098083 37.06278394 -26.50727112 36.82255567 -34 35 C-35.85625 34.566875 -35.85625 34.566875 -37.75 34.125 C-38.8225 33.75375 -39.895 33.3825 -41 33 C-41.33 32.01 -41.66 31.02 -42 30 C-41.113125 30.12375 -40.22625 30.2475 -39.3125 30.375 C-38.66023437 30.46523438 -38.00796875 30.55546875 -37.3359375 30.6484375 C-35.69077972 30.8960365 -34.05019611 31.17503939 -32.4140625 31.4765625 C-21.64774734 33.36985152 -10.9170891 33.59814396 0 34 C0 22.78 0 11.56 0 0 Z " fill="#3A9227" transform="translate(179,311)"/>
<path d="M0 0 C0.99 0.33 1.98 0.66 3 1 C3 1.66 3 2.32 3 3 C4.32 3.33 5.64 3.66 7 4 C7 4.99 7 5.98 7 7 C7.99 7.33 8.98 7.66 10 8 C10.33 8.66 10.66 9.32 11 10 C11.99 10.33 12.98 10.66 14 11 C14.5775 11.94875 15.155 12.8975 15.75 13.875 C18.94954761 18.31881612 22.55240028 19.31694892 27.6875 20.75 C30.08815455 21.00953022 31.7227896 20.75907013 34 20 C33.67 21.32 33.34 22.64 33 24 C32.34 24 31.68 24 31 24 C31 24.66 31 25.32 31 26 C32.423125 26.3403125 32.423125 26.3403125 33.875 26.6875 C37 28 37 28 38.125 30.5 C38.41375 31.325 38.7025 32.15 39 33 C41.01735205 34.34410262 41.01735205 34.34410262 43 35 C31.39779836 35 16.56097372 18.5890486 7.875 11.125 C7.23530273 10.57763184 6.59560547 10.03026367 5.93652344 9.46630859 C2.92230943 6.84282603 0.22398482 4.36032742 -2 1 C-1.34 0.67 -0.68 0.34 0 0 Z " fill="#6DAC60" transform="translate(77,428)"/>
<path d="M0 0 C-1.37332284 0.62867668 -2.74875833 1.25273891 -4.125 1.875 C-5.27355469 2.39707031 -5.27355469 2.39707031 -6.4453125 2.9296875 C-12.93374008 5.64808071 -18.16947674 6.28460954 -25.140625 6.23046875 C-26.10401794 6.23001053 -27.06741089 6.22955231 -28.05999756 6.2290802 C-30.0872115 6.22606945 -32.11442336 6.21821855 -34.14160156 6.20581055 C-37.25333792 6.18748034 -40.36477762 6.18530154 -43.4765625 6.18554688 C-45.44791925 6.18063399 -47.41927398 6.17480668 -49.390625 6.16796875 C-50.32392639 6.16685593 -51.25722778 6.1657431 -52.21881104 6.16459656 C-53.08020691 6.15821671 -53.94160278 6.15183685 -54.82910156 6.14526367 C-55.58821838 6.14145187 -56.34733521 6.13764008 -57.12945557 6.13371277 C-59 6 -59 6 -61 5 C-60.67 4.34 -60.34 3.68 -60 3 C-59.2884375 3.16242188 -58.576875 3.32484375 -57.84375 3.4921875 C-52.59774378 4.42897433 -47.30931776 4.1156875 -42 4 C-40.83742676 3.98114746 -40.83742676 3.98114746 -39.65136719 3.96191406 C-28.76433171 3.75377331 -18.46972862 2.84393011 -7.86474609 0.28417969 C-2.17230731 -1.08615366 -2.17230731 -1.08615366 0 0 Z " fill="#378F26" transform="translate(362,303)"/>
<path d="M0 0 C0.66 0.33 1.32 0.66 2 1 C-1.41291427 10.37706644 -8.24156854 18.45886334 -14.125 26.4375 C-14.61532715 27.11143799 -15.1056543 27.78537598 -15.61083984 28.47973633 C-18.71053141 32.62942378 -21.89348801 35.83786391 -26 39 C-26 37.68 -26 36.36 -26 35 C-25.34 35 -24.68 35 -24 35 C-23.67 33.35 -23.34 31.7 -23 30 C-21.35 29.67 -19.7 29.34 -18 29 C-18 28.01 -18 27.02 -18 26 C-17.34 26 -16.68 26 -16 26 C-15.9175 25.278125 -15.835 24.55625 -15.75 23.8125 C-14.84286169 20.41073132 -13.39989121 18.54533916 -11 16 C-10.34 16 -9.68 16 -9 16 C-9 15.01 -9 14.02 -9 13 C-8.34 13 -7.68 13 -7 13 C-7 12.34 -7 11.68 -7 11 C-6.34 11 -5.68 11 -5 11 C-4.9175 10.113125 -4.835 9.22625 -4.75 8.3125 C-3.9065914 4.58744536 -2.54447236 2.79071162 0 0 Z " fill="#61A451" transform="translate(464,374)"/>
<path d="M0 0 C2.125 0.375 2.125 0.375 4 1 C-9.17566019 16.00652116 -9.17566019 16.00652116 -17 22 C-17.66 22 -18.32 22 -19 22 C-19.2371875 22.58265625 -19.474375 23.1653125 -19.71875 23.765625 C-21.2726806 26.47552837 -23.01929431 27.86530802 -25.5 29.75 C-26.2940625 30.36359375 -27.088125 30.9771875 -27.90625 31.609375 C-30 33 -30 33 -32 33 C-32.33 32.01 -32.66 31.02 -33 30 C-32.01 30 -31.02 30 -30 30 C-30 29.34 -30 28.68 -30 28 C-29.01 28 -28.02 28 -27 28 C-27 27.34 -27 26.68 -27 26 C-26.01 26 -25.02 26 -24 26 C-23.67 25.01 -23.34 24.02 -23 23 C-22.34 23 -21.68 23 -21 23 C-21 22.34 -21 21.68 -21 21 C-20.34 21 -19.68 21 -19 21 C-19 20.34 -19 19.68 -19 19 C-18.34 19 -17.68 19 -17 19 C-16.67 18.01 -16.34 17.02 -16 16 C-15.01 16 -14.02 16 -13 16 C-13 15.01 -13 14.02 -13 13 C-12.34 13 -11.68 13 -11 13 C-11 12.34 -11 11.68 -11 11 C-5.52380952 6 -5.52380952 6 -3 6 C-2.87625 5.38125 -2.7525 4.7625 -2.625 4.125 C-2 2 -2 2 0 0 Z " fill="#64A459" transform="translate(433,415)"/>
<path d="M0 0 C10.87904191 -0.52369397 20.45626351 0.97880388 31 3.375 C32.47498739 3.69656739 33.9502477 4.01688558 35.42578125 4.3359375 C41.3833777 5.64163511 47.23589124 6.97791346 53 9 C53 9.33 53 9.66 53 10 C46.99147774 10.20719042 42.47421415 9.73710708 37 7 C35.04352418 6.8653801 33.08444135 6.76818288 31.125 6.6875 C24.73846443 6.27632118 18.58792451 5.30884855 12.3125 4.0625 C11.43932129 3.89258545 10.56614258 3.7226709 9.66650391 3.54760742 C8.43359619 3.29394409 8.43359619 3.29394409 7.17578125 3.03515625 C6.44270752 2.8844165 5.70963379 2.73367676 4.9543457 2.57836914 C3 2 3 2 0 0 Z " fill="#5CA44D" transform="translate(269,0)"/>
<path d="M0 0 C2.0839403 0.11443603 4.16716493 0.24195547 6.25 0.375 C7.41015625 0.44460937 8.5703125 0.51421875 9.765625 0.5859375 C12.70694334 0.96248308 14.49949011 1.4774123 17 3 C17 3.99 17 4.98 17 6 C15.64455078 5.67515625 15.64455078 5.67515625 14.26171875 5.34375 C12.49248047 4.92609375 12.49248047 4.92609375 10.6875 4.5 C9.51574219 4.2215625 8.34398437 3.943125 7.13671875 3.65625 C4.04470156 2.89760916 4.04470156 2.89760916 1 3 C0.67 27.42 0.34 51.84 0 77 C-0.33 77 -0.66 77 -1 77 C-1.02313836 67.25576086 -1.04092273 57.51152822 -1.05181217 47.76726723 C-1.05703772 43.24294695 -1.06412944 38.71864542 -1.07543945 34.19433594 C-1.08627995 29.83069041 -1.09227932 25.46706295 -1.09487724 21.103405 C-1.09672939 19.43598521 -1.10034599 17.76856645 -1.10573006 16.10115433 C-1.11295589 13.77135303 -1.11399029 11.44162705 -1.11352539 9.11181641 C-1.11712067 8.41770157 -1.12071594 7.72358673 -1.12442017 7.00843811 C-1.11405216 2.22810432 -1.11405216 2.22810432 0 0 Z " fill="#438534" transform="translate(263,85)"/>
<path d="M0 0 C0.97904297 0.09603516 1.95808594 0.19207031 2.96679688 0.29101562 C10.04873512 1.01624504 10.04873512 1.01624504 13.5625 2.1875 C13.5625 2.8475 13.5625 3.5075 13.5625 4.1875 C14.34625 4.31125 15.13 4.435 15.9375 4.5625 C18.5625 5.1875 18.5625 5.1875 20.5625 7.1875 C20.00602783 7.10185791 19.44955566 7.01621582 18.8762207 6.92797852 C5.09600431 4.84143312 -8.50754005 3.60055607 -22.4375 3.1875 C-21.4375 1.1875 -21.4375 1.1875 -19.55444336 0.52612305 C-12.81042661 -0.88146916 -6.82071254 -0.77119769 0 0 Z " fill="#3C912C" transform="translate(341.4375,150.8125)"/>
<path d="M0 0 C1.00869141 0.00902344 2.01738281 0.01804688 3.05664062 0.02734375 C5.51718457 0.05066644 7.97720896 0.08339237 10.4375 0.125 C10.4375 0.455 10.4375 0.785 10.4375 1.125 C9.58986084 1.154729 9.58986084 1.154729 8.72509766 1.18505859 C6.17042003 1.28018236 3.61657459 1.38991058 1.0625 1.5 C0.17304688 1.5309375 -0.71640625 1.561875 -1.6328125 1.59375 C-2.48359375 1.63242188 -3.334375 1.67109375 -4.2109375 1.7109375 C-5.38922119 1.75806885 -5.38922119 1.75806885 -6.59130859 1.80615234 C-8.79252939 1.9649465 -8.79252939 1.9649465 -10.5625 4.125 C-11.573125 4.29 -12.58375 4.455 -13.625 4.625 C-14.594375 4.79 -15.56375 4.955 -16.5625 5.125 C-16.8925 5.785 -17.2225 6.445 -17.5625 7.125 C-22.00116361 9.0272844 -25.76541909 9.31688324 -30.5625 9.125 C-30.8925 10.115 -31.2225 11.105 -31.5625 12.125 C-33.2125 12.125 -34.8625 12.125 -36.5625 12.125 C-27.61076144 1.32117759 -13.13112105 -0.22594914 0 0 Z " fill="#5FA753" transform="translate(165.5625,188.875)"/>
<path d="M0 0 C0.33 0 0.66 0 1 0 C1.33 11.22 1.66 22.44 2 34 C15.86 34.33 29.72 34.66 44 35 C44 35.33 44 35.66 44 36 C34.22856902 36.91658314 24.49919355 37.1094557 14.6875 37.125 C13.47666748 37.12951172 12.26583496 37.13402344 11.01831055 37.13867188 C9.88176025 37.13673828 8.74520996 37.13480469 7.57421875 37.1328125 C6.54901123 37.13168457 5.52380371 37.13055664 4.4675293 37.12939453 C2 37 2 37 0 36 C0 24.12 0 12.24 0 0 Z " fill="#86B17A" transform="translate(299,274)"/>
<path d="M0 0 C0.99 0 1.98 0 3 0 C2.73445313 1.03898438 2.46890625 2.07796875 2.1953125 3.1484375 C-0.57845504 14.06777014 -3.08966752 24.74062462 -4 36 C-4.33 36 -4.66 36 -5 36 C-5.495 38.475 -5.495 38.475 -6 41 C-6.33 41 -6.66 41 -7 41 C-7.02887814 37.52085059 -7.04675687 34.04173169 -7.0625 30.5625 C-7.07087891 29.56927734 -7.07925781 28.57605469 -7.08789062 27.55273438 C-7.09111328 26.60849609 -7.09433594 25.66425781 -7.09765625 24.69140625 C-7.10289307 23.81685791 -7.10812988 22.94230957 -7.11352539 22.04125977 C-7 20 -7 20 -6 19 C-5.855625 17.9275 -5.71125 16.855 -5.5625 15.75 C-5.07165009 12.47766726 -4.35790278 9.98738612 -3 7 C-2.67 7 -2.34 7 -2 7 C-1.34 4.69 -0.68 2.38 0 0 Z " fill="#469F35" transform="translate(74,212)"/>
<path d="M0 0 C1.9375 0.75 1.9375 0.75 4 2 C4.36162029 3.32594105 4.69728039 4.65938457 5 6 C5.99 6.33 6.98 6.66 8 7 C9.4375 8.25 9.4375 8.25 11 10 C11.680625 10.7425 12.36125 11.485 13.0625 12.25 C15 15 15 15 16 18.5625 C17.06982646 22.24002844 18.2182574 23.49643166 21 26 C21 26.66 21 27.32 21 28 C21.99 28 22.98 28 24 28 C23.34 29.32 22.68 30.64 22 32 C15.74802719 24.64814308 10.19808926 17.13613971 5 9 C4.46890625 8.175 3.9378125 7.35 3.390625 6.5 C0 1.16643258 0 1.16643258 0 0 Z " fill="#5CA34E" transform="translate(33,377)"/>
<path d="M0 0 C2.85477779 4.28216668 2.46137858 7.67885602 1.49414062 12.54492188 C0.79611173 15.4619048 0.03501704 18.35524966 -0.75 21.25 C-1.00265625 22.22324219 -1.2553125 23.19648438 -1.515625 24.19921875 C-3.30843736 30.94915728 -5.51012883 37.47647361 -8 44 C-8.33 44 -8.66 44 -9 44 C-9.125 37.25 -9.125 37.25 -8 35 C-8.19207031 34.23945313 -8.38414062 33.47890625 -8.58203125 32.6953125 C-9.11111396 29.2834707 -8.31724199 27.87739792 -6.6875 24.875 C-6.23761719 24.02679688 -5.78773438 23.17859375 -5.32421875 22.3046875 C-4.28461819 20.49535319 -3.15751192 18.73626788 -2 17 C-1.83286431 14.37468476 -1.83286431 14.37468476 -2 12 C-1.34 12 -0.68 12 0 12 C0 8.04 0 4.08 0 0 Z " fill="#67A958" transform="translate(493,291)"/>
<path d="M0 0 C6.18043356 0.5267415 11.27104597 1.98083526 17 4.3125 C17.75539063 4.60833984 18.51078125 4.90417969 19.2890625 5.20898438 C24.33840407 7.21744241 29.16893099 9.51309743 34 12 C30.61682513 12.97591583 28.4342662 12.85856655 25 12 C25 11.34 25 10.68 25 10 C23.58344207 9.9727585 22.16672955 9.95349533 20.75 9.9375 C19.96109375 9.92589844 19.1721875 9.91429687 18.359375 9.90234375 C16.09308998 9.99614694 14.1711105 10.36758937 12 11 C12 9.35 12 7.7 12 6 C11.01 6 10.02 6 9 6 C9 5.34 9 4.68 9 4 C4.545 3.01 4.545 3.01 0 2 C0 1.34 0 0.68 0 0 Z " fill="#6AAA5C" transform="translate(324,11)"/>
<path d="M0 0 C6.0546875 -0.1953125 6.0546875 -0.1953125 8 0 C8.66 0.66 9.32 1.32 10 2 C11.96690374 2.67292501 11.96690374 2.67292501 14.125 3.125 C15.40375 3.41375 16.6825 3.7025 18 4 C18 4.66 18 5.32 18 6 C26.25 6.33 34.5 6.66 43 7 C43 7.66 43 8.32 43 9 C28.33099529 9.31284607 15.39869314 8.80845645 2 2 C1.34 1.34 0.68 0.68 0 0 Z " fill="#85B978" transform="translate(136,302)"/>
<path d="M0 0 C0.99 0.33 1.98 0.66 3 1 C3.06993164 1.58378418 3.13986328 2.16756836 3.21191406 2.76904297 C4.71782677 16.58884441 4.71782677 16.58884441 9.1484375 29.6484375 C10.9166705 34.53135616 10.83859422 39.85115575 11 45 C9.16194326 42.24291489 8.44625447 40.51201382 7.59765625 37.38671875 C7.34838379 36.47470703 7.09911133 35.56269531 6.84228516 34.62304688 C6.58495605 33.65431641 6.32762695 32.68558594 6.0625 31.6875 C5.79743652 30.69943359 5.53237305 29.71136719 5.25927734 28.69335938 C-0.21584399 8.05817559 -0.21584399 8.05817559 0 0 Z " fill="#63A55A" transform="translate(2,287)"/>
<path d="M0 0 C-0.56847656 0.18175781 -1.13695312 0.36351562 -1.72265625 0.55078125 C-2.88087891 0.92783203 -2.88087891 0.92783203 -4.0625 1.3125 C-4.81660156 1.55613281 -5.57070312 1.79976563 -6.34765625 2.05078125 C-9.14049935 3.00714179 -9.14049935 3.00714179 -12.28515625 4.5078125 C-16.2184994 6.22076294 -20.15551098 6.90587602 -24.375 7.5625 C-26.95188873 7.96442115 -29.44988558 8.43231719 -32 9 C-32.33 9.66 -32.66 10.32 -33 11 C-35.31 10.67 -37.62 10.34 -40 10 C-37.442701 7.442701 -35.36752946 7.07416945 -31.890625 6.08984375 C-30.66085938 5.73986328 -29.43109375 5.38988281 -28.1640625 5.02929688 C-27.52114258 4.85003662 -26.87822266 4.67077637 -26.21582031 4.48608398 C-24.26927895 3.94288 -22.32591924 3.38933395 -20.3828125 2.83398438 C-4.64793596 -1.60890091 -4.64793596 -1.60890091 0 0 Z " fill="#7AB76D" transform="translate(202,5)"/>
<path d="M0 0 C1.90234375 0.71875 1.90234375 0.71875 4 2 C4.94140625 4.09375 4.94140625 4.09375 5.5625 6.5 C6.57550129 10.48327069 6.57550129 10.48327069 10 13 C10.51171875 16.0390625 10.51171875 16.0390625 10.6875 19.625 C10.78611328 21.40777344 10.78611328 21.40777344 10.88671875 23.2265625 C10.92410156 24.14179688 10.96148437 25.05703125 11 26 C7.41326739 21.95403893 5.38237788 17.85740582 3.3125 12.9375 C2.85133789 11.87692383 2.85133789 11.87692383 2.38085938 10.79492188 C-0.35762036 4.41312556 -0.35762036 4.41312556 -1 1 C-0.67 0.67 -0.34 0.34 0 0 Z " fill="#489A38" transform="translate(22,351)"/>
<path d="M0 0 C-1.20381448 2.49361571 -2.45428722 4.68143083 -4 7 C-5.32 7 -6.64 7 -8 7 C-8 7.66 -8 8.32 -8 9 C-9.41225926 9.67595315 -10.83002905 10.34040059 -12.25 11 C-13.43335938 11.556875 -13.43335938 11.556875 -14.640625 12.125 C-17 13 -17 13 -21 13 C-21 13.66 -21 14.32 -21 15 C-26.94 15.495 -26.94 15.495 -33 16 C-29.82653953 13.88435969 -27.05266949 12.94050587 -23.4375 11.75 C-16.23811344 9.28670794 -9.85506892 6.01396297 -3.8515625 1.3203125 C-2 0 -2 0 0 0 Z " fill="#62AB52" transform="translate(390,327)"/>
<path d="M0 0 C0 3.98279873 -1.50033467 4.94485349 -4 8 C-5.41294766 10.29603996 -6.70183049 12.63547697 -8 15 C-8.66 15 -9.32 15 -10 15 C-10 16.98 -10 18.96 -10 21 C-11.65 21.66 -13.3 22.32 -15 23 C-15 24.65 -15 26.3 -15 28 C-15.99 28.33 -16.98 28.66 -18 29 C-16.43681105 16.84975863 -8.35599625 8.35599625 0 0 Z " fill="#54A040" transform="translate(127,201)"/>
<path d="M0 0 C1 2 1 2 1 6 C0.39031953 7.68834592 -0.28837557 9.35202764 -1 11 C-1.74627933 13.10714163 -2.48807396 15.21551819 -3.21875 17.328125 C-4 19 -4 19 -6 20 C-6.165 20.66 -6.33 21.32 -6.5 22 C-6.665 22.66 -6.83 23.32 -7 24 C-7.66 24.33 -8.32 24.66 -9 25 C-10.13350534 27.01669827 -10.13350534 27.01669827 -11 29 C-12 27 -12 27 -11.25 24.453125 C-7.96393888 16.03259338 -4.16909454 8.01379267 0 0 Z " fill="#65AE57" transform="translate(27,132)"/>
<path d="M0 0 C-4.07507948 2.71671966 -8.3166233 3.73086839 -13 5.0625 C-14.41671997 5.46782959 -14.41671997 5.46782959 -15.86206055 5.88134766 C-22.21683403 7.64325112 -28.37108024 8.9689512 -35 9 C-30.98762085 4.85387487 -27.71178908 4.48801577 -22.20703125 4.2734375 C-19.79426207 4.20412881 -19.79426207 4.20412881 -18 2 C-15.13671875 1.3671875 -15.13671875 1.3671875 -11.6875 0.875 C-9.99173828 0.62363281 -9.99173828 0.62363281 -8.26171875 0.3671875 C-5.46572381 0.05242879 -2.80843941 -0.07376764 0 0 Z " fill="#73AA61" transform="translate(331,486)"/>
<path d="M0 0 C2.08631937 3.12947906 3.6800524 6.37536043 5.3125 9.75 C7.81756677 14.86009945 10.47991628 19.51989345 14 24 C13.67 24.66 13.34 25.32 13 26 C11.68 25.34 10.36 24.68 9 24 C9 23.34 9 22.68 9 22 C8.01 22.33 7.02 22.66 6 23 C5.82984375 22.15695312 5.6596875 21.31390625 5.484375 20.4453125 C5.24203125 19.34960938 4.9996875 18.25390625 4.75 17.125 C4.51796875 16.03445313 4.2859375 14.94390625 4.046875 13.8203125 C3.29504924 10.88101294 3.29504924 10.88101294 0.9453125 9.80078125 C-0.01761719 9.40439453 -0.01761719 9.40439453 -1 9 C-1.875 6.0625 -1.875 6.0625 -2 3 C-1.34 2.01 -0.68 1.02 0 0 Z " fill="#5FA952" transform="translate(75,282)"/>
<path d="M0 0 C0.66 0 1.32 0 2 0 C2.02465622 4.25414623 2.04283899 8.50825498 2.05493164 12.76245117 C2.05997101 14.21070073 2.06680253 15.65894517 2.07543945 17.10717773 C2.08752247 19.18474588 2.09323211 21.26224697 2.09765625 23.33984375 C2.10289307 24.59144287 2.10812988 25.84304199 2.11352539 27.13256836 C2 30 2 30 1 31 C0.87625 32.03125 0.7525 33.0625 0.625 34.125 C-0.04473892 38.2773813 -1.22550585 41.21955594 -3 45 C-4.52750322 41.94499356 -3.3855199 39.72727184 -2.625 36.4375 C-0.02942769 24.45072838 0.23784657 12.23588457 0 0 Z " fill="#67B059" transform="translate(428,234)"/>
<path d="M0 0 C0.33 0 0.66 0 1 0 C1.33 11.88 1.66 23.76 2 36 C-2.12692503 36.82538501 -4.68833795 37.05524508 -8.75 36.6875 C-9.71421875 36.60886719 -10.6784375 36.53023438 -11.671875 36.44921875 C-12.44015625 36.30097656 -13.2084375 36.15273438 -14 36 C-14.33 35.34 -14.66 34.68 -15 34 C-10.05 34 -5.1 34 0 34 C0 22.78 0 11.56 0 0 Z " fill="#97C984" transform="translate(179,311)"/>
<path d="M0 0 C0.33 0.66 0.66 1.32 1 2 C2.65 2 4.3 2 6 2 C6 2.66 6 3.32 6 4 C6.66 4 7.32 4 8 4 C8 4.66 8 5.32 8 6 C10.64 6 13.28 6 16 6 C16 6.66 16 7.32 16 8 C16.763125 8.20625 17.52625 8.4125 18.3125 8.625 C21.82229103 10.42070704 22.52599781 12.43136312 24 16 C19.21221923 14.35420036 15.23842293 11.70087603 11 9 C5.88924544 5.76736237 0.79400557 3.73426017 -5 2 C-5 1.67 -5 1.34 -5 1 C-3.35 0.67 -1.7 0.34 0 0 Z " fill="#71B15D" transform="translate(367,157)"/>
<path d="M0 0 C0.61875 0.639375 1.2375 1.27875 1.875 1.9375 C5.34253062 5.41499479 9.02914156 8.64905312 12.6953125 11.9140625 C14.51151385 13.55787864 16.26784544 15.26784544 18 17 C14.7 17 11.4 17 8 17 C8.33 15.35 8.66 13.7 9 12 C7.88625 11.690625 7.88625 11.690625 6.75 11.375 C3.13695482 9.56847741 1.90065681 7.51973484 0 4 C0 2.68 0 1.36 0 0 Z " fill="#57A445" transform="translate(89,308)"/>
<path d="M0 0 C-0.99 0.495 -0.99 0.495 -2 1 C-2 1.66 -2 2.32 -2 3 C-4.01822917 2.96744792 -6.03645833 2.93489583 -8.0546875 2.90234375 C-10.08185404 2.87350758 -10.08185404 2.87350758 -12 4 C-13.37548156 4.08308638 -14.75485796 4.10736016 -16.1328125 4.09765625 C-16.93847656 4.09443359 -17.74414062 4.09121094 -18.57421875 4.08789062 C-19.41597656 4.07951172 -20.25773438 4.07113281 -21.125 4.0625 C-21.97449219 4.05798828 -22.82398438 4.05347656 -23.69921875 4.04882812 C-25.79950909 4.03702874 -27.8997633 4.01909306 -30 4 C-20.50455872 -0.98877489 -10.40132097 -0.21495267 0 0 Z " fill="#60AB52" transform="translate(232,0)"/>
<path d="M0 0 C0 0.99 0 1.98 0 3 C-15.18 3 -30.36 3 -46 3 C-41.69979813 0.84989906 -38.36714887 0.55960248 -33.6875 0.375 C-32.87240967 0.33705322 -32.05731934 0.29910645 -31.2175293 0.26000977 C-20.81730089 -0.17060715 -10.40654102 -0.0912485 0 0 Z " fill="#398E26" transform="translate(199,189)"/>
<path d="M0 0 C0.93423645 3.01031744 1.04449911 3.86650268 0 7 C-0.33293704 11.96467878 0.0676704 16.75413854 0.77734375 21.671875 C1.26391843 26.75956814 1.07004296 31.89464628 1 37 C-4.99349184 28.00976224 -3.47263808 15.45771802 -1.53515625 5.3828125 C-1 3 -1 3 0 0 Z " fill="#76B563" transform="translate(108,230)"/>
<path d="M0 0 C12.87 0 25.74 0 39 0 C39 0.33 39 0.66 39 1 C38.14172607 1.029729 38.14172607 1.029729 37.26611328 1.06005859 C26.36843193 1.45384584 15.5504702 1.98469066 4.72509766 3.33935547 C1.12410483 3.7881011 -2.36962741 4.10615125 -6 4 C-6 3.34 -6 2.68 -6 2 C-4.02 1.67 -2.04 1.34 0 1 C0 0.67 0 0.34 0 0 Z " fill="#92C086" transform="translate(150,152)"/>
<path d="M0 0 C-7.33584851 4.22743812 -17.70204603 4.66918984 -26 4 C-27.7421875 2.48046875 -27.7421875 2.48046875 -29 1 C-25.48045746 0.6321522 -21.95928042 0.28320992 -18.4375 -0.0625 C-17.44685547 -0.16626953 -16.45621094 -0.27003906 -15.43554688 -0.37695312 C-10.05496201 -0.89534834 -5.30869305 -1.06471684 0 0 Z " fill="#529D44" transform="translate(295,495)"/>
<path d="M0 0 C2.64 0 5.28 0 8 0 C5.05740921 3.14480675 1.99939466 5.49230126 -1.625 7.8125 C-2.58664062 8.43769531 -3.54828125 9.06289063 -4.5390625 9.70703125 C-5.35117187 10.13371094 -6.16328125 10.56039063 -7 11 C-9 10 -9 10 -10 8 C-9.01 7.67 -8.02 7.34 -7 7 C-7 6.34 -7 5.68 -7 5 C-6.34 4.67 -5.68 4.34 -5 4 C-4.34 3.01 -3.68 2.02 -3 1 C-2.01 1.33 -1.02 1.66 0 2 C0 1.34 0 0.68 0 0 Z " fill="#339622" transform="translate(384,455)"/>
<path d="M0 0 C3.63571341 3.3188393 6.13932359 7.00064151 8.75 11.125 C9.16121094 11.75792969 9.57242187 12.39085938 9.99609375 13.04296875 C13 17.74343335 13 17.74343335 13 20 C12.34 20 11.68 20 11 20 C11 19.34 11 18.68 11 18 C10.360625 17.896875 9.72125 17.79375 9.0625 17.6875 C8.0415625 17.3471875 8.0415625 17.3471875 7 17 C6.67 16.01 6.34 15.02 6 14 C5.01 13.34 4.02 12.68 3 12 C1.661886 8.05999767 0.7438151 4.09098304 0 0 Z " fill="#75B167" transform="translate(453,103)"/>
<path d="M0 0 C0.33 0.66 0.66 1.32 1 2 C-0.109375 4.56640625 -0.109375 4.56640625 -1.75 7.5625 C-2.54664063 9.04943359 -2.54664063 9.04943359 -3.359375 10.56640625 C-5 13 -5 13 -8 14 C-8 14.99 -8 15.98 -8 17 C-9.98 17.99 -11.96 18.98 -14 20 C-11.23864281 12.56658348 -6.83495791 6.33481866 -1 1 C-0.67 0.67 -0.34 0.34 0 0 Z " fill="#64AF53" transform="translate(54,92)"/>
<path d="M0 0 C1.94158017 3.51624755 2.18311068 5.9715651 2 10 C1.01 10.33 0.02 10.66 -1 11 C-1 14.96 -1 18.92 -1 23 C-1.66 23 -2.32 23 -3 23 C-3 25.97 -3 28.94 -3 32 C-3.33 32 -3.66 32 -4 32 C-4.65328389 20.7127061 -2.76263948 10.87789296 0 0 Z " fill="#7CB868" transform="translate(4,198)"/>
<path d="M0 0 C0.33 0 0.66 0 1 0 C1.02578125 0.88300781 1.0515625 1.76601563 1.078125 2.67578125 C1.46415215 10.84376476 2.77101782 17.50632438 6 25 C6.66946148 26.66554602 7.33692351 28.33190174 8 30 C4.63061102 28.87687034 3.46825907 27.46825907 1 25 C-0.00005304 21.99984088 -0.11575585 20.02576244 -0.09765625 16.89453125 C-0.09443359 15.91162109 -0.09121094 14.92871094 -0.08789062 13.91601562 C-0.07951172 12.89185547 -0.07113281 11.86769531 -0.0625 10.8125 C-0.05798828 9.77673828 -0.05347656 8.74097656 -0.04882812 7.67382812 C-0.0370401 5.11582734 -0.02058515 2.55794267 0 0 Z " fill="#539B43" transform="translate(199,369)"/>
<path d="M0 0 C4.94912834 2.70753841 9.43033751 5.65775171 13.875 9.125 C14.45507812 9.56714844 15.03515625 10.00929688 15.6328125 10.46484375 C19.87141369 13.74282738 19.87141369 13.74282738 21 16 C20.01 16 19.02 16 18 16 C17.67 16.66 17.34 17.32 17 18 C17 16.35 17 14.7 17 13 C14.69 12.67 12.38 12.34 10 12 C10.33 11.01 10.66 10.02 11 9 C9.35 9 7.7 9 6 9 C6 8.34 6 7.68 6 7 C4.68 6.67 3.36 6.34 2 6 C2 4.68 2 3.36 2 2 C1.34 2 0.68 2 0 2 C0 1.34 0 0.68 0 0 Z " fill="#77B26B" transform="translate(387,40)"/>
<path d="M0 0 C1.32 0.33 2.64 0.66 4 1 C4 2.32 4 3.64 4 5 C4.66 5 5.32 5 6 5 C6.0825 5.78375 6.165 6.5675 6.25 7.375 C6.72806339 10.14749104 6.72806339 10.14749104 9.0625 11.3125 C9.701875 11.539375 10.34125 11.76625 11 12 C11 13.65 11 15.3 11 17 C11.66 17.33 12.32 17.66 13 18 C12.67 18.99 12.34 19.98 12 21 C0 6.14893617 0 6.14893617 0 0 Z " fill="#56A743" transform="translate(109,270)"/>
<path d="M0 0 C0.33 0 0.66 0 1 0 C0.50582751 7.41258741 0.50582751 7.41258741 -1.9375 10.25 C-2.618125 10.8275 -3.29875 11.405 -4 12 C-5.23512079 14.13309192 -5.23512079 14.13309192 -6 16 C-6.99 16 -7.98 16 -9 16 C-9.33 17.32 -9.66 18.64 -10 20 C-10.33 19.34 -10.66 18.68 -11 18 C-8.16049903 11.56308614 -4.31185784 5.54381722 0 0 Z " fill="#5DAC4B" transform="translate(39,112)"/>
<path d="M0 0 C8.06331174 -0.32911476 14.60462993 2.14564664 22 5 C22 5.66 22 6.32 22 7 C22.66 7.33 23.32 7.66 24 8 C15.4682459 6.85445386 7.93110647 4.30357694 0 1 C0 0.67 0 0.34 0 0 Z " fill="#6CA65C" transform="translate(160,483)"/>
<path d="M0 0 C-0.33 1.32 -0.66 2.64 -1 4 C-1.66 4 -2.32 4 -3 4 C-3 4.66 -3 5.32 -3 6 C-2.05125 6.226875 -1.1025 6.45375 -0.125 6.6875 C3 8 3 8 4.125 10.5 C4.41375 11.325 4.7025 12.15 5 13 C7.01735205 14.34410262 7.01735205 14.34410262 9 15 C5.45461793 15 4.29774912 14.1731118 1.375 12.25 C0.57835938 11.73953125 -0.21828125 11.2290625 -1.0390625 10.703125 C-3.2746811 8.76143235 -3.37890878 7.78905114 -4 5 C-4.99 4.67 -5.98 4.34 -7 4 C-7 3.34 -7 2.68 -7 2 C-4.35261084 0.5393715 -3.10551666 0 0 0 Z " fill="#369925" transform="translate(111,448)"/>
<path d="M0 0 C5.98478838 5.98478838 5.86672669 18.02410493 6 26 C5.8234 28.73524656 5.47708379 31.2965252 5 34 C4.67 34 4.34 34 4 34 C3.96261719 33.07960938 3.92523438 32.15921875 3.88671875 31.2109375 C3.47108501 23.20795054 2.52213512 15.82771261 0.62109375 8.0234375 C0.04975578 5.24220737 -0.12083738 2.82654395 0 0 Z " fill="#70AA68" transform="translate(388,225)"/>
<path d="M0 0 C1.98 0 3.96 0 6 0 C5.34 1.65 4.68 3.3 4 5 C3.34 5 2.68 5 2 5 C1.896875 5.70125 1.79375 6.4025 1.6875 7.125 C0.90640997 10.39137647 -0.42058743 13.0471852 -2 16 C-3.125 12.25 -3.125 12.25 -2 10 C-2.66 10 -3.32 10 -4 10 C-3.42655063 7.13275314 -3.1385485 6.1385485 -1 4 C-0.3574765 1.93125966 -0.3574765 1.93125966 0 0 Z " fill="#5DA749" transform="translate(80,196)"/>
<path d="M0 0 C1.07174763 3.65188082 0.76411467 6.26432828 0 10 C-0.66 10 -1.32 10 -2 10 C-1.98839844 10.60328125 -1.97679687 11.2065625 -1.96484375 11.828125 C-1.95130859 13.02695313 -1.95130859 13.02695313 -1.9375 14.25 C-1.92589844 15.03890625 -1.91429687 15.8278125 -1.90234375 16.640625 C-1.99614694 18.90691002 -2.36758937 20.8288895 -3 23 C-3.99 23 -4.98 23 -6 23 C-6 24.98 -6 26.96 -6 29 C-6.66 29 -7.32 29 -8 29 C-6.36559954 19.0301572 -3.13564949 9.57803752 0 0 Z " fill="#87BD7B" transform="translate(14,161)"/>
<path d="M0 0 C1.65 0 3.3 0 5 0 C1.52347961 2.96082171 -2.35678468 4.5449593 -6.5625 6.1875 C-7.23474609 6.46013672 -7.90699219 6.73277344 -8.59960938 7.01367188 C-11.54666423 8.18137285 -13.80156144 9 -17 9 C-17.33 8.01 -17.66 7.02 -18 6 C-15 4 -15 4 -11.8125 4.375 C-10.884375 4.58125 -9.95625 4.7875 -9 5 C-9 4.34 -9 3.68 -9 3 C-4.545 2.505 -4.545 2.505 0 2 C0 1.34 0 0.68 0 0 Z " fill="#6CAB5C" transform="translate(348,477)"/>
<path d="M0 0 C3.93370357 0.56195765 6.83175607 1.55592611 10 4 C10 5.32 10 6.64 10 8 C11.42621684 10.71126384 11.42621684 10.71126384 13 13 C12.01 14.485 12.01 14.485 11 16 C10.54109375 15.26394531 10.0821875 14.52789062 9.609375 13.76953125 C8.99578125 12.79371094 8.3821875 11.81789062 7.75 10.8125 C6.84507812 9.36810547 6.84507812 9.36810547 5.921875 7.89453125 C4.08362455 5.12594673 2.11574051 2.56042049 0 0 Z " fill="#7CB66F" transform="translate(404,185)"/>
<path d="M0 0 C7.42857143 1 7.42857143 1 11 2 C9.18808118 3.81191882 6.27648701 3.4723513 3.8125 3.71875 C1.9832467 3.81998043 1.9832467 3.81998043 1 5 C0.84111908 7.28988781 0.74861927 9.58443441 0.68359375 11.87890625 C0.66281265 12.5655687 0.64203156 13.25223114 0.62062073 13.95970154 C0.55505857 16.16052935 0.49620985 18.36147975 0.4375 20.5625 C0.39432108 22.05144514 0.350707 23.54037773 0.30664062 25.02929688 C0.1993707 28.68606553 0.09812228 32.34297318 0 36 C-0.33 36 -0.66 36 -1 36 C-1.02468447 31.19450253 -1.04285255 26.38904182 -1.05493164 21.58349609 C-1.05996621 19.94807289 -1.06679427 18.3126542 -1.07543945 16.67724609 C-1.08754335 14.32909025 -1.093237 11.98099381 -1.09765625 9.6328125 C-1.10281754 8.89942657 -1.10797882 8.16604065 -1.11329651 7.41043091 C-1.11387171 2.22774341 -1.11387171 2.22774341 0 0 Z " fill="#3D922E" transform="translate(318,149)"/>
<path d="M0 0 C5.86296195 4.57935489 11.59419615 9.78258845 14 17 C13.34 17.66 12.68 18.32 12 19 C12 18.34 12 17.68 12 17 C11.38125 16.7525 10.7625 16.505 10.125 16.25 C7.62181694 14.77753937 7.16954719 13.58971163 6 11 C5.34 10.67 4.68 10.34 4 10 C3.27306096 8.02111039 2.60183749 6.02045442 2 4 C1.34 4 0.68 4 0 4 C0 2.68 0 1.36 0 0 Z " fill="#5AA14A" transform="translate(439,86)"/>
<path d="M0 0 C2.87700687 4.31551031 3.83371517 8.96512796 5.1875 13.9375 C5.47302734 14.93974609 5.75855469 15.94199219 6.05273438 16.97460938 C6.31763672 17.94076172 6.58253906 18.90691406 6.85546875 19.90234375 C7.22128052 21.22480103 7.22128052 21.22480103 7.59448242 22.57397461 C8.01571179 25.09399642 7.81451868 26.6037633 7 29 C1.82695277 19.39291228 0.44864568 10.87579014 0 0 Z " fill="#6EA965" transform="translate(486,167)"/>
<path d="M0 0 C0 0.33 0 0.66 0 1 C-2.97 1 -5.94 1 -9 1 C-9 1.99 -9 2.98 -9 4 C-10.91405367 4.67413211 -12.83136026 5.3390332 -14.75 6 C-15.81734375 6.37125 -16.8846875 6.7425 -17.984375 7.125 C-21 8 -21 8 -25 8 C-25 7.34 -25 6.68 -25 6 C-24.36191406 5.80664062 -23.72382813 5.61328125 -23.06640625 5.4140625 C-22.24011719 5.15367187 -21.41382813 4.89328125 -20.5625 4.625 C-19.73878906 4.36976563 -18.91507813 4.11453125 -18.06640625 3.8515625 C-15.82201984 3.19117773 -15.82201984 3.19117773 -15 1 C-9.53161743 -1.12039324 -5.74662919 -1.00818056 0 0 Z " fill="#5CA349" transform="translate(153,153)"/>
<path d="M0 0 C0.66 0.33 1.32 0.66 2 1 C-0.53493511 9.4497837 -4.52413963 16.13692167 -10 23 C-10.66 21.68 -11.32 20.36 -12 19 C-11.01 19 -10.02 19 -9 19 C-9 18.01 -9 17.02 -9 16 C-8.34 16 -7.68 16 -7 16 C-7 14.68 -7 13.36 -7 12 C-6.01 12 -5.02 12 -4 12 C-4.061875 11.236875 -4.12375 10.47375 -4.1875 9.6875 C-3.96301146 6.46983093 -3.28301597 6.10037469 -1 4 C-0.28552357 1.89667109 -0.28552357 1.89667109 0 0 Z " fill="#78AF66" transform="translate(387,269)"/>
<path d="M0 0 C0.33 0.66 0.66 1.32 1 2 C-1.69593589 9.70267397 -5.86931967 12.41180509 -13 16 C-13.763125 16.38414062 -14.52625 16.76828125 -15.3125 17.1640625 C-16.1478125 17.57785156 -16.1478125 17.57785156 -17 18 C-14.64309231 14.75925192 -12.09939798 12.14587257 -9.0625 9.5625 C-5.6094545 6.61934346 -2.78856263 3.57284587 0 0 Z " fill="#77B567" transform="translate(407,309)"/>
<path d="M0 0 C-2 2 -2 2 -3.875 2.375 C-6.1700079 2.84882088 -6.1700079 2.84882088 -7.75 4.9375 C-10.10504817 7.09629416 -11.11028533 7.4447846 -14.125 8.125 C-17.99165636 8.63566103 -17.99165636 8.63566103 -20 11 C-20.66 10.34 -21.32 9.68 -22 9 C-19.09465435 7.29241747 -16.17416582 5.61261646 -13.25 3.9375 C-12.0125 3.20950195 -12.0125 3.20950195 -10.75 2.46679688 C-9.95078125 2.01240234 -9.1515625 1.55800781 -8.328125 1.08984375 C-7.5949707 0.66566162 -6.86181641 0.24147949 -6.10644531 -0.19555664 C-3.61993956 -1.14514362 -2.46152694 -0.89753304 0 0 Z " fill="#70B061" transform="translate(144,24)"/>
<path d="M0 0 C0.99 0 1.98 0 3 0 C2.3808361 2.584859 1.75492318 5.16776172 1.125 7.75 C0.95097656 8.47960937 0.77695313 9.20921875 0.59765625 9.9609375 C-0.27908598 13.53285028 -1.12686823 16.79373841 -3 20 C-4.52791854 12.23308076 -3.13590328 7.20046461 0 0 Z " fill="#6EB662" transform="translate(74,212)"/>
<path d="M0 0 C4.12575442 0.08182791 8.25013174 0.19458305 12.375 0.3125 C14.10943359 0.34633789 14.10943359 0.34633789 15.87890625 0.38085938 C23.04000436 0.60337937 29.26866373 1.50965567 36 4 C36 4.33 36 4.66 36 5 C32.69749223 5.16109794 30.16439612 5.05308625 27 4.03125 C21.94880144 2.52384876 16.7981105 2.53850638 11.5625 2.375 C10.54478516 2.33632812 9.52707031 2.29765625 8.47851562 2.2578125 C5.98585064 2.16419128 3.4931805 2.07846007 1 2 C0.67 1.34 0.34 0.68 0 0 Z " fill="#6AA25E" transform="translate(319,188)"/>
<path d="M0 0 C0.89234179 2.48946307 1.08442558 3.72666635 0.29296875 6.2890625 C-0.25423828 7.44535156 -0.25423828 7.44535156 -0.8125 8.625 C-1.16957031 9.40101563 -1.52664063 10.17703125 -1.89453125 10.9765625 C-3 13 -3 13 -5 15 C-5.33 14.67 -5.66 14.34 -6 14 C-6.66 14.66 -7.32 15.32 -8 16 C-7.49287967 12.28111761 -6.88391785 9.26545761 -5 6 C-4.34 6 -3.68 6 -3 6 C-2.690625 5.38125 -2.38125 4.7625 -2.0625 4.125 C-1.375 2.75 -0.6875 1.375 0 0 Z " fill="#50A040" transform="translate(482,337)"/>
<path d="M0 0 C0.33 0 0.66 0 1 0 C1.50787046 2.99885414 2.00646625 5.99878126 2.5 9 C2.64308594 9.83917969 2.78617187 10.67835938 2.93359375 11.54296875 C3.78480242 16.77182201 4.14714583 21.70275027 4 27 C3.34 27 2.68 27 2 27 C1.96261719 26.16597656 1.92523438 25.33195312 1.88671875 24.47265625 C1.51859754 18.17128731 0.93392339 12.6650431 -1.4765625 6.8046875 C-2.25229585 4.13014414 -1.20149822 2.40299643 0 0 Z " fill="#6EAF61" transform="translate(494,198)"/>
<path d="M0 0 C1.32 0.33 2.64 0.66 4 1 C5.1875 3.9375 5.1875 3.9375 6 7 C6.33 7.66 6.66 8.32 7 9 C6.67 9.99 6.34 10.98 6 12 C6.66 12.33 7.32 12.66 8 13 C8 16.3 8 19.6 8 23 C7.67 23 7.34 23 7 23 C6.66127487 21.58461283 6.32925376 20.16762037 6 18.75 C5.814375 17.96109375 5.62875 17.1721875 5.4375 16.359375 C5 14 5 14 5 10 C4.34 10 3.68 10 3 10 C2.01 6.7 1.02 3.4 0 0 Z " fill="#339424" transform="translate(294,105)"/>
<path d="M0 0 C1.31471568 0.28151087 2.62675767 0.57553339 3.9375 0.875 C4.66839844 1.03742188 5.39929688 1.19984375 6.15234375 1.3671875 C8 2 8 2 9 4 C9.99 4 10.98 4 12 4 C12 4.99 12 5.98 12 7 C12.66 7.33 13.32 7.66 14 8 C13.34 9.32 12.68 10.64 12 12 C8 8 4 4 0 0 Z " fill="#85BA7A" transform="translate(391,173)"/>
<path d="M0 0 C0.66 0.33 1.32 0.66 2 1 C2 1.99 2 2.98 2 4 C1.01 4 0.02 4 -1 4 C-1 4.66 -1 5.32 -1 6 C-2.32 6 -3.64 6 -5 6 C-5.04125 6.61875 -5.0825 7.2375 -5.125 7.875 C-6 10 -6 10 -8.875 11.25 C-12 12 -12 12 -15 12 C-13.25084555 10.56147125 -11.50064205 9.12421802 -9.75 7.6875 C-8.77546875 6.88699219 -7.8009375 6.08648437 -6.796875 5.26171875 C-4.5633738 3.45557742 -2.31312737 1.70180085 0 0 Z " fill="#74B665" transform="translate(106,43)"/>
<path d="M0 0 C-1.3922459 4.62675657 -3.29520984 8.64686231 -5.625 12.875 C-6.25664062 14.02742188 -6.88828125 15.17984375 -7.5390625 16.3671875 C-8.02117187 17.23601562 -8.50328125 18.10484375 -9 19 C-9.33 17.68 -9.66 16.36 -10 15 C-9.34 15 -8.68 15 -8 15 C-8.061875 13.700625 -8.061875 13.700625 -8.125 12.375 C-7.95565566 7.80270285 -7.42144034 4.33260032 -4 1.125 C-2 0 -2 0 0 0 Z " fill="#6CAD5B" transform="translate(477,354)"/>
<path d="M0 0 C0.66 0 1.32 0 2 0 C5.70088212 7.62553851 6.73559871 14.56559869 7 23 C5.30530575 20.45795863 4.54237151 18.92399177 3.7109375 16.09375 C3.49179688 15.34996094 3.27265625 14.60617187 3.046875 13.83984375 C2.82515625 13.06769531 2.6034375 12.29554688 2.375 11.5 C2.14554688 10.72785156 1.91609375 9.95570313 1.6796875 9.16015625 C0.74641777 5.95481913 0 3.36298779 0 0 Z " fill="#7DB470" transform="translate(6,309)"/>
<path d="M0 0 C-13.59232523 6.22226444 -13.59232523 6.22226444 -17.375 5.625 C-17.91125 5.41875 -18.4475 5.2125 -19 5 C-16.3125231 1.46958754 -13.14790278 1.10340118 -8.9375 0.25 C-7.68839844 -0.01296875 -6.43929688 -0.2759375 -5.15234375 -0.546875 C-2 -1 -2 -1 0 0 Z " fill="#70AD61" transform="translate(362,303)"/>
<path d="M0 0 C0.33 0 0.66 0 1 0 C1.69951063 2.413762 2.38483919 4.83010234 3.0625 7.25 C3.26166016 7.93191406 3.46082031 8.61382812 3.66601562 9.31640625 C5.40009269 15.58342161 5.40009269 15.58342161 4 19 C3.34 19 2.68 19 2 19 C2 18.01 2 17.02 2 16 C1.34 16 0.68 16 0 16 C0 10.72 0 5.44 0 0 Z " fill="#63A855" transform="translate(70,263)"/>
<path d="M0 0 C2.8125 0.1875 2.8125 0.1875 6 1 C7.6875 3.4375 7.6875 3.4375 9 6 C9.99 6.66 10.98 7.32 12 8 C12.1875 10.625 12.1875 10.625 12 13 C7.44690546 9.42256858 3.50767896 5.62715097 0 1 C0 0.67 0 0.34 0 0 Z " fill="#7EB671" transform="translate(56,409)"/>
<path d="M0 0 C0.66 0 1.32 0 2 0 C1.125 3.875 1.125 3.875 0 5 C-0.1546875 6.794375 -0.1546875 6.794375 -0.3125 8.625 C-0.80934516 13.21253694 -2.51451362 16.15150496 -5 20 C-5.33 20 -5.66 20 -6 20 C-6 18.35 -6 16.7 -6 15 C-5.34 15 -4.68 15 -4 15 C-3.96261719 14.33613281 -3.92523438 13.67226562 -3.88671875 12.98828125 C-3.20615582 3.84738698 -3.20615582 3.84738698 0 0 Z " fill="#389526" transform="translate(18,156)"/>
<path d="M0 0 C4.88049925 3.9419417 9.0580583 8.11950075 13 13 C11.68 13.33 10.36 13.66 9 14 C8.67 13.34 8.34 12.68 8 12 C8.33 11.34 8.66 10.68 9 10 C8.071875 9.7525 7.14375 9.505 6.1875 9.25 C2.79442422 7.91938205 1.68048479 7.17424904 0 4 C0 2.68 0 1.36 0 0 Z " fill="#80B573" transform="translate(426,72)"/>
<path d="M0 0 C-4.26311718 4.12989477 -7.28758534 4.61271765 -13 5 C-13.33 6.32 -13.66 7.64 -14 9 C-15.65 9 -17.3 9 -19 9 C-14.74011809 3.85876321 -6.80233177 -2.26744392 0 0 Z " fill="#86BE77" transform="translate(148,192)"/>
<path d="M0 0 C-4.62048376 3.72619658 -9.30982806 7.36230673 -14 11 C-14.33 10.01 -14.66 9.02 -15 8 C-14.195625 7.21625 -13.39125 6.4325 -12.5625 5.625 C-10.01309583 3.28017144 -10.01309583 3.28017144 -9 1 C-5.8035914 -0.06546953 -3.34252724 -0.07427838 0 0 Z " fill="#6CAD5D" transform="translate(114,169)"/>
<path d="M0 0 C2.25071906 0.0872605 4.50063388 0.19544115 6.75 0.3125 C8.62945312 0.39951172 8.62945312 0.39951172 10.546875 0.48828125 C14 1 14 1 18 4 C12.72 4 7.44 4 2 4 C2 3.34 2 2.68 2 2 C1.34 2 0.68 2 0 2 C0 1.34 0 0.68 0 0 Z " fill="#379323" transform="translate(182,488)"/>
<path d="M0 0 C-2.92903058 2.33364352 -5.88568203 4.04960836 -9.25 5.6875 C-10.58804688 6.34298828 -10.58804688 6.34298828 -11.953125 7.01171875 C-12.62859375 7.33785156 -13.3040625 7.66398438 -14 8 C-14.33 7.01 -14.66 6.02 -15 5 C-14.01 5 -13.02 5 -12 5 C-11.773125 4.38125 -11.54625 3.7625 -11.3125 3.125 C-8.55845693 -1.33392688 -4.68171731 -1.33763352 0 0 Z " fill="#67AE55" transform="translate(128,161)"/>
<path d="M0 0 C0 0.66 0 1.32 0 2 C-6.93 2 -13.86 2 -21 2 C-20.67 1.34 -20.34 0.68 -20 0 C-13.24137296 -1.40273391 -6.82045612 -0.73888275 0 0 Z " fill="#92C486" transform="translate(340,152)"/>
<path d="M0 0 C2.33333333 0.33333333 4.66666667 0.66666667 7 1 C8.134375 1.103125 9.26875 1.20625 10.4375 1.3125 C14.77231628 2.14904349 18.1721396 3.86236368 22 6 C18.61682513 6.97591583 16.4342662 6.85856655 13 6 C13 5.34 13 4.68 13 4 C11.58344207 3.9727585 10.16672955 3.95349533 8.75 3.9375 C7.96109375 3.92589844 7.1721875 3.91429687 6.359375 3.90234375 C4.09308998 3.99614694 2.1711105 4.36758937 0 5 C0 3.35 0 1.7 0 0 Z " fill="#59A44A" transform="translate(336,17)"/>
<path d="M0 0 C0.515625 0.268125 1.03125 0.53625 1.5625 0.8125 C4.10979117 2.11117536 4.10979117 2.11117536 7.375 3.1875 C11.74634585 5.00023953 14.22223095 8.28613296 17 12 C12.98608699 12 10.98163495 10.03895754 7.9375 7.6875 C7.39544922 7.28337891 6.85339844 6.87925781 6.29492188 6.46289062 C3.64514252 4.44853426 1.86487029 2.79730543 0 0 Z " fill="#95C18C" transform="translate(91,443)"/>
<path d="M0 0 C0.66 0 1.32 0 2 0 C1.66700329 3.01735794 1.01183726 3.98855941 -1.21484375 6.140625 C-2.56255859 7.18476563 -2.56255859 7.18476563 -3.9375 8.25 C-4.83339844 8.95640625 -5.72929687 9.6628125 -6.65234375 10.390625 C-9 12 -9 12 -11 12 C-11.33 11.01 -11.66 10.02 -12 9 C-11.01 9 -10.02 9 -9 9 C-9 8.34 -9 7.68 -9 7 C-8.01 7 -7.02 7 -6 7 C-6 6.34 -6 5.68 -6 5 C-5.01 5 -4.02 5 -3 5 C-2.67 4.01 -2.34 3.02 -2 2 C-1.34 2 -0.68 2 0 2 C0 1.34 0 0.68 0 0 Z " fill="#7FB572" transform="translate(412,436)"/>
<path d="M0 0 C0.66 0 1.32 0 2 0 C2 1.65 2 3.3 2 5 C2.99 5.33 3.98 5.66 5 6 C5 7.65 5 9.3 5 11 C5.66 11 6.32 11 7 11 C7 11.99 7 12.98 7 14 C7.66 14.33 8.32 14.66 9 15 C8.67 16.65 8.34 18.3 8 20 C5.25942675 16.72899322 3.81941925 13.41522379 2.3125 9.4375 C1.87550781 8.30183594 1.43851563 7.16617187 0.98828125 5.99609375 C0 3 0 3 0 0 Z " fill="#78B168" transform="translate(13,332)"/>
<path d="M0 0 C3.6739599 3.37607126 6.05406554 6.39120786 8 11 C8 11.66 8 12.32 8 13 C6.25 12.875 6.25 12.875 4 12 C1.30729915 8.78371843 0.06229107 6.84092949 -0.25 2.625 C-0.12625 1.325625 -0.12625 1.325625 0 0 Z " fill="#60A550" transform="translate(380,212)"/>
<path d="M0 0 C6.16356805 1.6658292 11.48259656 4.87805286 17 8 C17 8.99 17 9.98 17 11 C15.35 10.67 13.7 10.34 12 10 C12 9.34 12 8.68 12 8 C11.319375 7.7525 10.63875 7.505 9.9375 7.25 C6.43134917 5.75802092 3.28379632 3.93164489 0 2 C0 1.34 0 0.68 0 0 Z " fill="#76B267" transform="translate(358,24)"/>
<path d="M0 0 C-0.56847656 0.18175781 -1.13695312 0.36351562 -1.72265625 0.55078125 C-5.48711406 1.77627252 -9.15576986 3.0213006 -12.75 4.6875 C-15.83509755 5.93340478 -17.72858144 6.29740169 -21 6 C-20.01 5.34 -19.02 4.68 -18 4 C-18 3.34 -18 2.68 -18 2 C-15.75256955 1.46818825 -13.50192898 0.94992874 -11.25 0.4375 C-9.99703125 0.14746094 -8.7440625 -0.14257812 -7.453125 -0.44140625 C-4.40526252 -0.93444283 -2.82358172 -1.07666879 0 0 Z " fill="#6DAF61" transform="translate(202,5)"/>
<path d="M0 0 C0.66 0.33 1.32 0.66 2 1 C0.56691865 4.95906817 -1.33141949 8.28718181 -3.625 11.8125 C-4.57246094 13.27623047 -4.57246094 13.27623047 -5.5390625 14.76953125 C-6.26222656 15.87361328 -6.26222656 15.87361328 -7 17 C-8.125 13.25 -8.125 13.25 -7 11 C-6.34 11 -5.68 11 -5 11 C-4.9175 10.113125 -4.835 9.22625 -4.75 8.3125 C-3.9065914 4.58744536 -2.54447236 2.79071162 0 0 Z " fill="#75A960" transform="translate(464,374)"/>
<path d="M0 0 C5.71937959 1.85493392 11.35555275 3.93103891 17 6 C13.4340857 7.96350977 11.96420709 8.03824471 8 7 C6.00102872 6.66055205 4.00124361 6.32578384 2 6 C2.33 4.68 2.66 3.36 3 2 C1.68 1.67 0.36 1.34 -1 1 C-0.67 0.67 -0.34 0.34 0 0 Z " fill="#6DB25A" transform="translate(120,334)"/>
<path d="M0 0 C2.20272234 3.30408351 2.93200726 6.19527586 4 10 C4.37125 10.680625 4.7425 11.36125 5.125 12.0625 C6.33548424 14.74285795 6.13186705 17.09892496 6 20 C5.67 19.34 5.34 18.68 5 18 C4.34 18 3.68 18 3 18 C2.814375 16.6078125 2.814375 16.6078125 2.625 15.1875 C2.18466918 11.86074765 2.18466918 11.86074765 0 9 C-0.1953125 6.73828125 -0.1953125 6.73828125 -0.125 4.3125 C-0.10695313 3.50425781 -0.08890625 2.69601563 -0.0703125 1.86328125 C-0.04710937 1.24839844 -0.02390625 0.63351563 0 0 Z " fill="#389229" transform="translate(488,182)"/>
<path d="M0 0 C8.31616812 0.58359075 16.01459326 2.73799414 24 5 C24 5.33 24 5.66 24 6 C18.71754012 6.18215379 14.98771103 5.89533019 10 4 C8.21153942 3.44783973 6.41961113 2.90682998 4.625 2.375 C3.75101562 2.11460938 2.87703125 1.85421875 1.9765625 1.5859375 C0.99816406 1.29589844 0.99816406 1.29589844 0 1 C0 0.67 0 0.34 0 0 Z " fill="#82B879" transform="translate(298,4)"/>
<path d="M0 0 C6.67711828 0.93169092 13.33773545 1.96810038 20 3 C20 3.33 20 3.66 20 4 C17.79402076 4.25081682 15.58497421 4.47473851 13.375 4.6875 C12.14523438 4.81511719 10.91546875 4.94273437 9.6484375 5.07421875 C5.61924374 4.99225442 3.42360827 4.04889787 0 2 C0 1.34 0 0.68 0 0 Z " fill="#6FB261" transform="translate(137,341)"/>
<path d="M0 0 C1.485 0.86625 1.485 0.86625 3 1.75 C6.92380641 3.9944491 10.94324564 6.00926281 15 8 C16.33379856 8.66573541 17.66725821 9.33215156 19 10 C10.87371744 10.46882399 10.87371744 10.46882399 7.4375 8.625 C6 7 6 7 6 5 C4.35 4.67 2.7 4.34 1 4 C0.67 2.68 0.34 1.36 0 0 Z " fill="#7DB771" transform="translate(209,401)"/>
<path d="M0 0 C0.93045933 2.55144824 1.08564091 3.74006478 0.22265625 6.359375 C-0.16019531 7.14828125 -0.54304688 7.9371875 -0.9375 8.75 C-1.31777344 9.54921875 -1.69804687 10.3484375 -2.08984375 11.171875 C-2.39019531 11.77515625 -2.69054687 12.3784375 -3 13 C-3.99 12.67 -4.98 12.34 -6 12 C-6 12.66 -6 13.32 -6 14 C-6.66 14 -7.32 14 -8 14 C-6.6744419 10.37723685 -5.05653045 7.36494652 -2.875 4.1875 C-2.33617187 3.39730469 -1.79734375 2.60710937 -1.2421875 1.79296875 C-0.83226562 1.20128906 -0.42234375 0.60960937 0 0 Z " fill="#77B66B" transform="translate(416,295)"/>
<path d="M0 0 C2.31 0.33 4.62 0.66 7 1 C7.0825 1.61875 7.165 2.2375 7.25 2.875 C8.23825442 5.67505419 9.40359985 5.74113932 12 7 C13.25 9.125 13.25 9.125 14 11 C10.41701717 9.34631562 7.24805523 7.23303797 4 5 C3.21625 4.46375 2.4325 3.9275 1.625 3.375 C1.08875 2.92125 0.5525 2.4675 0 2 C0 1.34 0 0.68 0 0 Z " fill="#66AC56" transform="translate(122,291)"/>
<path d="M0 0 C0 0.66 0 1.32 0 2 C-5.07476794 3.26305335 -9.72796354 4.27036084 -15 4 C-10.39722328 -0.19664936 -6.11927366 -2.11821011 0 0 Z " fill="#68A459" transform="translate(311,491)"/>
<path d="M0 0 C0.2475 0.5775 0.495 1.155 0.75 1.75 C1.93990475 4.13449889 1.93990475 4.13449889 4.125 6.125 C6 8 6 8 6 10 C6.99 10 7.98 10 9 10 C8.34 11.32 7.68 12.64 7 14 C5.4941255 12.21326795 3.9954515 10.42046492 2.5 8.625 C1.6646875 7.62726563 0.829375 6.62953125 -0.03125 5.6015625 C-2 3 -2 3 -2 1 C-1.34 0.67 -0.68 0.34 0 0 Z " fill="#83B476" transform="translate(48,395)"/>
<path d="M0 0 C2.22953605 2.74934361 3.63633555 5.20446076 4.75 8.5625 C5.14445312 9.70912109 5.14445312 9.70912109 5.546875 10.87890625 C6 13 6 13 5 16 C4.34 16.33 3.68 16.66 3 17 C0.74566386 11.43930418 0.40038172 5.9214349 0 0 Z " fill="#76AF69" transform="translate(480,151)"/>
<path d="M0 0 C4.03385783 4.32199053 6.37128749 9.35446276 8 15 C7.67 15.66 7.34 16.32 7 17 C6.01 16.67 5.02 16.34 4 16 C4 13.69 4 11.38 4 9 C3.01 9 2.02 9 1 9 C0.67 6.03 0.34 3.06 0 0 Z " fill="#76AB6B" transform="translate(472,134)"/>
<path d="M0 0 C6.0546875 -0.1953125 6.0546875 -0.1953125 8 0 C10 2 10 2 10 3 C11.65 3.33 13.3 3.66 15 4 C15 4.66 15 5.32 15 6 C15.99 6.33 16.98 6.66 18 7 C11.30965634 6.55397709 5.97187878 3.92654458 0 1 C0 0.67 0 0.34 0 0 Z " fill="#81B576" transform="translate(142,476)"/>
<path d="M0 0 C0.66 0.33 1.32 0.66 2 1 C1.88487847 2.72985242 1.75744323 4.45888751 1.625 6.1875 C1.52058594 7.63189453 1.52058594 7.63189453 1.4140625 9.10546875 C0.99784147 12.01508938 0.20125904 14.32890774 -1 17 C-1.33 17 -1.66 17 -2 17 C-2.125 10.25 -2.125 10.25 -1 8 C-1.2784375 6.7934375 -1.2784375 6.7934375 -1.5625 5.5625 C-2 3 -2 3 0 0 Z " fill="#56A648" transform="translate(486,318)"/>
<path d="M0 0 C0.99 0.33 1.98 0.66 3 1 C-5.261959 8.66742597 -5.261959 8.66742597 -10 10 C-10 9.01 -10 8.02 -10 7 C-8.68 7 -7.36 7 -6 7 C-6 5.68 -6 4.36 -6 3 C-4.02 2.67 -2.04 2.34 0 2 C0 1.34 0 0.68 0 0 Z " fill="#64A756" transform="translate(372,292)"/>
<path d="M0 0 C0.66 0.33 1.32 0.66 2 1 C-4.92938497 9.81548975 -4.92938497 9.81548975 -11 11 C-7.6189962 6.86378916 -4.33409466 3.18683431 0 0 Z " fill="#80BA71" transform="translate(89,56)"/>
<path d="M0 0 C-0.99 0.33 -1.98 0.66 -3 1 C-3.33 1.99 -3.66 2.98 -4 4 C-6.75078884 4.91692961 -8.35948913 5.10886083 -11.1875 5.0625 C-13.0746875 5.0315625 -13.0746875 5.0315625 -15 5 C-11.55014028 1.85012808 -4.53875449 -2.26937725 0 0 Z " fill="#7BBA6E" transform="translate(162,16)"/>
<path d="M0 0 C0.66 0 1.32 0 2 0 C2 2.31 2 4.62 2 7 C2.66 7 3.32 7 4 7 C4 10.3 4 13.6 4 17 C3.34 17 2.68 17 2 17 C1.66507287 14.54187409 1.3319903 12.08352273 1 9.625 C0.90460938 8.92632812 0.80921875 8.22765625 0.7109375 7.5078125 C0 2.2265625 0 2.2265625 0 0 Z " fill="#5DA849" transform="translate(425,217)"/>
<path d="M0 0 C0 0.66 0 1.32 0 2 C1.175625 2.185625 1.175625 2.185625 2.375 2.375 C5 3 5 3 7 5 C-0.26 4.01 -7.52 3.02 -15 2 C-15 1.67 -15 1.34 -15 1 C-13.43784452 0.83013455 -11.8752548 0.66426036 -10.3125 0.5 C-9.44238281 0.4071875 -8.57226562 0.314375 -7.67578125 0.21875 C-5.10276661 0.00840136 -2.58015636 -0.03719144 0 0 Z " fill="#88B77C" transform="translate(355,153)"/>
<path d="M0 0 C1.41623216 -0.05447047 2.83308191 -0.09300508 4.25 -0.125 C5.03890625 -0.14820312 5.8278125 -0.17140625 6.640625 -0.1953125 C9.20731941 0.0171622 10.7916067 0.71345895 13 2 C13 2.99 13 3.98 13 5 C8.71 4.01 4.42 3.02 0 2 C0 1.34 0 0.68 0 0 Z " fill="#65A953" transform="translate(267,86)"/>
<path d="M0 0 C1 4 1 4 0 7 C-0.66 7 -1.32 7 -2 7 C-2.66 8.32 -3.32 9.64 -4 11 C-4.99 9.68 -5.98 8.36 -7 7 C-4.69 4.69 -2.38 2.38 0 0 Z " fill="#5FA54D" transform="translate(72,72)"/>
<path d="M0 0 C1.98 0.495 1.98 0.495 4 1 C4 1.66 4 2.32 4 3 C5.98 3.66 7.96 4.32 10 5 C10 6.65 10 8.3 10 10 C9.01 10.495 9.01 10.495 8 11 C7.67 9.35 7.34 7.7 7 6 C4.36 5.67 1.72 5.34 -1 5 C-0.67 3.35 -0.34 1.7 0 0 Z " fill="#31961E" transform="translate(394,48)"/>
<path d="M0 0 C0.66 0 1.32 0 2 0 C3.125 5.625 3.125 5.625 2 9 C-0.0625 9.6875 -0.0625 9.6875 -2 10 C-1.85950482 8.52031676 -1.71245174 7.04125484 -1.5625 5.5625 C-1.48128906 4.73878906 -1.40007812 3.91507812 -1.31640625 3.06640625 C-1 1 -1 1 0 0 Z " fill="#499E3C" transform="translate(388,261)"/>
<path d="M0 0 C12.66970387 -0.18451025 12.66970387 -0.18451025 18 1 C18 1.33 18 1.66 18 2 C14.43693339 2.73088546 10.94221677 3.13138181 7.3125 3.25 C6.19294922 3.28867187 6.19294922 3.28867187 5.05078125 3.328125 C2.48511212 2.91761794 1.62883654 1.96494567 0 0 Z " fill="#77B66D" transform="translate(266,496)"/>
<path d="M0 0 C4.71354196 1.57118065 7.29212409 4.93818614 10 9 C8.68 9 7.36 9 6 9 C6 8.34 6 7.68 6 7 C5.071875 6.7834375 5.071875 6.7834375 4.125 6.5625 C2 6 2 6 0 5 C0 3.35 0 1.7 0 0 Z " fill="#6DB15E" transform="translate(416,63)"/>
<path d="M0 0 C0 0.66 0 1.32 0 2 C-0.66 2 -1.32 2 -2 2 C-2 2.99 -2 3.98 -2 5 C-3.6210103 5.69685498 -5.24696066 6.38222861 -6.875 7.0625 C-7.77992187 7.44535156 -8.68484375 7.82820313 -9.6171875 8.22265625 C-12 9 -12 9 -14 8 C-12.37615858 6.85252535 -10.75088944 5.7070709 -9.125 4.5625 C-8.22007813 3.92441406 -7.31515625 3.28632812 -6.3828125 2.62890625 C-2.53717026 0 -2.53717026 0 0 0 Z " fill="#85BD75" transform="translate(122,34)"/>
<path d="M0 0 C2 0 2 0 3.5625 1.25 C5.15506076 3.18876962 5.43905917 4.59596785 6 7 C6.66 7.33 7.32 7.66 8 8 C8 10.31 8 12.62 8 15 C3.86232737 10.56677932 2.04471126 5.60120371 0 0 Z " fill="#87BB79" transform="translate(25,362)"/>
<path d="M0 0 C1.32 0.33 2.64 0.66 4 1 C3.01 2.485 3.01 2.485 2 4 C1.34 4 0.68 4 0 4 C-0.2475 4.5775 -0.495 5.155 -0.75 5.75 C-2.16683317 8.3002997 -3.87627537 10.01785701 -6 12 C-6 10.68 -6 9.36 -6 8 C-5.34 8 -4.68 8 -4 8 C-3.67 6.02 -3.34 4.04 -3 2 C-1.68 2 -0.36 2 1 2 C0.67 1.34 0.34 0.68 0 0 Z " fill="#80B773" transform="translate(95,180)"/>
<path d="M0 0 C2.79477511 4.19216267 2.44946352 7.56282282 1.546875 12.45703125 C1.06389844 14.64767493 0.55216241 16.8258605 0 19 C-0.33 19 -0.66 19 -1 19 C-1.33 16.69 -1.66 14.38 -2 12 C-1.34 12 -0.68 12 0 12 C0 8.04 0 4.08 0 0 Z " fill="#7FB470" transform="translate(493,291)"/>
<path d="M0 0 C0.33 0 0.66 0 1 0 C0.85805236 2.06277107 0.71127784 4.12521031 0.5625 6.1875 C0.48128906 7.33605469 0.40007812 8.48460937 0.31640625 9.66796875 C0.04596188 12.51598171 -0.37521747 15.21210482 -1 18 C-1.33 18 -1.66 18 -2 18 C-2.3690205 5.33029613 -2.3690205 5.33029613 0 0 Z " fill="#6DAA5A" transform="translate(497,275)"/>
<path d="M0 0 C0.66 0.33 1.32 0.66 2 1 C1.11223998 4.69900008 0.05418136 8.34550461 -1 12 C-1.66 12 -2.32 12 -3 12 C-3.08131463 10.56344146 -3.13933559 9.1255517 -3.1875 7.6875 C-3.22230469 6.88699219 -3.25710938 6.08648437 -3.29296875 5.26171875 C-2.93801608 2.52148416 -2.10633718 1.70828921 0 0 Z " fill="#23A314" transform="translate(387,257)"/>
<path d="M0 0 C0.99 0.33 1.98 0.66 3 1 C1.77263971 5.15414253 0.672336 7.43688534 -2 11 C-2 7.7 -2 4.4 -2 1 C-1.34 0.67 -0.68 0.34 0 0 Z " fill="#309820" transform="translate(5,208)"/>
<path d="M0 0 C0.33 0.66 0.66 1.32 1 2 C0.00390625 4.1640625 0.00390625 4.1640625 -1.4375 6.625 C-1.91058594 7.44226563 -2.38367187 8.25953125 -2.87109375 9.1015625 C-3.24363281 9.72804688 -3.61617187 10.35453125 -4 11 C-5.32 11 -6.64 11 -8 11 C-6.60366572 6.55711819 -4.39598172 4.13475236 -1 1 C-0.67 0.67 -0.34 0.34 0 0 Z " fill="#77B669" transform="translate(54,92)"/>
<path d="M0 0 C0.33 0.66 0.66 1.32 1 2 C2.65 2 4.3 2 6 2 C6 2.66 6 3.32 6 4 C6.66 4 7.32 4 8 4 C8.33 4.99 8.66 5.98 9 7 C4.27934033 5.45730076 -0.41664092 3.92205381 -5 2 C-5 1.67 -5 1.34 -5 1 C-3.35 0.67 -1.7 0.34 0 0 Z " fill="#7EB76D" transform="translate(367,157)"/>
<path d="M0 0 C0.33 1.32 0.66 2.64 1 4 C0.01 4.66 -0.98 5.32 -2 6 C-3.19232613 8.05003955 -3.19232613 8.05003955 -4 10 C-4.99 10 -5.98 10 -7 10 C-7 10.66 -7 11.32 -7 12 C-7.66 11.67 -8.32 11.34 -9 11 C-6.03 7.37 -3.06 3.74 0 0 Z " fill="#84BA73" transform="translate(64,80)"/>
<path d="M0 0 C1.46300982 0.93018526 2.92025579 1.86944027 4.375 2.8125 C5.18710937 3.33457031 5.99921875 3.85664062 6.8359375 4.39453125 C9 6 9 6 11 9 C10.01 9 9.02 9 8 9 C7.67 9.66 7.34 10.32 7 11 C7 9.35 7 7.7 7 6 C4.69 5.67 2.38 5.34 0 5 C0 3.35 0 1.7 0 0 Z " fill="#8BBD80" transform="translate(397,47)"/>
<path d="M0 0 C1.32 0.33 2.64 0.66 4 1 C1.36 3.97 -1.28 6.94 -4 10 C-4.33 8.68 -4.66 7.36 -5 6 C-4.34 6 -3.68 6 -3 6 C-2.87625 5.38125 -2.7525 4.7625 -2.625 4.125 C-2 2 -2 2 0 0 Z " fill="#75AD67" transform="translate(433,415)"/>
<path d="M0 0 C4.455 2.97 4.455 2.97 9 6 C8.34 6.66 7.68 7.32 7 8 C5.02 7.34 3.04 6.68 1 6 C0.67 4.02 0.34 2.04 0 0 Z " fill="#72B363" transform="translate(107,325)"/>
<path d="M0 0 C0.33 0 0.66 0 1 0 C1 2.64 1 5.28 1 8 C0.34 8 -0.32 8 -1 8 C-0.67 9.98 -0.34 11.96 0 14 C-0.99 13.34 -1.98 12.68 -3 12 C-2.49202991 7.6822542 -1.80317221 3.96697886 0 0 Z " fill="#31951F" transform="translate(492,295)"/>
<path d="M0 0 C1.32 0.33 2.64 0.66 4 1 C3.01 3.31 2.02 5.62 1 8 C0.34 8 -0.32 8 -1 8 C-1.33 9.98 -1.66 11.96 -2 14 C-2.33 14 -2.66 14 -3 14 C-3.125 8.25 -3.125 8.25 -2 6 C-1.34 6 -0.68 6 0 6 C0 4.02 0 2.04 0 0 Z " fill="#529D42" transform="translate(8,184)"/>
<path d="M0 0 C3.09592835 3.5087188 4.74194623 6.49197399 6 11 C5.34 10.67 4.68 10.34 4 10 C4 9.34 4 8.68 4 8 C2.68 7.67 1.36 7.34 0 7 C-1.125 2.25 -1.125 2.25 0 0 Z " fill="#74AB68" transform="translate(466,123)"/>
<path d="M0 0 C4.71403788 0.47939368 8.66579301 0.96834048 13 3 C13 3.33 13 3.66 13 4 C8.17639811 4.19294408 4.50353262 3.75747614 0 2 C0 1.34 0 0.68 0 0 Z " fill="#7AB371" transform="translate(324,11)"/>
<path d="M0 0 C1.19406639 4.23758899 0.80518369 7.12123805 -0.9375 11.1875 C-2 13 -2 13 -4 15 C-5.11346788 12.19966161 -5.03510273 11.09856297 -4.00390625 8.203125 C-3.52824219 7.22859375 -3.05257813 6.2540625 -2.5625 5.25 C-2.08941406 4.26515625 -1.61632812 3.2803125 -1.12890625 2.265625 C-0.75636719 1.51796875 -0.38382812 0.7703125 0 0 Z " fill="#7AB56E" transform="translate(422,282)"/>
<path d="M0 0 C5.15464734 0.48324819 8.81550319 3.18610761 13 6 C12.01 6.495 12.01 6.495 11 7 C10.01 6.67 9.02 6.34 8 6 C8 5.34 8 4.68 8 4 C6.68 4.33 5.36 4.66 4 5 C3.71125 4.360625 3.4225 3.72125 3.125 3.0625 C2.17176549 0.84793921 2.17176549 0.84793921 0 0 Z " fill="#7FB771" transform="translate(355,193)"/>
<path d="M0 0 C1.05602687 3.66036382 0.91217967 6.2683559 0 10 C-0.99 10.495 -0.99 10.495 -2 11 C-3.13350534 13.01669827 -3.13350534 13.01669827 -4 15 C-5 13 -5 13 -4.00390625 9.9609375 C-3.52824219 8.77757812 -3.05257813 7.59421875 -2.5625 6.375 C-2.08941406 5.18648437 -1.61632812 3.99796875 -1.12890625 2.7734375 C-0.75636719 1.85820312 -0.38382813 0.94296875 0 0 Z " fill="#94C686" transform="translate(20,146)"/>
<path d="M0 0 C5.75 3.625 5.75 3.625 8 7 C6.35 7.33 4.7 7.66 3 8 C3 7.34 3 6.68 3 6 C2.34 6 1.68 6 1 6 C0.67 4.02 0.34 2.04 0 0 Z " fill="#6CB260" transform="translate(408,56)"/>
<path d="M0 0 C2.31 0.33 4.62 0.66 7 1 C7.0825 1.61875 7.165 2.2375 7.25 2.875 C7.81258459 5.18437567 7.81258459 5.18437567 10.0625 6.25 C10.701875 6.4975 11.34125 6.745 12 7 C8.38862487 7 7.25267809 6.07469918 4.3125 4.0625 C3.50425781 3.51722656 2.69601563 2.97195313 1.86328125 2.41015625 C1.24839844 1.94480469 0.63351563 1.47945313 0 1 C0 0.67 0 0.34 0 0 Z " fill="#8EBD7D" transform="translate(108,456)"/>
<path d="M0 0 C0.66 0.33 1.32 0.66 2 1 C0.68938409 5.23429756 -0.94356259 9.07407404 -3 13 C-3.33 13 -3.66 13 -4 13 C-4.1875 10.1875 -4.1875 10.1875 -4 7 C-2.5625 5.375 -2.5625 5.375 -1 4 C-0.28552357 1.89667109 -0.28552357 1.89667109 0 0 Z " fill="#65A755" transform="translate(387,269)"/>
<path d="M0 0 C2.31 1.98 4.62 3.96 7 6 C6.67 6.66 6.34 7.32 6 8 C4.68 8 3.36 8 2 8 C0.23537317 4.91190305 0 3.76687864 0 0 Z " fill="#62A753" transform="translate(373,204)"/>
<path d="M0 0 C7.66742597 5.96583144 7.66742597 5.96583144 9 11 C7.35 10.67 5.7 10.34 4 10 C3.34 8.02 2.68 6.04 2 4 C1.34 4 0.68 4 0 4 C0 2.68 0 1.36 0 0 Z " fill="#74B267" transform="translate(439,86)"/>
<path d="M0 0 C0.66 0.33 1.32 0.66 2 1 C2.4140625 3.06640625 2.4140625 3.06640625 2.625 5.5625 C2.69976562 6.38878906 2.77453125 7.21507812 2.8515625 8.06640625 C2.92503906 9.02353516 2.92503906 9.02353516 3 10 C2.01 9.67 1.02 9.34 0 9 C-1.125 2.25 -1.125 2.25 0 0 Z " fill="#3A912C" transform="translate(484,166)"/>
<path d="M0 0 C4.5929708 3.52127761 5.11941917 7.57747597 6 13 C5.01 12.67 4.02 12.34 3 12 C1.63866302 8.06724871 0.74383122 4.09107168 0 0 Z " fill="#5EA851" transform="translate(453,103)"/>
<path d="M0 0 C2.31 0.66 4.62 1.32 7 2 C7.79953138 5.28696233 8.09658936 6.71023192 7 10 C6.401875 9.0925 5.80375 8.185 5.1875 7.25 C3.51893234 4.77098519 1.82063145 2.36682089 0 0 Z " fill="#76BB69" transform="translate(286,95)"/>
<path d="M0 0 C6.47556391 0.61090226 6.47556391 0.61090226 8.9375 2.4375 C10 4 10 4 10 6 C5.56909529 4.79157144 3.01887244 3.48331435 0 0 Z " fill="#81B575" transform="translate(124,466)"/>
<path d="M0 0 C-0.99 1.485 -0.99 1.485 -2 3 C-4.8203125 3.51171875 -4.8203125 3.51171875 -8.125 3.6875 C-9.76855469 3.78611328 -9.76855469 3.78611328 -11.4453125 3.88671875 C-12.28835938 3.92410156 -13.13140625 3.96148437 -14 4 C-11.37350692 2.24900461 -9.38191413 1.30690675 -6.4375 0.3125 C-5.65246094 0.04050781 -4.86742187 -0.23148437 -4.05859375 -0.51171875 C-2 -1 -2 -1 0 0 Z " fill="#81BE79" transform="translate(371,339)"/>
<path d="M0 0 C-1.20381448 2.49361571 -2.45428722 4.68143083 -4 7 C-4.99 7 -5.98 7 -7 7 C-6.61402985 4.20171644 -6.19863427 3.1794116 -4.0625 1.25 C-2 0 -2 0 0 0 Z " fill="#6EB261" transform="translate(390,327)"/>
<path d="M0 0 C1.32 0.33 2.64 0.66 4 1 C4 2.32 4 3.64 4 5 C4.66 5 5.32 5 6 5 C6 6.98 6 8.96 6 11 C3.02753198 8.45217026 1.58464712 5.54659117 0 2 C0 1.34 0 0.68 0 0 Z " fill="#7AB868" transform="translate(109,270)"/>
<path d="M0 0 C0.33 0 0.66 0 1 0 C1.3540919 6.51791392 1.03901852 11.17521449 -2 17 C-3.59190467 13.81619067 -2.28749598 10.71923676 -1.5625 7.375 C-1.41490234 6.66859375 -1.26730469 5.9621875 -1.11523438 5.234375 C-0.74950507 3.48831251 -0.37552879 1.74398116 0 0 Z " fill="#95C58D" transform="translate(427,262)"/>
<path d="M0 0 C2.1926135 4.2186994 4.36894477 8.60185899 3.625 13.4375 C3.41875 13.953125 3.2125 14.46875 3 15 C-0.16727335 9.8531808 -0.35050464 5.841744 0 0 Z " fill="#90C37D" transform="translate(490,181)"/>
<path d="M0 0 C3.95820859 0.56545837 6.6659053 1.80902348 10 4 C9.34 4.66 8.68 5.32 8 6 C7.34 6 6.68 6 6 6 C6 5.34 6 4.68 6 4 C5.38125 3.896875 4.7625 3.79375 4.125 3.6875 C2 3 2 3 0 0 Z " fill="#5DA847" transform="translate(404,185)"/>
<path d="M0 0 C1.32 0 2.64 0 4 0 C7 6.5 7 6.5 7 11 C6.34 11 5.68 11 5 11 C5 8.69 5 6.38 5 4 C4.01 4 3.02 4 2 4 C1.34 2.68 0.68 1.36 0 0 Z " fill="#359427" transform="translate(466,131)"/>
<path d="M0 0 C0.66 0 1.32 0 2 0 C0.79157144 4.43090471 -0.51668565 6.98112756 -4 10 C-4.66 9.67 -5.32 9.34 -6 9 C-5.525625 8.21625 -5.05125 7.4325 -4.5625 6.625 C-3.66101977 5.11051322 -2.78820515 3.5764103 -2 2 C-1.34 2 -0.68 2 0 2 C0 1.34 0 0.68 0 0 Z " fill="#369723" transform="translate(57,90)"/>
<path d="M0 0 C-1.04874998 2.62187494 -1.64931313 3.79371361 -4.125 5.25 C-4.74375 5.4975 -5.3625 5.745 -6 6 C-6.99 5.34 -7.98 4.68 -9 4 C-4.5 0 -4.5 0 0 0 Z " fill="#31961F" transform="translate(99,53)"/>
<path d="M0 0 C-2.31 1.65 -4.62 3.3 -7 5 C-9 4 -9 4 -10 2 C-4.5 -1.125 -4.5 -1.125 0 0 Z " fill="#75B169" transform="translate(384,461)"/>
<path d="M0 0 C2.38564077 0.57584432 4.66682784 1.22227595 7 2 C7 2.99 7 3.98 7 5 C7.99 5.33 8.98 5.66 10 6 C10 6.66 10 7.32 10 8 C6.21388773 7.45912682 4.44599233 5.88277668 2 3 C2 2.34 2 1.68 2 1 C1.34 0.67 0.68 0.34 0 0 Z " fill="#4B9D3A" transform="translate(114,458)"/>
<path d="M0 0 C0.66 0 1.32 0 2 0 C2.3125 2.25 2.3125 2.25 2 5 C-0.5 7.3125 -0.5 7.3125 -3 9 C-3 7.68 -3 6.36 -3 5 C-2.34 5 -1.68 5 -1 5 C-0.67 3.35 -0.34 1.7 0 0 Z " fill="#60A64B" transform="translate(441,404)"/>
<path d="M0 0 C0.33 0 0.66 0 1 0 C1.35338623 2.96844435 1.5417682 5.15598218 -0.11328125 7.734375 C-1.35503168 9.20348819 -2.67337918 10.60704814 -4 12 C-4.33 10.68 -4.66 9.36 -5 8 C-4.01 7.67 -3.02 7.34 -2 7 C-2 6.01 -2 5.02 -2 4 C-1.34 4 -0.68 4 0 4 C0 2.68 0 1.36 0 0 Z " fill="#7CB36E" transform="translate(448,396)"/>
<path d="M0 0 C0 1.65 0 3.3 0 5 C-0.99 5.33 -1.98 5.66 -3 6 C-3.73323796 8.01508358 -3.73323796 8.01508358 -4 10 C-5.55913346 6.88173308 -4.66585225 4.32926126 -4 1 C-2 0 -2 0 0 0 Z " fill="#4B9B3B" transform="translate(427,278)"/>
<path d="M0 0 C2.09350689 3.4019487 2.17942163 6.05272412 2 10 C1.01 10.33 0.02 10.66 -1 11 C-1.14285714 3.57142857 -1.14285714 3.57142857 0 0 Z " fill="#5FAA4D" transform="translate(4,198)"/>
<path d="M0 0 C0 3.92823101 -1.51754449 5.06618894 -4 8 C-4.33 8.66 -4.66 9.32 -5 10 C-7.0625 10.625 -7.0625 10.625 -9 11 C-7.59155282 7.78475695 -5.89655214 5.67816132 -3.375 3.25 C-2.74335937 2.63640625 -2.11171875 2.0228125 -1.4609375 1.390625 C-0.73777344 0.70226562 -0.73777344 0.70226562 0 0 Z " fill="#A1CF95" transform="translate(127,201)"/>
<path d="M0 0 C0.66 0 1.32 0 2 0 C2 0.66 2 1.32 2 2 C2.9075 2.0825 3.815 2.165 4.75 2.25 C8.40077839 3.09248732 9.63384583 4.17881618 12 7 C9.6875 7.1875 9.6875 7.1875 7 7 C5.4375 5.5625 5.4375 5.5625 4 4 C1.89667109 3.28552357 1.89667109 3.28552357 0 3 C0 2.01 0 1.02 0 0 Z " fill="#54A346" transform="translate(361,197)"/>
<path d="M0 0 C4.97093824 0.41153737 9.44508386 0.79600832 14 3 C14 3.33 14 3.66 14 4 C8.57960425 4.40652968 4.92984325 3.03993514 0 1 C0 0.67 0 0.34 0 0 Z " fill="#94C28D" transform="translate(341,189)"/>
<path d="M0 0 C0.33 0 0.66 0 1 0 C1 1.98 1 3.96 1 6 C-0.32 6.33 -1.64 6.66 -3 7 C-3.33 8.32 -3.66 9.64 -4 11 C-4.33 10.34 -4.66 9.68 -5 9 C-4.00390625 6.8359375 -4.00390625 6.8359375 -2.5625 4.375 C-2.08941406 3.55773437 -1.61632812 2.74046875 -1.12890625 1.8984375 C-0.75636719 1.27195312 -0.38382813 0.64546875 0 0 Z " fill="#92C27E" transform="translate(33,121)"/>
<path d="M0 0 C0.99 0.33 1.98 0.66 3 1 C2.01 1.495 2.01 1.495 1 2 C1.33 2.99 1.66 3.98 2 5 C-0.375 5.625 -0.375 5.625 -3 6 C-3.66 5.34 -4.32 4.68 -5 4 C-2.6875 1.9375 -2.6875 1.9375 0 0 Z " fill="#389623" transform="translate(111,41)"/>
<path d="M0 0 C0 0.66 0 1.32 0 2 C-5.75 5 -5.75 5 -8 5 C-8 4.01 -8 3.02 -8 2 C-4.77208445 -0.1519437 -3.71599191 -0.20086443 0 0 Z " fill="#379427" transform="translate(167,15)"/>
<path d="M0 0 C0.33 0.99 0.66 1.98 1 3 C-2.3 3 -5.6 3 -9 3 C-9 2.01 -9 1.02 -9 0 C-5.93109813 -1.53445094 -3.29905734 -0.54984289 0 0 Z " fill="#239E0F" transform="translate(281,3)"/>
<path d="M0 0 C1.65 0 3.3 0 5 0 C1.4912812 3.09592835 -1.49197399 4.74194623 -6 6 C-6.33 5.01 -6.66 4.02 -7 3 C-4.69 2.34 -2.38 1.68 0 1 C0 0.67 0 0.34 0 0 Z " fill="#85BA73" transform="translate(360,471)"/>
<path d="M0 0 C0.33 0.99 0.66 1.98 1 3 C1.66 3.33 2.32 3.66 3 4 C2.34 5.32 1.68 6.64 1 8 C-0.5 6.75 -0.5 6.75 -2 5 C-2 3.68 -2 2.36 -2 1 C-1.34 0.67 -0.68 0.34 0 0 Z " fill="#66AE56" transform="translate(402,177)"/>
<path d="M0 0 C-0.66 1.32 -1.32 2.64 -2 4 C-3.32 4 -4.64 4 -6 4 C-6 4.66 -6 5.32 -6 6 C-7.32 6.33 -8.64 6.66 -10 7 C-8.60449526 2.81348579 -4.64858615 0 0 0 Z " fill="#57A246" transform="translate(83,65)"/>
<path d="M0 0 C0.99 0.33 1.98 0.66 3 1 C0.88306276 3.43055758 -0.53521326 4.84507109 -3.625 5.875 C-4.40875 5.91625 -5.1925 5.9575 -6 6 C-6.66 5.34 -7.32 4.68 -8 4 C-6.35 4 -4.7 4 -3 4 C-3 3.34 -3 2.68 -3 2 C-2.01 1.34 -1.02 0.68 0 0 Z " fill="#79B16D" transform="translate(371,465)"/>
<path d="M0 0 C1.98 0 3.96 0 6 0 C1.375 4.875 1.375 4.875 -2 6 C-2 3 -2 3 0 1 C0 0.67 0 0.34 0 0 Z " fill="#70AF5F" transform="translate(395,448)"/>
<path d="M0 0 C1.32 0.33 2.64 0.66 4 1 C4.625 3.8125 4.625 3.8125 5 7 C4.01 8.485 4.01 8.485 3 10 C2.01 6.7 1.02 3.4 0 0 Z " fill="#77B86C" transform="translate(294,105)"/>
<path d="M0 0 C1.65 0 3.3 0 5 0 C5 1.32 5 2.64 5 4 C3.35 4 1.7 4 0 4 C0 2.68 0 1.36 0 0 Z " fill="#23A211" transform="translate(257,84)"/>
<path d="M0 0 C0.515625 0.2475 1.03125 0.495 1.5625 0.75 C-0.71545022 3.02795022 -2.37537293 3.80219877 -5.4375 4.75 C-7.75 4.375 -7.75 4.375 -9.4375 3.75 C-3.0375 -0.31153846 -3.0375 -0.31153846 0 0 Z " fill="#8AC17E" transform="translate(142.4375,23.25)"/>
<path d="M0 0 C-2.52788007 2.79872437 -4.20411134 4.45773019 -8 5 C-8.33 4.34 -8.66 3.68 -9 3 C-5.92807025 0.26939578 -4.09590633 -0.34132553 0 0 Z " fill="#79AE64" transform="translate(392,455)"/>
<path d="M0 0 C2.89932357 2.39509338 3.50168276 4.31245243 4 8 C1.69 6.02 -0.62 4.04 -3 2 C-2.01 1.34 -1.02 0.68 0 0 Z " fill="#67A859" transform="translate(71,421)"/>
<path d="M0 0 C2 0 2 0 4.125 1.6875 C6 4 6 4 6.25 6.75 C6.1675 7.4925 6.085 8.235 6 9 C2.07699505 6.64619703 1.16142685 4.35535069 0 0 Z " fill="#58A749" transform="translate(62,413)"/>
<path d="M0 0 C0.66 0 1.32 0 2 0 C2 0.99 2 1.98 2 3 C1.01 3 0.02 3 -1 3 C-0.67 4.32 -0.34 5.64 0 7 C-1.32 7 -2.64 7 -4 7 C-2.92598892 4.08482708 -2.22189824 2.22189824 0 0 Z " fill="#399823" transform="translate(376,285)"/>
<path d="M0 0 C1.98 0 3.96 0 6 0 C5.34 1.65 4.68 3.3 4 5 C2.68 4.67 1.36 4.34 0 4 C0 2.68 0 1.36 0 0 Z " fill="#63AF53" transform="translate(80,196)"/>
<path d="M0 0 C7.75 0.75 7.75 0.75 10 3 C9.67 3.99 9.34 4.98 9 6 C9 5.34 9 4.68 9 4 C8.2575 4.0825 7.515 4.165 6.75 4.25 C3.21842973 3.92894816 2.23369636 2.64734383 0 0 Z " fill="#399629" transform="translate(390,171)"/>
<path d="M0 0 C4.7517398 0.43197635 6.92000054 1.32769295 10 5 C6.44219804 4.39009109 3.3171411 3.4216319 0 2 C0 1.34 0 0.68 0 0 Z " fill="#3B922A" transform="translate(355,153)"/>
<path d="M0 0 C5.875 4.625 5.875 4.625 7 8 C4.08482708 6.92598892 2.22189824 6.22189824 0 4 C0 2.68 0 1.36 0 0 Z " fill="#7AB26D" transform="translate(101,448)"/>
<path d="M0 0 C2.78388975 1.70625501 3.85384206 2.47626739 4.75 5.6875 C4.8325 6.450625 4.915 7.21375 5 8 C2 7 2 7 0 4 C0 2.68 0 1.36 0 0 Z " fill="#5BA44A" transform="translate(426,72)"/>
<path d="M0 0 C3.93673644 1.31224548 6.22719294 2.91910327 9 6 C6.75 6.25 6.75 6.25 4 6 C1.6875 4.125 1.6875 4.125 0 2 C0 1.34 0 0.68 0 0 Z " fill="#97C88C" transform="translate(377,34)"/>
<path d="M0 0 C3.91211733 1.15585285 6.8745041 2.35534962 10 5 C7 6 7 6 5.17578125 5.22265625 C3.45052083 4.1484375 1.72526042 3.07421875 0 2 C0 1.34 0 0.68 0 0 Z " fill="#85B978" transform="translate(358,24)"/>
<path d="M0 0 C0 0.99 0 1.98 0 3 C-1.98 3.33 -3.96 3.66 -6 4 C-6.33 3.01 -6.66 2.02 -7 1 C-3.535 0.505 -3.535 0.505 0 0 Z " fill="#23A210" transform="translate(330,481)"/>
<path d="M0 0 C2.31 0 4.62 0 7 0 C7.33 1.32 7.66 2.64 8 4 C2.25 2.25 2.25 2.25 0 0 Z " fill="#7BB371" transform="translate(134,472)"/>
<path d="M0 0 C0.99 0 1.98 0 3 0 C1.25 5.75 1.25 5.75 -1 8 C-1.93065133 5.39417629 -2.14917407 4.35801776 -1.0625 1.75 C-0.711875 1.1725 -0.36125 0.595 0 0 Z " fill="#6DA862" transform="translate(478,344)"/>
<path d="M0 0 C1.65 0.33 3.3 0.66 5 1 C5.33 2.32 5.66 3.64 6 5 C3.69 4.67 1.38 4.34 -1 4 C-0.67 2.68 -0.34 1.36 0 0 Z " fill="#369B25" transform="translate(102,324)"/>
<path d="M0 0 C0 2.83967231 -0.40267181 5.23735711 -1 8 C-1.66 8 -2.32 8 -3 8 C-3 8.66 -3 9.32 -3 10 C-3.66 10 -4.32 10 -5 10 C-3.66511872 6.40608886 -2.03977277 3.24509304 0 0 Z " fill="#85C078" transform="translate(117,212)"/>
<path d="M0 0 C0.99 0 1.98 0 3 0 C1.25 5.75 1.25 5.75 -1 8 C-1.125 2.25 -1.125 2.25 0 0 Z " fill="#549F47" transform="translate(74,212)"/>
<path d="M0 0 C0.66 0.33 1.32 0.66 2 1 C-0.75 6.875 -0.75 6.875 -3 8 C-3.66 7.34 -4.32 6.68 -5 6 C-3.35 4.02 -1.7 2.04 0 0 Z " fill="#41972F" transform="translate(128,201)"/>
<path d="M0 0 C1.98 0 3.96 0 6 0 C5.01 0.495 5.01 0.495 4 1 C4 1.66 4 2.32 4 3 C2.02 3.66 0.04 4.32 -2 5 C-1.34 3.35 -0.68 1.7 0 0 Z " fill="#4F9D3A" transform="translate(145,21)"/>
<path d="M0 0 C1.875 0.5625 1.875 0.5625 4 2 C5.25 5.625 5.25 5.625 6 9 C2.91910327 6.22719294 1.31224548 3.93673644 0 0 Z " fill="#96BF8B" transform="translate(33,377)"/>
<path d="M0 0 C0.66 0.33 1.32 0.66 2 1 C0.92598892 3.91517292 0.22189824 5.77810176 -2 8 C-2.125 5.125 -2.125 5.125 -2 2 C-1.34 1.34 -0.68 0.68 0 0 Z " fill="#7BB06B" transform="translate(464,374)"/>
<path d="M0 0 C-1.75 5.75 -1.75 5.75 -4 8 C-4 5.69 -4 3.38 -4 1 C-2 0 -2 0 0 0 Z " fill="#8CBD80" transform="translate(477,354)"/>
<path d="M0 0 C0 0.99 0 1.98 0 3 C-1.96466413 4.06775224 -3.96855359 5.06553465 -6 6 C-6.66 5.67 -7.32 5.34 -8 5 C-2.25 0 -2.25 0 0 0 Z " fill="#3A9226" transform="translate(400,321)"/>
<path d="M0 0 C2.64 1.98 5.28 3.96 8 6 C6 7 6 7 3.4375 6.375 C1 5 1 5 0.1875 2.375 C0.125625 1.59125 0.06375 0.8075 0 0 Z " fill="#94C586" transform="translate(99,318)"/>
<path d="M0 0 C0.33 0 0.66 0 1 0 C1 1.98 1 3.96 1 6 C0.01 6.33 -0.98 6.66 -2 7 C-2 7.99 -2 8.98 -2 10 C-2.66 9.67 -3.32 9.34 -4 9 C-2.68 6.03 -1.36 3.06 0 0 Z " fill="#3F9229" transform="translate(30,128)"/>
<path d="M0 0 C1.32 0.33 2.64 0.66 4 1 C4 1.66 4 2.32 4 3 C4.66 3 5.32 3 6 3 C6 3.99 6 4.98 6 6 C5.01 6 4.02 6 3 6 C0 2.66666667 0 2.66666667 0 0 Z " fill="#3D972A" transform="translate(383,39)"/>
<path d="M0 0 C0 0.99 0 1.98 0 3 C-2.64 3 -5.28 3 -8 3 C-7.67 2.34 -7.34 1.68 -7 1 C-4.61370553 0.38812962 -2.46459429 0 0 0 Z " fill="#35931F" transform="translate(212,492)"/>
<path d="M0 0 C2.475 0.495 2.475 0.495 5 1 C5.33 1.99 5.66 2.98 6 4 C4.68 4 3.36 4 2 4 C2 3.34 2 2.68 2 2 C1.34 2 0.68 2 0 2 C0 1.34 0 0.68 0 0 Z " fill="#5C9F4A" transform="translate(182,488)"/>
<path d="M0 0 C0 0.66 0 1.32 0 2 C-3 4 -3 4 -5.6875 3.625 C-6.450625 3.41875 -7.21375 3.2125 -8 3 C-7 1 -7 1 -5.125 0.375 C-3 0 -3 0 0 0 Z " fill="#34951D" transform="translate(368,467)"/>
<path d="M0 0 C0.99 0 1.98 0 3 0 C3 0.99 3 1.98 3 3 C1.35 3.66 -0.3 4.32 -2 5 C-2.33 4.01 -2.66 3.02 -3 2 C-2.01 2 -1.02 2 0 2 C0 1.34 0 0.68 0 0 Z " fill="#69AD5C" transform="translate(403,443)"/>
<path d="M0 0 C2.475 0.495 2.475 0.495 5 1 C5.33 2.65 5.66 4.3 6 6 C3.96166576 4.7260411 1.96147874 3.38938077 0 2 C0 1.34 0 0.68 0 0 Z " fill="#7AB96F" transform="translate(122,291)"/>
<path d="M0 0 C0.99 0 1.98 0 3 0 C3.33 1.32 3.66 2.64 4 4 C2.68 4.33 1.36 4.66 0 5 C-0.33 4.01 -0.66 3.02 -1 2 C-0.67 1.34 -0.34 0.68 0 0 Z " fill="#3D942A" transform="translate(405,56)"/>
</svg>
